<svg width="54" height="54" viewBox="0 0 54 54" fill="none" xmlns="http://www.w3.org/2000/svg">
<rect opacity="0.2" width="54" height="54" fill="#23A8B3"/>
<path d="M20.4078 23.4353L24.438 37.4438L12 23.4353H20.4078ZM20.5618 21.6787H12L19.9231 14.3214C20.0876 14.1581 20.3101 14.0666 20.5419 14.0667H24.9543L20.5618 21.6787ZM22.5898 21.6787L26.9817 14.0672L31.3736 21.6787H22.5898ZM31.7284 23.4353L26.9817 39.9335L22.235 23.4353H31.7284ZM33.4016 21.6787L29.0091 14.0667H34.007C34.2511 14.0667 34.4835 14.168 34.6498 14.3466L42 21.6787H33.4016ZM41.9634 23.4353L29.5254 37.4438L33.5556 23.4353H41.9634Z" fill="white"/>
</svg>
