<svg width="54" height="54" viewBox="0 0 54 54" fill="none" xmlns="http://www.w3.org/2000/svg">
<rect opacity="0.2" width="54" height="54" fill="#23A8B3"/>
<path d="M39.0859 23.4453H38.5781V21.0078C38.577 20.2809 38.2878 19.584 37.7738 19.07C37.2597 18.556 36.5629 18.2667 35.8359 18.2656H33.5V16.5391C33.4991 15.8659 33.2313 15.2207 32.7553 14.7447C32.2793 14.2687 31.6341 14.0009 30.9609 14H23.0391C22.3659 14.0009 21.7207 14.2687 21.2447 14.7447C20.7687 15.2207 20.5009 15.8659 20.5 16.5391V18.2656H18.1641C17.4371 18.2667 16.7403 18.556 16.2262 19.07C15.7122 19.584 15.4229 20.2809 15.4219 21.0078V23.4453H14.9141C14.6718 23.4457 14.4395 23.5421 14.2681 23.7134C14.0968 23.8848 14.0004 24.1171 14 24.3594V30.8594C14.0004 31.1017 14.0968 31.334 14.2681 31.5053C14.4395 31.6766 14.6718 31.7731 14.9141 31.7734H15.4219V37.2578C15.4229 37.9848 15.7122 38.6816 16.2262 39.1956C16.7403 39.7097 17.4371 39.9989 18.1641 40H35.8359C36.5629 39.9989 37.2597 39.7097 37.7738 39.1956C38.2878 38.6816 38.577 37.9848 38.5781 37.2578V31.7734H39.0859C39.3282 31.7731 39.5605 31.6766 39.7319 31.5053C39.9032 31.334 39.9996 31.1017 40 30.8594V24.3594C39.9996 24.1171 39.9032 23.8848 39.7319 23.7134C39.5605 23.5421 39.3282 23.4457 39.0859 23.4453ZM23.1406 16.6406H30.8594V18.2656H23.1406V16.6406ZM21.9219 27.4062H32.0781V28.0156H21.9219V27.4062ZM18.6719 28.0156H16.0312V27.4062H18.6719V28.0156ZM21.3125 29.1328C21.3125 29.2136 21.2804 29.2911 21.2233 29.3483C21.1661 29.4054 21.0886 29.4375 21.0078 29.4375H19.5859C19.5051 29.4375 19.4276 29.4054 19.3705 29.3483C19.3134 29.2911 19.2812 29.2136 19.2812 29.1328V26.2891C19.2812 26.2083 19.3134 26.1308 19.3705 26.0736C19.4276 26.0165 19.5051 25.9844 19.5859 25.9844H21.0078C21.0886 25.9844 21.1661 26.0165 21.2233 26.0736C21.2804 26.1308 21.3125 26.2083 21.3125 26.2891V29.1328ZM32.2812 35.125C32.2812 35.4482 32.1528 35.7582 31.9243 35.9868C31.6957 36.2153 31.3857 36.3437 31.0625 36.3437H22.9375C22.6143 36.3437 22.3043 36.2153 22.0757 35.9868C21.8472 35.7582 21.7187 35.4482 21.7187 35.125V33.1953C21.7187 33.1414 21.7401 33.0898 21.7782 33.0517C21.8163 33.0136 21.868 32.9922 21.9219 32.9922H23.5469C23.6007 32.9922 23.6524 33.0136 23.6905 33.0517C23.7286 33.0898 23.75 33.1414 23.75 33.1953V34.1094C23.75 34.1632 23.7714 34.2149 23.8095 34.253C23.8476 34.2911 23.8993 34.3125 23.9531 34.3125H30.0469C30.1007 34.3125 30.1524 34.2911 30.1905 34.253C30.2286 34.2149 30.25 34.1632 30.25 34.1094V33.1953C30.25 33.1414 30.2714 33.0898 30.3095 33.0517C30.3476 33.0136 30.3993 32.9922 30.4531 32.9922H32.0781C32.132 32.9922 32.1837 33.0136 32.2218 33.0517C32.2598 33.0898 32.2812 33.1414 32.2812 33.1953V35.125ZM34.7187 29.1328C34.7187 29.2136 34.6866 29.2911 34.6295 29.3483C34.5724 29.4054 34.4949 29.4375 34.4141 29.4375H32.9922C32.9114 29.4375 32.8339 29.4054 32.7767 29.3483C32.7196 29.2911 32.6875 29.2136 32.6875 29.1328V26.2891C32.6875 26.2083 32.7196 26.1308 32.7767 26.0736C32.8339 26.0165 32.9114 25.9844 32.9922 25.9844H34.4141C34.4949 25.9844 34.5724 26.0165 34.6295 26.0736C34.6866 26.1308 34.7187 26.2083 34.7187 26.2891V29.1328ZM37.9687 28.0156H35.3281V27.4062H37.9687V28.0156Z" fill="white"/>
</svg>
