<svg width="105" height="90" viewBox="0 0 105 90" fill="none" xmlns="http://www.w3.org/2000/svg">
<g clip-path="url(#clip0_105_277)">
<path fill-rule="evenodd" clip-rule="evenodd" d="M35.6936 25.7722L35.7494 25.7302C35.754 25.726 35.7594 25.7202 35.7636 25.7155L36.1641 25.2157C36.2119 25.1625 36.2064 25.1671 36.2513 25.1063L36.6278 24.6803C36.7075 24.6006 36.7373 24.544 36.822 24.4606C37.0584 24.2274 37.2727 23.9675 37.5281 23.7524L37.9004 23.3938C37.9549 23.3465 37.9059 23.3905 37.9511 23.3435C37.9964 23.2966 38.0174 23.2811 38.0673 23.2446L39.0912 22.4395C39.1919 22.3699 39.1151 22.4047 39.1948 22.346C39.1986 22.3435 39.2049 22.3397 39.2086 22.3372L39.2543 22.3108C39.2875 22.2919 39.2782 22.2969 39.316 22.2751C39.3449 22.258 39.36 22.25 39.378 22.2378C39.3822 22.2345 39.3881 22.2303 39.3923 22.2269L40.1793 21.7212C40.225 21.6931 40.2556 21.6915 40.3144 21.6642C40.3802 21.6336 40.4037 21.6089 40.451 21.5791C40.4942 21.5518 40.5311 21.5418 40.5852 21.525C40.724 21.4814 40.7508 21.4177 40.8519 21.3757L40.9689 21.3476C41.0527 21.3225 40.9752 21.351 41.0268 21.3254L41.1873 21.2499C41.1941 21.2483 41.2008 21.247 41.2079 21.2449L41.5018 21.1212C41.5618 21.0973 41.5341 21.107 41.5886 21.0868C41.8041 21.0059 42.0222 20.9761 42.2406 20.9099C42.5975 20.8021 43.2809 20.7099 43.6935 20.7459C43.7694 20.7526 43.7719 20.7648 43.8671 20.769L44.6617 20.9673C44.8412 21.0147 44.5527 20.9007 44.7271 20.9929C44.7452 21.0026 44.7707 21.0206 44.7871 21.0302L44.9921 21.1422C45.0043 21.1493 45.0294 21.1644 45.0479 21.1799L45.6031 21.8336C45.6928 22.0257 45.7494 22.4647 45.7146 22.7054C45.6982 22.8173 45.6664 22.9284 45.6441 23.0492C45.6186 23.1917 45.5745 23.2928 45.5104 23.4173L44.9037 24.445C44.8701 24.4887 44.899 24.453 44.8621 24.4983L44.5393 24.8811C44.4919 24.9298 44.5422 24.8765 44.4932 24.9356L43.4394 25.9017C43.3946 25.9374 43.3619 25.9634 43.3178 25.9994L42.7992 26.3806C42.7665 26.3999 42.7727 26.3961 42.7392 26.42C42.6889 26.4565 42.7245 26.4284 42.6834 26.4623C42.678 26.4669 42.6616 26.4812 42.6562 26.4862L42.5027 26.5944C42.3455 26.677 42.2335 26.7869 42.0796 26.8804L41.7756 27.0699C41.7719 27.0728 41.7664 27.0779 41.7626 27.0812C41.7274 27.1102 41.6821 27.1299 41.6259 27.1542C41.6188 27.1571 41.5962 27.1663 41.5895 27.1697L41.5425 27.202C41.5379 27.2053 41.5333 27.2104 41.5291 27.2137L41.3555 27.3102C41.3626 27.3181 41.3739 27.3165 41.3802 27.3307C41.4226 27.4259 41.9782 27.2548 42.1891 27.238C42.3467 27.2255 42.3857 27.1819 42.5966 27.1533L45.432 26.7726C45.8387 26.7558 46.1838 26.6997 46.6027 26.6997H48.0916C48.3885 26.698 48.7265 26.7303 49.0196 26.7659C49.1089 26.7768 49.1504 26.7655 49.2368 26.7881C49.4414 26.8426 49.6699 26.825 49.8775 26.88C50.2121 26.9689 50.563 26.9873 50.8905 27.1081L51.613 27.3777C51.6847 27.4313 51.74 27.4225 51.8092 27.4573C51.9346 27.5202 52.0541 27.6179 52.1648 27.7068L52.2717 27.7919C52.2751 27.7953 52.2801 27.8003 52.2839 27.8037L52.5803 28.2502C52.618 28.3895 52.6268 28.5442 52.5736 28.6775C52.5514 28.7325 52.5619 28.7174 52.538 28.7614L52.0038 29.2645L51.7094 29.4054C51.7023 29.4088 51.6817 29.418 51.675 29.4214C51.657 29.4302 51.6335 29.444 51.6272 29.4474L51.1744 29.6252C51.1173 29.6453 51.1295 29.639 51.0821 29.6507L50.7823 29.7702C50.6557 29.8134 50.5538 29.8013 50.4117 29.8361L50.1739 29.8939C50.0024 29.9468 49.7835 29.9761 49.5751 29.9933C49.4938 30 49.4204 29.9904 49.3361 30.0009C49.2929 30.0063 49.1621 30.0281 49.1244 30.0336C49.046 30.0449 48.9755 30.0386 48.8963 30.0495C48.8338 30.0579 48.773 30.0856 48.698 30.0914C48.5181 30.1053 48.3914 30.112 48.212 30.1162L47.2614 30.1409C46.6216 30.1409 45.91 30.1686 45.2861 30.1187C45.0496 30.0998 44.8642 30.0491 44.6273 30.0428C44.2554 30.0323 43.8525 29.992 43.4885 29.9417C43.3619 29.9241 43.1958 29.883 43.065 29.8742L41.2746 29.6671C41.2444 29.6629 41.1244 29.652 41.0687 29.6348C40.8146 29.5572 40.4322 29.6155 40.1554 29.5463C40.0452 29.5187 39.8309 29.5296 39.7118 29.501C39.6187 29.4792 39.5936 29.4893 39.4812 29.4801L38.0363 29.4088C37.8736 29.4092 37.7109 29.4088 37.5482 29.4088L37.1813 29.4038C36.9976 29.426 37.1054 29.3954 37.0358 29.4817L37.1113 29.535C37.1171 29.5379 37.1234 29.5409 37.1293 29.5438L37.2928 29.5996C37.2974 29.6017 37.3037 29.605 37.3079 29.6071L37.4455 29.6922C37.4966 29.7157 37.4819 29.7061 37.5289 29.7296L37.5905 29.7631C37.5947 29.7656 37.6006 29.7698 37.6048 29.7723L38.1084 30.0289C38.1143 30.0315 38.121 30.034 38.1268 30.0365L38.8308 30.3807C38.8946 30.4164 38.8304 30.3765 38.8988 30.4285C39.1483 30.6181 39.4619 30.6852 39.7286 30.8462L40.8708 31.4135C40.9039 31.4336 40.9052 31.4399 40.9412 31.4626C41.0087 31.5049 41.0494 31.502 41.1161 31.5363C41.1647 31.5611 41.1873 31.5955 41.2666 31.6303L41.4989 31.7343C41.5035 31.7372 41.5085 31.7418 41.5136 31.7447L41.8155 31.8856C41.8205 31.8881 41.8268 31.8911 41.8314 31.8936C41.836 31.8961 41.8423 31.8995 41.8473 31.902L42.8818 32.4039C42.9266 32.4286 42.8675 32.4018 42.9354 32.4291L43.2222 32.5532C43.2277 32.5557 43.234 32.5586 43.239 32.5611L43.5531 32.7087C43.6793 32.7813 43.8156 32.806 43.9514 32.8735L44.5741 33.1591C44.6026 33.1679 44.6089 33.1654 44.6336 33.1729L44.8747 33.2945C44.912 33.31 44.873 33.2945 44.925 33.3167L45.5163 33.5327C45.6454 33.5821 45.7293 33.6425 45.863 33.6769L46.7381 34.0421C46.8132 34.0698 46.8555 34.0622 46.9402 34.0874C46.9457 34.0891 46.952 34.0916 46.9574 34.0933C47.058 34.126 47.0987 34.1646 47.2077 34.1885L47.4212 34.2627C47.4262 34.2648 47.4325 34.2677 47.4375 34.2698L48.4107 34.5922C48.5889 34.653 48.8183 34.7 48.9999 34.7818L49.4355 34.913C49.4716 34.9218 49.508 34.9294 49.5324 34.9365C49.5399 34.939 49.5609 34.9461 49.5684 34.9482C49.5743 34.9503 49.5806 34.9524 49.5869 34.9545C49.5936 34.9562 49.5999 34.9583 49.6066 34.9604C49.7718 35.009 49.9148 35.0774 50.0871 35.1164L51.0976 35.3524C51.1173 35.3554 51.1811 35.3675 51.1945 35.3713C51.2004 35.373 51.2062 35.3759 51.2117 35.3776L51.6989 35.4829C51.9153 35.5218 52.0813 35.5843 52.3111 35.6074C52.4583 35.6221 52.5543 35.6892 52.7027 35.7034C52.748 35.7076 52.7644 35.7022 52.8071 35.7131L53.3116 35.8246C53.3896 35.8338 53.4789 35.82 53.5544 35.8275C53.6579 35.8384 53.6198 35.8627 53.7514 35.8749L54.1938 35.9391C54.2777 35.9558 54.3418 35.9441 54.4248 35.9554C54.4672 35.9609 54.5666 35.9864 54.6181 36.0011C54.7833 36.0468 54.8592 36.0447 55.0727 36.046C55.2379 36.0468 55.3398 36.103 55.4844 36.1173L56.1675 36.1693C56.2455 36.173 56.3314 36.1634 56.4086 36.1701C56.4933 36.1776 56.5193 36.1932 56.6329 36.194L57.3415 36.2175C57.5281 36.2166 57.6413 36.2435 57.8292 36.2422C58.3982 36.2393 58.9701 36.2594 59.5391 36.2431C59.6448 36.2401 59.6804 36.22 59.7819 36.2171C60.2586 36.202 60.7207 36.2015 61.1794 36.1466L61.5891 36.1106C61.6566 36.0875 61.6142 36.1097 61.6608 36.0716C61.6285 35.9982 61.652 36.0456 61.6084 35.999C61.5375 35.9235 61.4444 35.9122 61.3731 35.846C61.3694 35.8426 61.3643 35.8372 61.3606 35.8338L60.5102 35.0531L60.1697 34.5658C60.1668 34.5612 60.163 34.5553 60.1605 34.5507L59.8775 34.0128C59.8624 33.9654 59.8653 33.9666 59.8477 33.9365C59.7739 33.8111 59.8121 33.9402 59.7697 33.8023L59.4716 32.6634C59.4569 32.5959 59.4582 32.5255 59.4452 32.4685C59.4167 32.3456 59.4309 32.1993 59.4016 32.0944C59.3504 31.9116 59.3663 31.9183 59.3668 31.7028C59.3668 31.4374 59.3424 31.1531 59.3802 30.8936C59.4011 30.7476 59.4158 30.6587 59.415 30.5057L59.6674 29.013C59.6695 29.0046 59.6842 28.9375 59.6901 28.9107L59.8339 28.4255C59.8364 28.4196 59.8389 28.4134 59.841 28.4071C59.8431 28.4004 59.8448 28.3941 59.8469 28.3874C59.8704 28.3064 59.8465 28.3907 59.8569 28.3463C59.919 28.0867 59.963 27.8695 60.0569 27.6234L60.184 27.3127C60.1865 27.3072 60.1894 27.3009 60.1915 27.2951L60.3043 27.0167C60.3069 27.0099 60.3085 27.0032 60.3106 26.9965L60.7316 25.9843C60.7551 25.9453 60.7358 25.9818 60.7685 25.9231L61.4826 24.5641C61.5052 24.5318 61.4947 24.5486 61.5195 24.5C61.5291 24.4807 61.535 24.4669 61.5505 24.4325L61.7505 24.0987C61.774 24.058 61.7665 24.0714 61.7857 24.035C61.7883 24.0299 61.7912 24.0236 61.7937 24.0186L62.5707 22.8471C62.6084 22.7963 62.6197 22.7791 62.6558 22.7402L62.7506 22.6106C62.7531 22.6064 62.7569 22.6001 62.7598 22.5963L63.2168 21.982C63.3514 21.8403 63.4638 21.6533 63.5959 21.5066C63.5992 21.5028 63.6043 21.4977 63.6076 21.494C63.6315 21.4688 63.6441 21.46 63.6684 21.434L64.2446 20.7627C64.4576 20.4931 65.014 19.943 65.2668 19.6893L66.1201 18.8863C66.1708 18.8444 66.1922 18.836 66.2438 18.7886C66.2438 18.7886 66.2916 18.7404 66.292 18.7396C66.3532 18.6519 66.3105 18.7442 66.3465 18.6217C66.2396 18.6234 66.1365 18.6419 66.0597 18.6645C65.9247 18.7052 64.8102 18.8184 64.6878 18.8171L64.3884 18.8482C64.2848 18.8809 64.2102 18.8603 64.0991 18.8658C63.9951 18.8708 63.9494 18.8909 63.8341 18.8909L62.93 18.9211C62.517 18.976 59.7919 18.9391 59.2447 18.9391L57.755 18.9157C57.6363 18.914 57.5864 18.8905 57.464 18.8892C57.2681 18.8867 57.022 18.9052 56.8333 18.8888L56.2429 18.8658C56.0194 18.8658 55.4484 18.8905 55.237 18.8339C55.2316 18.8326 55.2257 18.8297 55.2207 18.828C55.2156 18.8259 55.2098 18.8226 55.2043 18.8205C55.0785 18.7765 54.9204 18.7978 54.7787 18.7932C54.6613 18.7899 54.6244 18.7677 54.486 18.7672C54.2764 18.7672 52.964 18.7475 52.7174 18.7127C52.5434 18.688 52.3073 18.6951 52.0939 18.6951C51.6071 18.6951 51.431 18.6477 50.9211 18.6469L49.7529 18.5727C49.4166 18.5567 48.2656 18.5278 48.0074 18.4922C47.8623 18.472 47.5872 18.4339 47.4346 18.4263C47.3402 18.4217 47.2337 18.4276 47.1386 18.4272L45.6777 18.3546C45.5771 18.3467 45.4597 18.3555 45.3569 18.3542C45.1162 18.3513 44.7779 18.3039 44.4793 18.3043C43.9179 18.3052 43.0122 18.2364 42.4314 18.2066L41.5261 18.1823C41.0909 18.184 40.7215 18.1655 40.3328 18.1349C40.1479 18.1202 39.9097 18.1345 39.7189 18.1345C39.5479 18.1341 39.2975 18.0494 39.1437 18.1391C38.9961 18.2246 38.8178 18.5052 38.7109 18.6385C38.708 18.6423 38.7034 18.6481 38.7 18.6515C38.6971 18.6553 38.6921 18.6603 38.6887 18.6641C38.6858 18.6679 38.6803 18.6725 38.677 18.6762C38.6719 18.6817 38.6447 18.7098 38.6401 18.7152C38.6006 18.7618 38.599 18.7735 38.5692 18.8171L38.5063 18.8968C38.5017 18.9027 38.4765 18.9329 38.4723 18.9383L38.1784 19.353C38.1755 19.3572 38.1713 19.3631 38.1683 19.3677L38.0086 19.6222C38.0052 19.6268 37.9826 19.6578 37.978 19.6633C37.8841 19.7799 37.8404 19.9036 37.7461 20.0189L37.2455 20.909C37.2425 20.9132 37.2379 20.9187 37.235 20.9229L37.2035 20.9677C37.2006 20.9728 37.1897 20.9916 37.1771 21.0168L37.0513 21.2847C37.0417 21.3099 37.0245 21.359 37.0111 21.385L36.9838 21.4319C36.9725 21.452 36.9503 21.4952 36.949 21.4973C36.9431 21.5091 36.9339 21.5292 36.9259 21.5476C36.918 21.5661 36.9096 21.59 36.905 21.6013C36.889 21.6424 36.876 21.6718 36.8534 21.717C36.7134 21.995 36.7658 21.829 36.6559 22.1338C36.6555 22.1343 36.6383 22.1733 36.6341 22.1825L36.5133 22.4529C36.4312 22.6378 36.3402 22.7884 36.2903 22.9917L35.9641 23.9096L35.7309 24.8996C35.7234 24.9503 35.7121 25.1289 35.7007 25.1855C35.6793 25.2916 35.6538 25.3474 35.6454 25.4526C35.6429 25.4837 35.6399 25.5721 35.6408 25.6019C35.6408 25.6053 35.6471 25.6761 35.6471 25.6766C35.6663 25.7524 35.6559 25.7269 35.6936 25.7722Z" fill="white" fill-opacity="0.7"/>
<path fill-rule="evenodd" clip-rule="evenodd" d="M29.8613 35.0218L30.076 35.2C30.3628 35.4516 30.5909 35.759 30.8819 36.0038C31.0995 36.1866 31.3 36.4319 31.5163 36.6139C31.6769 36.7489 31.7822 36.8571 31.9298 37.0047L33.1864 38.2127C33.3537 38.3796 33.5076 38.5608 33.6883 38.713C33.9085 38.8979 34.0884 39.1306 34.3127 39.3096C34.5915 39.5331 35.3664 40.3298 35.6754 40.6292L36.3933 41.3252C36.475 41.4116 36.4423 41.3978 36.5727 41.4158C36.5555 41.2825 36.5061 41.2401 36.4201 41.1533C36.3509 41.0829 36.3035 41.0238 36.2415 40.9449C36.1639 40.8472 36.0532 40.7357 35.9849 40.6187C35.8176 40.3302 35.563 40.0078 35.3886 39.7021L34.6578 38.1654C34.6209 38.0874 34.5907 38.058 34.5714 37.9679L34.2468 37.0445C34.2452 37.0378 34.2435 37.0315 34.2418 37.0244L34.1458 36.7527C34.1315 36.7125 34.1391 36.7351 34.1282 36.6785L34.0561 36.354C34.0372 36.2994 34.0229 36.2835 34.0007 36.2156C33.9806 36.1539 33.9735 36.1099 33.9634 36.0609C33.906 35.7854 33.815 35.5476 33.789 35.2642C33.7659 35.0109 33.6846 34.8533 33.6665 34.6059C33.6611 34.5308 33.6569 34.5061 33.641 34.4306C33.6208 34.3329 33.6313 34.3887 33.6196 34.3505C33.5785 34.2155 33.5923 34.0834 33.5609 33.9245C33.5365 33.7983 33.5097 33.7752 33.4866 33.6109L33.3512 32.2393L33.7722 32.7454C33.807 32.7848 33.8343 32.8041 33.8699 32.8423L34.2263 33.2406C34.2867 33.319 34.3483 33.3706 34.4192 33.4415L35.602 34.5765C35.7987 34.7765 36.0272 34.9547 36.2474 35.1296L36.4365 35.2826C36.7539 35.5367 37.182 35.8889 37.5191 36.1061L38.2332 36.5883C38.2378 36.5917 38.2437 36.5955 38.2487 36.5984L38.6797 36.8726C38.7104 36.8944 38.6869 36.8835 38.7359 36.9146L38.9196 37.0227C38.977 37.0651 38.9686 37.0643 39.0353 37.1045L39.1322 37.1569C39.1376 37.1594 39.1439 37.162 39.1494 37.1645L39.4144 37.3116C39.4186 37.3146 39.4249 37.3184 39.429 37.3209L39.6282 37.442C39.7611 37.5066 40.0362 37.6978 40.1603 37.7066L38.6659 37.2655C38.621 37.2412 38.65 37.2471 38.5854 37.2219L37.8416 36.9645C37.8407 36.964 37.7598 36.9305 37.756 36.9288L37.0394 36.6194C36.9329 36.5707 36.9941 36.5745 36.8864 36.5288L36.1413 36.1279C36.1178 36.117 36.062 36.0944 36.0562 36.0915L35.602 35.7929C35.4934 35.7191 35.4058 35.6562 35.3035 35.5799L34.8247 35.1866C34.729 35.1103 34.8259 35.1581 34.6938 35.1195L34.9349 35.9418C34.9374 35.9476 34.94 35.9539 34.9425 35.9594L35.2146 36.7095C35.2167 36.7158 35.2184 36.7225 35.2205 36.7288C35.223 36.7351 35.2251 36.7414 35.2276 36.7473C35.2523 36.8123 35.2301 36.7485 35.2502 36.798C35.3102 36.9468 35.3224 37.0546 35.4041 37.1859L35.688 37.8966C35.7719 38.136 35.9073 38.3457 36.0058 38.5817C36.1509 38.9302 36.3434 39.2077 36.4834 39.5197L36.701 39.9164C36.7983 40.0581 36.961 40.3822 37.0528 40.4938C37.1078 40.5604 37.0499 40.4803 37.0956 40.5457L37.1224 40.5906C37.125 40.5952 37.1283 40.6019 37.1304 40.6065L37.3543 40.9479C37.3732 40.9743 37.3933 40.9982 37.4055 41.0166L37.6147 41.3445C37.6189 41.3504 37.6319 41.3684 37.6365 41.3743C37.6399 41.3785 37.6449 41.3839 37.6483 41.3881L38.0445 41.9186C38.1078 42.0049 38.1716 42.0796 38.2399 42.163L38.8529 42.8662C38.9242 42.9605 38.9884 43.0138 39.0684 43.0939L40.0936 44.07C40.3268 44.2797 40.5868 44.4558 40.827 44.6562C40.8824 44.7027 40.8949 44.7061 40.9562 44.7493L42.7042 45.8584C42.734 45.8764 42.7256 45.8718 42.768 45.8944L43.7982 46.4047C43.9601 46.4626 44.1026 46.5548 44.2716 46.6144L44.5119 46.7125C44.5819 46.7469 44.5949 46.746 44.6758 46.7729C44.8624 46.8345 45.0503 46.8882 45.2247 46.9771C45.4004 47.0664 45.5647 47.0647 45.722 47.1377L45.9761 47.2282C46.0386 47.2513 45.9404 47.2245 46.0482 47.2555L47.1774 47.5653C47.2378 47.5846 47.3045 47.5985 47.3598 47.6081C47.4609 47.6257 47.4508 47.6278 47.5363 47.648L49.5754 48.0312C49.7947 48.058 49.7368 48.0786 50.0199 48.0786C49.936 47.9742 49.8018 47.9645 49.6723 47.926C49.4127 47.8484 49.2651 47.827 49.0026 47.7205L47.6043 47.1188C47.5468 47.0878 47.5141 47.0567 47.4537 47.0257L47.2504 46.9129C47.2437 46.9091 47.2239 46.8995 47.2172 46.8957C46.9518 46.7506 46.4109 46.3066 46.169 46.0948C46.0931 46.0286 46.0243 45.9502 45.9505 45.8764C45.6843 45.6101 45.4637 45.3246 45.2427 45.0252C45.1153 44.8524 45.0322 44.6566 44.9241 44.4688C44.8754 44.3845 44.883 44.3669 44.8523 44.2981L44.5911 43.4679L44.5286 42.8557C44.5286 42.7001 44.5341 42.5857 44.5597 42.4553C44.5962 42.2674 44.6339 42.0603 44.7119 41.8833C44.8465 41.5777 45.1069 41.2179 45.3547 41.025L45.696 40.7839C45.7237 40.7692 45.7207 40.7713 45.743 40.7592C45.7757 40.7411 45.7811 40.7391 45.8218 40.7131L46.8843 40.3478L47.2856 40.2912C47.4965 40.2858 47.9623 40.2732 48.1519 40.3C48.4072 40.3361 48.6764 40.3529 48.9364 40.4153C48.9901 40.4279 49.0483 40.4434 49.12 40.4543L49.3867 40.5017C49.4245 40.5109 49.4567 40.5156 49.4895 40.5231L49.8236 40.6275C49.9159 40.6481 49.9163 40.6422 50.0014 40.6669L50.6098 40.9064C50.6149 40.9089 50.6207 40.9126 50.6262 40.9152C50.6312 40.9177 50.6375 40.921 50.643 40.9235L50.8711 41.012C50.952 41.0527 50.8853 41.0171 50.9478 41.056L51.4325 41.3013C51.5554 41.3852 51.703 41.433 51.8212 41.5219C51.8753 41.563 51.8317 41.5374 51.8787 41.5655L51.9634 41.6049C52.2112 41.7286 52.4087 41.9098 52.6397 42.049C52.7043 42.088 52.708 42.0972 52.7697 42.1366L54.8545 43.5182C54.8591 43.5207 54.865 43.5245 54.8696 43.5274C54.8742 43.5299 54.88 43.5341 54.8842 43.5367C54.8889 43.5396 54.8947 43.5438 54.8989 43.5463C54.9035 43.5492 54.9094 43.5534 54.914 43.5564L55.0532 43.6373C55.1002 43.6675 55.143 43.6943 55.1903 43.7203L55.5077 43.8927C55.5128 43.8956 55.5191 43.8981 55.5245 43.901L56.3124 44.2587C56.3178 44.2616 56.3237 44.2646 56.3292 44.2671C56.3749 44.2885 56.3682 44.2843 56.4193 44.3023L56.5258 44.3413C56.5694 44.3572 56.5057 44.3375 56.5824 44.3606C56.7464 44.4092 56.894 44.4889 57.0676 44.535L57.481 44.6596C58.1389 44.8336 58.814 45.0021 59.5138 45.0042C59.9503 45.0055 60.4396 44.9229 60.8413 44.7556L60.8765 44.7396C61.051 44.6579 61.1554 44.6327 61.3319 44.5354L61.6107 44.3988C61.7973 44.3019 62.02 44.1908 62.1714 44.0499L62.2795 43.9698C62.3739 43.9203 62.3789 43.8885 62.459 43.8293C62.4628 43.8268 62.4691 43.823 62.4728 43.8201L62.5362 43.7853C62.7278 43.6721 63.0062 43.4343 63.168 43.2897L63.4091 43.0922C63.5014 43.0171 63.5689 42.9496 63.6561 42.8767L64.6188 42.0565C64.6641 42.0184 64.6864 41.9869 64.7291 41.9471L65.5841 41.2171C65.6147 41.1911 65.6101 41.1982 65.6399 41.1751L66.7422 40.2757C66.7745 40.2476 66.7841 40.2443 66.8127 40.2271C66.9686 40.1315 67.1167 39.9868 67.2676 39.8757L67.4022 39.7881C67.406 39.7847 67.4106 39.7793 67.4144 39.7759L68.0265 39.3423C68.0307 39.3394 68.0366 39.3352 68.0412 39.3323L68.4287 39.0618C68.4328 39.0589 68.4391 39.0555 68.4433 39.053C68.4479 39.0501 68.4547 39.0472 68.4593 39.0446L70.2715 37.9037C70.2778 37.8999 70.2958 37.8882 70.3021 37.8844C70.3067 37.8819 70.3122 37.8777 70.3168 37.8752L70.4174 37.8303C70.469 37.8027 70.4187 37.8307 70.477 37.788L71.2602 37.3523C71.2644 37.3494 71.2703 37.3456 71.2745 37.3431L71.3873 37.2873C71.3923 37.2848 71.3986 37.2815 71.4036 37.2789L71.5152 37.2211C71.5202 37.2186 71.5269 37.216 71.5319 37.2135L73.6054 36.2131C73.6104 36.2105 73.6167 36.2072 73.6222 36.2047L73.9828 36.0525C73.9878 36.0504 73.9941 36.0479 73.9995 36.0458L74.1614 35.9879C74.3417 35.9128 74.434 35.8986 74.4742 35.7787C74.3027 35.7875 74.1803 35.8571 74.0293 35.9061C74.023 35.9082 74.0163 35.9103 74.0105 35.9124L73.3614 36.117C73.3215 36.1317 73.4163 36.094 73.3249 36.1321L71.4254 36.6961C71.3487 36.7213 71.4259 36.6974 71.3898 36.7095C71.3273 36.7309 71.259 36.7397 71.2141 36.7494L70.9583 36.8131C70.838 36.8487 70.8426 36.8726 70.7067 36.8999L70.0941 37.0521C69.9356 37.1242 69.7851 37.1129 69.6186 37.1569C69.5444 37.1762 69.5272 37.2009 69.4635 37.2228L69.2543 37.2567C69.2471 37.2588 69.2413 37.2613 69.2346 37.2634L68.1754 37.4899C68.0236 37.5121 67.9943 37.572 67.8337 37.5838L67.4429 37.6685C67.2739 37.7213 67.0588 37.7121 66.8856 37.7699C66.7695 37.8089 66.5594 37.8098 66.4265 37.8467L65.0004 38.1025C64.8209 38.1452 64.5945 38.1503 64.3941 38.1742C64.1161 38.2073 63.8955 38.2601 63.6125 38.2672C63.4096 38.2719 63.2335 38.349 63.049 38.3645C62.9542 38.3725 62.888 38.3737 62.8196 38.3834L61.5881 38.4698C61.282 38.51 60.4979 38.5142 60.3478 38.5515C59.9671 38.6471 57.8533 38.6161 57.2919 38.6107C57.1288 38.609 57.0651 38.5641 56.904 38.5599C56.587 38.552 56.3304 38.5348 56.0231 38.5364C55.7124 38.5385 55.5279 38.4614 55.2184 38.4631C54.7283 38.4656 53.7186 38.3398 53.2284 38.2408C52.976 38.1901 52.6938 38.1754 52.4321 38.1326L51.3109 37.9159C51.1004 37.8521 50.8597 37.8593 50.6417 37.7825C50.5092 37.736 50.4413 37.7519 50.2329 37.6785L47.7804 37.0236C47.6651 37.0047 47.5925 36.9406 47.4625 36.9058L47.2936 36.8542C47.2214 36.8378 47.1623 36.829 47.1065 36.8034L46.6147 36.6307C46.3547 36.5611 46.1522 36.4269 45.8947 36.3519L45.5736 36.2361C45.5677 36.2336 45.561 36.2315 45.5551 36.2294C45.5492 36.2273 45.5425 36.2252 45.5367 36.2231L44.8037 35.9107C44.7287 35.8726 44.8104 35.9091 44.7169 35.8717C44.6687 35.8529 44.602 35.826 44.5492 35.7992L44.4846 35.7657C44.4792 35.7631 44.4729 35.7602 44.4674 35.7577C44.462 35.7552 44.4557 35.7527 44.4498 35.7501L44.2372 35.6688C44.0519 35.6013 43.6171 35.4176 43.4863 35.3283L41.7088 34.4155C41.6535 34.387 41.6266 34.3656 41.5755 34.3337C41.4857 34.2784 41.3964 34.2327 41.2979 34.1719C41.2685 34.1539 41.2744 34.1572 41.2321 34.1375L40.5213 33.7274C40.5167 33.7249 40.5109 33.7211 40.5062 33.7186L40.1796 33.509C40.1368 33.4796 40.102 33.4511 40.0454 33.4213L39.2986 32.9509C39.2928 32.9467 39.2768 32.9341 39.271 32.9299L38.6957 32.5282C38.6525 32.4976 38.6101 32.4783 38.5565 32.4464L36.9078 31.2183C36.9036 31.2149 36.8977 31.2107 36.8935 31.2074L36.3836 30.8141C36.3799 30.8111 36.374 30.807 36.3702 30.804L35.3219 29.9029C35.2645 29.8476 35.2557 29.8497 35.1991 29.8027L34.9668 29.5968C34.9207 29.5562 34.8926 29.5188 34.8465 29.4752C34.7903 29.4232 34.7756 29.4232 34.7228 29.3771L32.2728 26.9498C32.2027 26.8651 32.2027 26.863 32.0824 26.8462C32.0824 27.2856 32.0811 27.7255 32.0828 28.1649L31.9872 29.3536L31.809 30.2891C31.765 30.378 31.7843 30.2958 31.765 30.4287C31.7499 30.5348 31.7327 30.5898 31.7109 30.6875L31.3876 31.7974C31.3876 31.7974 31.3679 31.8347 31.3629 31.8452L31.2538 32.155C31.2304 32.2167 31.2262 32.2188 31.2006 32.2682C31.1981 32.2733 31.1947 32.2796 31.1922 32.2846L31.0639 32.6217C31.0341 32.6813 31.035 32.6527 31.0065 32.7081L30.871 33.0632C30.7779 33.2733 30.6609 33.4385 30.5762 33.6486L30.0173 34.6704C29.9335 34.7946 29.8638 34.8424 29.8613 35.0218Z" fill="white"/>
<path fill-rule="evenodd" clip-rule="evenodd" d="M53.8276 7.66348C52.5236 7.66348 51.1432 7.74189 49.8522 7.64042C49.7767 7.63454 49.6832 7.63916 49.6056 7.63916C48.6756 7.64041 47.7359 7.58968 46.7992 7.59052C46.6114 7.59052 46.4885 7.56955 46.3371 7.56494C46.1845 7.56075 46.0256 7.56704 45.8717 7.56494C45.6113 7.56201 45.6587 7.56871 45.5237 7.70625L44.8524 8.45135C44.8478 8.4568 44.8343 8.47399 44.8302 8.47987C44.8075 8.51299 44.8243 8.49077 44.8021 8.52934L43.8993 9.82374C43.8959 9.83087 43.88 9.86819 43.8767 9.8749C43.8209 9.98601 43.7471 10.051 43.6951 10.1558L43.6603 10.2472C43.6272 10.329 43.4485 10.5676 43.3965 10.6892L43.3496 10.7827C43.3466 10.7869 43.3412 10.7915 43.3383 10.7957C43.306 10.8401 43.3336 10.7886 43.3064 10.8406C43.3035 10.8464 43.3005 10.8527 43.298 10.859L43.0703 11.3127C42.9982 11.4603 42.8963 11.6574 42.8942 11.7878C43.0238 11.7538 42.9982 11.7739 43.085 11.6846C43.3659 11.3957 43.8632 11.0079 44.1865 10.7668L44.6457 10.4414C44.7182 10.3802 44.7811 10.3688 44.8616 10.3198L45.1954 10.0913C45.1996 10.0887 45.2054 10.085 45.21 10.0825C45.2142 10.0799 45.2205 10.0762 45.2251 10.0741C45.2297 10.0715 45.236 10.0682 45.2406 10.0661C45.2457 10.0636 45.252 10.0606 45.257 10.0581L45.8692 9.74281C45.8759 9.73946 45.8952 9.72856 45.9019 9.72478L47.1887 9.24216C47.3305 9.21994 47.4894 9.20065 47.6777 9.20065C47.8366 9.20107 48.0592 9.17298 48.2102 9.23881L48.4005 9.3189C48.554 9.38053 48.6836 9.52561 48.767 9.66692C48.8278 9.76923 48.8303 9.9554 48.8257 10.1286C48.8182 10.3965 48.6551 10.5936 48.5507 10.8146C48.5423 10.8326 48.5343 10.8531 48.5284 10.8636C48.5259 10.8678 48.5226 10.8741 48.5196 10.8783L48.2542 11.22C48.2253 11.2519 48.2148 11.2641 48.1846 11.2942L47.3561 12.0465L46.9045 12.3538C46.8998 12.3572 46.8948 12.3622 46.8906 12.3656L46.0315 12.8662C45.9853 12.8876 46.0155 12.8729 45.9816 12.891L44.8826 13.3992C44.7643 13.4713 44.8406 13.3996 44.7979 13.5208L46.1413 13.3623C46.2633 13.322 46.1979 13.3417 46.3371 13.3212C46.4701 13.3019 47.0382 13.1979 47.172 13.1476C47.3929 13.0641 48.1364 12.9174 48.437 12.8016C48.5746 12.7488 48.6907 12.7538 48.8257 12.7019C48.8999 12.6733 48.8425 12.6905 48.9092 12.6637L49.7796 12.4117C50.0392 12.3169 50.2975 12.2863 50.5512 12.1819C50.7843 12.0855 51.0153 12.0666 51.2489 12.005L51.6212 11.8884C52.0628 11.7551 52.0498 11.818 52.2372 11.7731C52.5055 11.7085 52.4141 11.7395 52.6565 11.7085C52.7194 11.7006 52.8062 11.6725 52.88 11.667C53.1827 11.6444 53.5366 11.6536 53.8268 11.6653L54.2683 11.7144C54.4922 11.7123 54.5253 11.7609 54.6713 11.8096C54.748 11.8352 54.808 11.8293 54.8809 11.8653L55.1254 11.966C55.1308 11.9681 55.1371 11.9702 55.1426 11.9723L55.5325 12.2104C55.6604 12.314 55.7786 12.4314 55.8646 12.5761L55.969 12.7648C55.9715 12.7689 55.9761 12.7744 55.9782 12.779C56.0642 12.9383 56.0327 13.2184 55.977 13.3354L55.8902 13.5409C55.8877 13.5455 55.8847 13.5522 55.8822 13.5564L55.8436 13.6126C55.8407 13.6168 55.8361 13.6222 55.8332 13.6264L55.8114 13.6541C55.7698 13.7086 55.7485 13.7354 55.7011 13.7828L55.434 14.026C55.3711 14.0776 55.3505 14.0751 55.2885 14.125L54.9522 14.3212C54.9472 14.3237 54.9413 14.3275 54.9367 14.33C54.9316 14.333 54.9258 14.3363 54.9207 14.3388C54.9161 14.3413 54.9098 14.3451 54.9052 14.3472C54.9027 14.3485 54.8289 14.3795 54.8226 14.3816L54.5308 14.5032C54.4545 14.5258 54.522 14.5053 54.4738 14.5212C54.4344 14.5346 54.4327 14.5346 54.3828 14.5514C54.322 14.572 54.3652 14.5556 54.3266 14.5715C54.2587 14.5984 54.3182 14.5774 54.2767 14.5942L54.1673 14.6273C54.1605 14.6294 54.1543 14.6315 54.1475 14.6336L54.0935 14.6541C53.8918 14.72 53.2662 14.8583 53.0712 14.8634C52.5764 14.876 52.1735 14.9607 51.6799 14.9607L48.6777 14.9598C48.51 14.9602 48.4072 14.985 48.2144 14.9841C48.0718 14.9841 47.621 15.0605 47.3116 15.0575L47.0898 15.0932C46.9305 15.1452 46.5753 15.102 46.3849 15.1418C46.0453 15.2122 45.904 15.1963 45.5258 15.2835L44.4893 15.4919C44.3953 15.5141 44.3945 15.5246 44.3022 15.5485C44.2154 15.5712 44.2687 15.5531 44.205 15.5791L44.0263 15.6416C43.9152 15.6777 44.0133 15.6492 43.9379 15.6752C43.7563 15.738 43.7718 15.7112 43.4565 15.8295C43.3626 15.8647 43.4431 15.8416 43.3697 15.8596C43.2536 15.8877 43.2766 15.8668 43.1772 15.9204C43.1085 15.9573 43.0842 15.9775 43.0196 16.001L42.8175 16.097C42.8129 16.0995 42.8066 16.1024 42.8016 16.1045L42.1621 16.4253C42.2422 16.5247 42.1604 16.5037 42.4548 16.4982C43.5932 16.4781 44.7333 16.4982 45.8717 16.4982C47.0793 16.4982 48.2752 16.5536 49.5331 16.5465L50.118 16.5712C50.3293 16.5712 50.5432 16.5674 50.7537 16.5704C50.8665 16.5716 50.9076 16.5934 51.0195 16.5964C51.1231 16.5993 51.235 16.5959 51.339 16.5955L51.9487 16.6203C52.3793 16.6203 52.7345 16.6375 53.1177 16.6676C53.5215 16.6995 53.9442 16.6488 54.3337 16.6953C54.6461 16.7326 55.4621 16.7406 55.8302 16.7414C55.9535 16.7414 56.003 16.7645 56.1204 16.7674C56.3523 16.7729 56.507 16.7985 56.7053 16.814C56.8994 16.8291 57.12 16.8039 57.3158 16.8152C57.4248 16.8215 57.4714 16.8408 57.6118 16.8396C57.7393 16.8387 57.7909 16.8584 57.9012 16.8643C58.2467 16.8819 58.7746 16.8538 59.1025 16.9025C59.2002 16.9171 59.2916 16.9138 59.3926 16.9129C59.6333 16.9104 59.5298 16.9104 59.6618 16.9477C59.7989 16.9867 60.1352 16.9624 60.2958 16.9616C60.4937 16.9603 60.6778 16.9955 60.8543 17.0094C61.0514 17.0249 61.3114 17.0106 61.5156 17.0106L60.7755 16.4307L60.2162 15.8714C60.2128 15.868 60.2078 15.863 60.2044 15.8592C60.2011 15.8559 60.1965 15.8504 60.1935 15.8466L60.1277 15.7418C59.9843 15.5343 59.7231 15.1485 59.6673 14.8969C59.5537 14.3803 59.5637 14.2378 59.5872 13.7178L59.7046 13.0625C59.7394 12.9388 59.7637 12.787 59.8187 12.6704L60.0296 12.1991C60.0321 12.1941 60.0359 12.1882 60.0384 12.1832L60.1621 11.9429C60.2069 11.8653 60.1964 11.8217 60.2434 11.7559C60.3378 11.6238 60.3369 11.5756 60.448 11.4246C60.487 11.3714 60.4589 11.4079 60.4946 11.3471L61.5852 9.87867C61.5881 9.87448 61.5932 9.86944 61.5965 9.86567L61.9081 9.49333C61.95 9.44049 61.9974 9.42037 62.0456 9.3625C62.3936 8.94781 62.8125 8.52934 63.2171 8.17C63.4394 7.97334 63.6587 7.70834 63.8931 7.53098C64.044 7.41651 64.1769 7.2601 64.3228 7.15486C64.3899 7.10622 64.4365 7.06932 64.4683 7.00433C64.3388 6.8995 64.1019 7.01523 63.9669 7.05087L62.3529 7.2882C62.2565 7.30497 62.0951 7.30413 62.0146 7.31503C61.8959 7.33097 61.8104 7.32719 61.7034 7.34648C61.586 7.36745 61.3575 7.35696 61.2367 7.39889C61.1516 7.42825 61.0292 7.41231 60.9294 7.42531C60.8954 7.42992 60.7923 7.45424 60.7667 7.45886C60.4648 7.51211 60.0623 7.46053 59.7646 7.50582C59.6467 7.52385 59.5692 7.5423 59.4421 7.5423C59.1981 7.54272 58.9918 7.52804 58.78 7.57291C58.5066 7.63077 58.0194 7.53936 57.7548 7.59806C57.6089 7.63077 57.6978 7.64041 57.4399 7.63916C57.2043 7.6379 56.9682 7.63958 56.7321 7.63916C56.4814 7.63874 56.3112 7.66348 56.0487 7.66348H53.9496C53.9819 7.67564 53.9597 7.67815 54.0083 7.62406L54.5459 7.11586C54.5912 7.0819 54.5891 7.08484 54.6268 7.04752L54.6742 6.99846C54.6775 6.9951 54.6826 6.99007 54.6864 6.98672L55.3145 6.54603C55.3195 6.54351 55.3254 6.54016 55.3304 6.53764L56.4944 5.92378C56.5363 5.90868 56.5736 5.89401 56.6001 5.88101C56.7841 5.79002 57.0638 5.72083 57.1494 5.66926L57.2986 5.60594C57.3049 5.60385 57.3112 5.60175 57.3175 5.59923C57.325 5.59672 57.3456 5.58791 57.3527 5.58498L57.8303 5.45457C58.107 5.36191 58.3884 5.32207 58.6865 5.23863C58.783 5.21138 58.8329 5.21096 58.9322 5.19712C59.0933 5.17406 59.0283 5.15142 59.1717 5.1489C59.2937 5.1468 59.3604 5.13087 59.4367 5.11032C59.6442 5.05456 60.3424 5.00927 60.5164 4.97153C60.5441 4.96524 60.5671 4.95308 60.5747 4.95057C60.7189 4.90067 60.9013 4.9099 61.0531 4.90612C61.3164 4.89983 61.5957 4.85664 61.906 4.85664C62.176 4.85664 62.5093 4.85077 62.7735 4.81513C62.8691 4.80213 62.9752 4.78788 63.0549 4.78327C63.4314 4.7623 63.8566 4.79291 64.2293 4.7602C64.405 4.74511 64.6516 4.75895 64.8348 4.75895C65.065 4.75936 65.2072 4.73337 65.4202 4.73463C65.811 4.73672 66.1758 4.71156 66.5921 4.71114C66.7225 4.71073 66.759 4.69144 66.8622 4.68557C67.1339 4.67047 67.4722 4.69311 67.7339 4.61932C67.9834 4.54887 68.3104 4.56355 68.57 4.48053L68.9675 4.36941C69.0555 4.34928 69.0174 4.36648 69.0882 4.33461C69.1432 4.31029 69.1264 4.31322 69.2031 4.28136L69.43 4.19288C69.4363 4.19037 69.443 4.18869 69.4489 4.18575L69.5155 4.14844C69.5654 4.10483 69.57 4.09267 69.5935 4.00294C69.4832 3.97526 69.6078 4.00461 69.4962 3.96772L68.9365 3.76855C68.931 3.76687 68.9247 3.76435 68.9197 3.76226L68.8677 3.74171C68.7851 3.71068 68.7679 3.70271 68.6807 3.68091C68.6736 3.67923 68.5947 3.65743 68.5901 3.65533C68.5855 3.65366 68.5792 3.64988 68.575 3.64779L67.0194 3.14881C67.0139 3.14671 66.9473 3.11862 66.9339 3.11359C66.8295 3.07124 66.7624 3.05111 66.6403 3.05111C66.6508 3.00415 66.7083 2.99283 66.7489 2.97354L67.1716 2.75718C67.2316 2.71944 67.2165 2.72364 67.268 2.6817C67.2718 2.67877 67.2773 2.67416 67.281 2.67122L67.6207 2.44647C67.8777 2.24898 68.1222 2.04813 68.3431 1.79949L68.6362 1.43343C68.6409 1.42798 68.6555 1.41163 68.6601 1.40576L69.1444 0.471125C69.1738 0.411164 69.175 0.393134 69.1952 0.320174C69.2107 0.263568 69.214 0.240506 69.2304 0.185997C69.2623 0.0803315 69.2677 0.168386 69.2765 0.000244141C69.1369 0.0199515 69.1243 0.0543346 69.0082 0.142389L68.5612 0.427517C68.536 0.44387 68.5541 0.433387 68.5163 0.453514L68.3234 0.526054C68.1381 0.599013 67.975 0.703001 67.7884 0.76967L66.6592 1.0766C66.5594 1.09631 66.4546 1.1047 66.3447 1.1286C66.3267 1.13279 66.2139 1.16088 66.2085 1.16214L65.9686 1.1961C65.8785 1.2242 65.9774 1.20491 65.8994 1.21749L65.3719 1.24516C65.0835 1.24265 64.9573 1.29464 64.6637 1.2938C64.1975 1.29254 63.6582 1.3198 63.2016 1.2938L62.8595 1.26948C62.7425 1.26319 62.6687 1.24349 62.5156 1.24474L60.4677 1.10218C60.243 1.07786 59.9671 1.11182 59.7361 1.09841C59.1444 1.06486 58.336 1.03551 57.7544 1.10008C57.6613 1.11015 57.6731 1.1135 57.5871 1.13321C57.3213 1.19401 57.32 1.13363 56.8311 1.28164C56.6206 1.34538 56.4567 1.3806 56.2642 1.47662L55.9271 1.65482C55.9229 1.65734 55.9166 1.66111 55.9124 1.66363C55.6617 1.80997 55.4637 1.99111 55.2847 2.21669C55.2444 2.26785 55.2696 2.22927 55.244 2.27791C55.1769 2.40622 54.922 3.36517 54.8407 3.56015C54.7983 3.6633 54.7996 3.74003 54.7643 3.85366L54.6499 4.27884C54.6411 4.31448 54.6495 4.27003 54.6272 4.35138C54.6251 4.35935 54.6151 4.4105 54.6096 4.43398C54.6054 4.45201 54.5979 4.48095 54.5954 4.48807L54.5727 4.53713C54.4985 4.70527 54.519 4.90486 54.4624 5.03695L54.4205 5.14722C54.4046 5.21641 54.4029 5.24953 54.3891 5.31033C54.3761 5.36694 54.3761 5.39377 54.3643 5.46044L54.3136 5.59714C54.2658 5.72503 54.2532 5.91958 54.2234 6.04789C54.2071 6.11792 54.2058 6.13553 54.1912 6.21352C54.1731 6.30912 54.1329 6.39005 54.1081 6.49361L53.9563 7.24333C53.9228 7.36074 53.8951 7.53391 53.8276 7.66348Z" fill="white" fill-opacity="0.5"/>
<path fill-rule="evenodd" clip-rule="evenodd" d="M21.8546 63.6556C21.8139 63.2153 21.8508 61.6727 21.8508 61.0383C21.8508 60.3607 21.7837 60.3666 22.0068 60.3666H29.1819C29.3291 60.3666 29.3366 60.354 29.3366 60.5012C29.3371 61.4723 29.3601 62.7294 29.3333 63.6661L21.8546 63.6556ZM1.55512 72.0694C1.68175 72.0363 2.06919 71.7952 2.20211 71.7226C2.20672 71.7201 2.21301 71.7163 2.21804 71.7138L4.22526 70.5712C4.23113 70.567 4.2479 70.554 4.25377 70.5494L5.06219 70.0907C5.06638 70.0878 5.07225 70.084 5.07687 70.081L5.28904 69.9703V60.4035H13.5137C13.52 60.3989 13.5288 60.3838 13.5322 60.3888L16.0945 57.8348C16.2438 57.6876 16.2384 57.7405 16.2472 57.5727H1.54883L1.55512 72.0694ZM34.9419 69.946H38.7702L38.8167 69.863C38.8197 69.8584 38.8239 69.8525 38.8268 69.8479L39.3882 68.8215C39.3912 68.8168 39.395 68.8105 39.3975 68.8059L39.509 68.6252C39.5119 68.6202 39.5149 68.6135 39.5178 68.6084L40.1723 67.4084C40.1879 67.3778 40.1971 67.3497 40.2092 67.3229L40.33 67.1036C40.3325 67.0989 40.3359 67.0927 40.3384 67.0876L40.4315 66.9346C40.4583 66.8813 40.478 66.8377 40.5061 66.7924L41.4043 65.15C41.4349 65.0917 41.4043 65.1454 41.4391 65.0892L41.5414 64.8967C41.5447 64.8905 41.5548 64.8716 41.5582 64.8649L42.0714 63.9386C42.0743 63.9336 42.0773 63.9273 42.0798 63.9223L42.6664 62.8489C42.6873 62.8111 42.7159 62.7725 42.7389 62.726C42.7729 62.6577 42.7779 62.6434 42.8119 62.5797L43.1662 61.9356C43.1846 61.9054 43.1792 61.9155 43.2022 61.8731L43.3859 61.5507C43.4119 61.6756 43.4714 61.7545 43.5335 61.8593C43.5369 61.8656 43.5482 61.884 43.552 61.8907C43.5545 61.8954 43.5582 61.9016 43.5608 61.9063L44.1469 63.0015C44.1495 63.0069 44.1524 63.0136 44.1549 63.0191C44.1574 63.0246 44.1604 63.0308 44.1633 63.0359L44.8795 64.3206C44.882 64.3257 44.8853 64.3319 44.8879 64.337L45.0807 64.6783C45.1281 64.7814 45.1692 64.8561 45.2116 64.9395L45.2707 65.0322C45.2736 65.0364 45.2787 65.0414 45.282 65.0452C45.2845 65.049 45.2896 65.0544 45.2921 65.0582L46.0409 66.4297C46.0435 66.4348 46.0472 66.4406 46.0498 66.4457C46.2032 66.7379 46.3529 67.0331 46.5299 67.3086C46.5328 67.3128 46.5366 67.3191 46.5391 67.3233L46.9865 68.169C46.989 68.1736 46.9924 68.1803 46.9949 68.1854L47.5781 69.2613C47.5815 69.268 47.6096 69.3187 47.6129 69.325C47.6154 69.3301 47.6184 69.3364 47.6213 69.3414C47.6238 69.346 47.6268 69.3527 47.6297 69.3573L47.7274 69.5246C47.7739 69.624 47.8922 69.8764 47.9744 69.9217L48.0217 69.936C48.0289 69.9372 48.0373 69.9397 48.0456 69.9414C48.0545 69.9427 48.0607 69.9439 48.0704 69.9448L51.7812 69.946C51.7787 69.7573 51.6785 69.6521 51.598 69.5024L50.5237 67.5258C50.5212 67.5212 50.5179 67.5149 50.5154 67.5099L48.8411 64.4254C48.8323 64.4099 48.8277 64.4003 48.8159 64.3776L48.7346 64.2368C48.7316 64.2326 48.727 64.2267 48.7241 64.2225L48.5857 63.947C48.5413 63.8741 48.5157 63.8351 48.4742 63.7445L48.2201 63.264C48.2016 63.2317 48.1844 63.2044 48.1647 63.1721L48.002 62.8728C47.9987 62.8656 47.9878 62.8463 47.984 62.8396L47.8394 62.5725C47.8368 62.5671 47.8339 62.5608 47.8314 62.5558L47.7496 62.4157C47.7048 62.3423 47.6754 62.2803 47.6406 62.2098L47.0699 61.1708C47.054 61.1331 47.0418 61.1071 47.0217 61.071C47.0192 61.066 47.0154 61.0601 47.0125 61.0551C47.01 61.0505 47.0058 61.0446 47.0033 61.04L46.9471 60.9259C46.9198 60.8706 46.9458 60.923 46.9219 60.8777L46.4972 60.1062C46.4548 60.0311 46.4271 59.9875 46.394 59.9183L45.9491 59.0919C45.9462 59.0873 45.942 59.0814 45.9395 59.0768L45.6703 58.5648C45.6527 58.5342 45.6304 58.5011 45.6145 58.4742L45.3436 57.9891C45.3407 57.9845 45.3374 57.9782 45.3344 57.9736C45.3319 57.9686 45.3285 57.9627 45.3256 57.9577C45.3231 57.953 45.3197 57.9468 45.3172 57.9417C45.3143 57.9371 45.3114 57.9308 45.3088 57.9262L45.2929 57.8939C45.238 57.782 45.1898 57.6054 45.0715 57.5832L41.6047 57.5727L41.5062 57.7765C41.4932 57.8059 41.5011 57.7874 41.4839 57.8277L41.4055 57.9648C41.3908 57.9862 41.3598 58.0373 41.3493 58.0562C41.3422 58.07 41.3342 58.0835 41.3242 58.1065L40.3137 59.972C40.3107 59.9762 40.3061 59.9812 40.3036 59.9854C40.1858 60.1607 40.1057 60.3523 40.0013 60.5406L39.3153 61.8048C39.3124 61.8094 39.3086 61.8153 39.3056 61.8199L39.0125 62.3826C38.9777 62.4442 38.9429 62.4941 38.9002 62.5608C38.8549 62.6317 38.8335 62.687 38.8016 62.7583C38.7991 62.7637 38.7966 62.77 38.7941 62.7751L38.7371 62.8887C38.7345 62.8933 38.7308 62.8992 38.7283 62.9038C38.7253 62.9084 38.7215 62.9143 38.719 62.9185L38.2092 63.8493C38.2066 63.8539 38.2033 63.8602 38.2008 63.8653C38.1983 63.8699 38.1949 63.8762 38.192 63.8812C38.1894 63.8862 38.1865 63.8925 38.1836 63.8971L37.5492 65.0682C37.5467 65.0733 37.5437 65.0796 37.5412 65.0842C37.5387 65.0892 37.5349 65.0955 37.5324 65.1001L36.9223 66.2247C36.9198 66.2297 36.9173 66.236 36.9148 66.2415L36.3521 67.2629C36.3491 67.2679 36.3458 67.2738 36.3428 67.2788L35.7197 68.4369C35.7168 68.442 35.7139 68.4483 35.7109 68.4533L35.0203 69.7368C35.0182 69.741 35.014 69.7473 35.0115 69.7511C34.986 69.7921 34.947 69.8488 34.9419 69.946ZM99.0307 57.5727V62.4782H91.7574V57.6704C91.7574 57.5199 91.6509 57.5727 91.3428 57.5727L88.12 57.5719C88.0692 57.5761 88.1258 57.5681 88.0709 57.5778C87.99 57.5916 87.9912 57.5962 87.9799 57.6688C87.9745 57.7019 87.9736 57.7338 87.9732 57.7673L87.9749 60.6722C87.9749 61.1008 87.9539 69.7515 87.985 69.8986C87.9942 69.9406 87.9942 69.9502 88.0466 69.9603L91.7574 69.9703V65.0649H99.0307V69.9703H102.787L102.789 55.425C102.779 55.428 102.767 55.423 102.76 55.4355L102.644 55.498C102.638 55.5022 102.624 55.5139 102.618 55.5177L101.77 56.0104C101.659 56.0842 101.647 56.0645 101.49 56.1731L101.198 56.3404C101.184 56.3479 101.149 56.3618 101.131 56.3706L100.673 56.6419C100.481 56.7232 100.561 56.7119 100.443 56.7819L100.345 56.8285C100.339 56.8314 100.333 56.8339 100.328 56.8369C100.28 56.8612 100.245 56.8893 100.207 56.9144L99.0307 57.5727ZM53.661 57.5971C53.6031 57.7363 53.6367 60.549 53.6367 60.6722L53.6413 69.8748C53.6597 69.9813 53.7088 69.9733 53.905 69.9712L64.7898 69.9703C65.3521 69.9703 65.1688 70.0202 65.5286 69.6584L66.6138 68.5736C66.6175 68.5703 66.6226 68.5648 66.6263 68.5615L67.6868 67.4998C67.7119 67.4751 67.7191 67.4684 67.7488 67.4386C67.8994 67.2885 67.9161 67.3191 67.9379 67.1639H57.3962L57.3945 65.0649H64.0514C64.1701 65.0649 64.199 64.9764 64.2522 64.9173L64.8388 64.3328C64.9952 64.1739 64.9449 64.2552 65.1156 64.0472C65.1185 64.0435 65.1231 64.0376 65.1261 64.0338L66.0645 63.0946C66.0683 63.0908 66.0733 63.0858 66.0771 63.0824L66.3077 62.8514C66.4347 62.7252 66.5853 62.6086 66.6201 62.4782H57.4163L57.4192 60.4035H65.6255C65.7232 60.4035 65.8888 60.1951 66.0037 60.0802C66.1177 59.9661 66.2406 59.8567 66.3458 59.738C66.4121 59.6634 66.4272 59.6307 66.5035 59.5556L68.3233 57.7409C68.4042 57.66 68.3832 57.7023 68.4017 57.5727H54.1243C54.0514 57.5727 53.978 57.5732 53.905 57.5723L53.7084 57.5832C53.6996 57.5849 53.6916 57.5882 53.6845 57.5899C53.6778 57.5916 53.6685 57.5941 53.661 57.5971ZM74.0074 60.3439L82.3927 60.3481C82.4505 60.6215 82.4036 61.7067 82.4036 62.0631V66.7736C82.4036 66.8474 82.4048 66.9212 82.4048 66.9945L82.3889 67.1455C82.3881 67.1421 82.3851 67.1568 82.3822 67.1618C82.3734 67.1656 74.5584 67.2273 73.9952 67.174L74.0074 60.3439ZM73.0388 57.5971C72.9629 57.6365 70.6827 59.9464 70.3967 60.2269C70.1942 60.4257 70.2567 60.4156 70.2567 60.9892C70.2567 61.7033 70.2345 67.0398 70.2684 67.1417C70.2928 67.2138 72.0148 68.9108 72.4715 69.3661L72.5813 69.4768C72.6233 69.5188 72.6488 69.5439 72.6908 69.5863L72.8719 69.7737C73.1247 70.0052 72.9751 69.946 73.6732 69.946L83.2938 69.9444C83.4493 69.92 84.246 69.0504 84.4666 68.8298L86.0042 67.2922C86.1295 67.169 86.1475 67.2063 86.1455 66.969C86.1358 65.94 86.1819 60.5368 86.1283 60.3812C86.0884 60.2651 83.5529 57.7769 83.4904 57.7132C83.2912 57.5103 83.3013 57.5727 82.7277 57.5727H73.5025C73.4292 57.5727 73.3562 57.5732 73.2828 57.5723L73.0862 57.5832C73.0778 57.5849 73.0694 57.5882 73.0623 57.5899C73.0556 57.5916 73.0463 57.5933 73.0388 57.5971ZM18.1265 69.946L18.2225 69.9695C18.254 69.9729 18.3127 69.9716 18.3462 69.9712C18.4276 69.9708 18.5089 69.9703 18.5903 69.9703H21.8847V66.4318H29.3044V69.9703L29.5891 70.1297C29.5937 70.1326 29.5996 70.1364 29.6037 70.1393L30.4843 70.6291C30.53 70.6534 30.5451 70.6706 30.5853 70.6953L30.9514 70.8932C31.0122 70.9264 30.9946 70.9222 31.0566 70.9578L31.7149 71.3243C31.7196 71.3272 31.7258 71.3306 31.7305 71.3335C31.7351 71.336 31.7414 71.3398 31.7456 71.3427L32.3506 71.6912C32.3519 71.692 32.3993 71.7159 32.3997 71.7159L32.6303 71.8463C32.6345 71.8493 32.6399 71.8539 32.6441 71.8568C32.6483 71.8602 32.6538 71.8648 32.658 71.8677L32.819 71.9553C33.0135 72.0518 32.9288 72.0681 33.1112 72.0937C33.1112 68.2973 33.0915 64.464 33.1112 60.6722C33.1117 60.6194 33.1154 60.5486 33.1129 60.4982C33.1033 60.2978 33.014 60.2945 32.7389 60.0194C32.4777 59.7577 30.3698 57.6138 30.2822 57.5849C30.1543 57.5421 21.6504 57.5794 21.1283 57.5719C20.8398 57.5681 20.9128 57.5799 20.8507 57.639L19.8654 58.6281C19.363 59.1309 18.6397 59.8227 18.1676 60.3221C18.1055 60.3875 18.119 60.3515 18.1039 60.4475C18.0921 60.5234 18.1022 60.707 18.1022 60.7943V69.6043C18.1018 69.7452 18.0883 69.7968 18.119 69.9225C18.1206 69.9293 18.1236 69.9385 18.1265 69.946Z" fill="white"/>
<path d="M5.41575 83.554L3.1427 87.7798C2.92424 88.1865 2.66091 88.4943 2.35314 88.7031C2.04537 88.9115 1.71119 89.0155 1.35016 89.0155C1.07049 89.0155 0.780747 88.9547 0.480524 88.8327L0.777812 87.8943C0.991658 87.9605 1.16944 87.9937 1.31201 87.9937C1.46464 87.9937 1.60175 87.9567 1.72377 87.8829C1.84578 87.8092 1.95774 87.6934 2.05963 87.5358L2.10533 87.475L0 83.554H1.31956L2.73849 86.4221L4.20312 83.554H5.41575ZM11.4269 87.8867V89.9996H10.2826V88.8935H6.51433V89.9996H5.37005L5.3776 87.8867H5.59144C5.91179 87.8767 6.1378 87.6427 6.2703 87.1848C6.40238 86.7273 6.48373 86.0736 6.51433 85.2246L6.57513 83.554H10.6793V87.8867H11.4269ZM7.60495 85.339C7.57979 85.9747 7.52612 86.5072 7.44477 86.937C7.36343 87.3668 7.23889 87.6834 7.07117 87.8867H9.4587V84.5608H7.62801L7.60495 85.339ZM15.9198 87.7492H13.4404L12.9675 88.8935H11.7016L14.0815 83.554H15.3017L17.6893 88.8935H16.3928L15.9198 87.7492ZM15.5307 86.8112L14.6841 84.7667L13.8371 86.8112H15.5307ZM20.7099 83.554C21.1829 83.554 21.5938 83.6329 21.9419 83.7905C22.2903 83.9482 22.5587 84.1717 22.7469 84.4618C22.9348 84.7516 23.0291 85.095 23.0291 85.4917C23.0291 85.8829 22.9348 86.225 22.7469 86.5173C22.5587 86.81 22.2903 87.0334 21.9419 87.1886C21.5938 87.3437 21.1829 87.4213 20.7099 87.4213H19.6344V88.8935H18.3987V83.554H20.7099ZM20.6416 86.4145C21.0127 86.4145 21.2949 86.3345 21.4882 86.1743C21.6815 86.0141 21.7779 85.7864 21.7779 85.4917C21.7779 85.1914 21.6815 84.9612 21.4882 84.8011C21.2949 84.6409 21.0127 84.5608 20.6416 84.5608H19.6344V86.4145H20.6416ZM26.4691 88.9853C25.9148 88.9853 25.4154 88.8658 24.9705 88.6268C24.5252 88.3878 24.1772 88.0582 23.9252 87.6389C23.6736 87.2192 23.5478 86.7475 23.5478 86.2238C23.5478 85.7001 23.6736 85.2283 23.9252 84.8086C24.1772 84.3893 24.5252 84.0601 24.9705 83.8207C25.4154 83.5817 25.9148 83.4626 26.4691 83.4626C27.0234 83.4626 27.522 83.5817 27.9643 83.8207C28.4067 84.0601 28.7552 84.3893 29.0093 84.8086C29.2638 85.2283 29.3908 85.7001 29.3908 86.2238C29.3908 86.7475 29.2638 87.2192 29.0093 87.6389C28.7552 88.0582 28.4067 88.3878 27.9643 88.6268C27.522 88.8658 27.0234 88.9853 26.4691 88.9853ZM26.4691 87.9324C26.7844 87.9324 27.0691 87.8599 27.3236 87.7152C27.5777 87.5701 27.7773 87.368 27.9224 87.1085C28.0675 86.8494 28.1396 86.5542 28.1396 86.2238C28.1396 85.8934 28.0675 85.5982 27.9224 85.339C27.7773 85.0795 27.5777 84.8774 27.3236 84.7323C27.0691 84.5876 26.7844 84.5151 26.4691 84.5151C26.1538 84.5151 25.8691 84.5876 25.615 84.7323C25.3605 84.8774 25.1609 85.0795 25.0162 85.339C24.8711 85.5982 24.7986 85.8934 24.7986 86.2238C24.7986 86.5542 24.8711 86.8494 25.0162 87.1085C25.1609 87.368 25.3605 87.5701 25.615 87.7152C25.8691 87.8599 26.1538 87.9324 26.4691 87.9324ZM35.2108 83.554V88.8935H33.9831V84.5608H31.5725V88.8935H30.3443V83.554H35.2108ZM38.8495 83.554C39.3225 83.554 39.733 83.6329 40.0814 83.7905C40.4299 83.9482 40.6982 84.1717 40.8861 84.4618C41.0744 84.7516 41.1683 85.095 41.1683 85.4917C41.1683 85.8829 41.0744 86.225 40.8861 86.5173C40.6982 86.81 40.4299 87.0334 40.0814 87.1886C39.733 87.3437 39.3225 87.4213 38.8495 87.4213H37.774V88.8935H36.5383V83.554H38.8495ZM38.7808 86.4145C39.1523 86.4145 39.4345 86.3345 39.6278 86.1743C39.8206 86.0141 39.9175 85.7864 39.9175 85.4917C39.9175 85.1914 39.8206 84.9612 39.6278 84.8011C39.4345 84.6409 39.1523 84.5608 38.7808 84.5608H37.774V86.4145H38.7808ZM44.6087 88.9853C44.0544 88.9853 43.555 88.8658 43.1097 88.6268C42.6648 88.3878 42.3163 88.0582 42.0648 87.6389C41.8132 87.2192 41.687 86.7475 41.687 86.2238C41.687 85.7001 41.8132 85.2283 42.0648 84.8086C42.3163 84.3893 42.6648 84.0601 43.1097 83.8207C43.555 83.5817 44.0544 83.4626 44.6087 83.4626C45.163 83.4626 45.6616 83.5817 46.1039 83.8207C46.5463 84.0601 46.8947 84.3893 47.1488 84.8086C47.4029 85.2283 47.5304 85.7001 47.5304 86.2238C47.5304 86.7475 47.4029 87.2192 47.1488 87.6389C46.8947 88.0582 46.5463 88.3878 46.1039 88.6268C45.6616 88.8658 45.163 88.9853 44.6087 88.9853ZM44.6087 87.9324C44.924 87.9324 45.2087 87.8599 45.4632 87.7152C45.7173 87.5701 45.9169 87.368 46.062 87.1085C46.2067 86.8494 46.2792 86.5542 46.2792 86.2238C46.2792 85.8934 46.2067 85.5982 46.062 85.339C45.9169 85.0795 45.7173 84.8774 45.4632 84.7323C45.2087 84.5876 44.924 84.5151 44.6087 84.5151C44.2934 84.5151 44.0087 84.5876 43.7546 84.7323C43.5 84.8774 43.3004 85.0795 43.1554 85.339C43.0107 85.5982 42.9382 85.8934 42.9382 86.2238C42.9382 86.5542 43.0107 86.8494 43.1554 87.1085C43.3004 87.368 43.5 87.5701 43.7546 87.7152C44.0087 87.8599 44.2934 87.9324 44.6087 87.9324ZM52.7554 83.554V88.8935H51.5348V86.9714C51.0723 87.1391 50.6425 87.223 50.2458 87.223C49.5288 87.223 48.9795 87.0515 48.5984 86.7081C48.2168 86.3651 48.026 85.8703 48.026 85.2246V83.554H49.2466V85.087C49.2466 85.4535 49.3443 85.7294 49.5401 85.9147C49.736 86.1005 50.0194 86.1932 50.3909 86.1932C50.7976 86.1932 51.1792 86.1143 51.5348 85.9567V83.554H52.7554ZM58.98 83.554V88.8935H57.7443V86.7043H55.3186V88.8935H54.0829V83.554H55.3186V85.6594H57.7443V83.554H58.98ZM62.9009 85.3084C63.5517 85.3084 64.0515 85.4535 64.3995 85.7432C64.7479 86.033 64.922 86.4628 64.922 87.0322C64.922 87.6377 64.7303 88.0989 64.3462 88.4167C63.9622 88.7346 63.4221 88.8935 62.7252 88.8935H60.3146V83.554H61.5428V85.3084H62.9009ZM62.6564 87.9781C62.9768 87.9781 63.2275 87.8993 63.4078 87.7416C63.5886 87.584 63.6787 87.3555 63.6787 87.0552C63.6787 86.5009 63.3378 86.2238 62.6564 86.2238H61.5428V87.9781H62.6564ZM65.6008 83.554H66.829V88.8935H65.6008V83.554ZM72.2908 87.9018V88.8935H68.1565V83.554H72.1919V84.5457H69.3846V85.7051H71.8636V86.6661H69.3846V87.9018H72.2908ZM77.5162 86.7424H76.6617V88.8935H75.4335V83.554H76.6617V85.7126H77.5464L78.9502 83.554H80.2543L78.5075 86.1323L80.308 88.8935H78.9041L77.5162 86.7424ZM85.0218 87.9018V88.8935H80.8874V83.554H84.9228V84.5457H82.1156V85.7051H84.5949V86.6661H82.1156V87.9018H85.0218ZM86.0214 83.554H87.2492V87.0322L89.7973 83.554H90.9566V88.8935H89.7361V85.4229L87.1884 88.8935H86.0214V83.554ZM88.4853 83.2106C87.5087 83.2106 87.0156 82.8215 87.0051 82.0437H87.8521C87.8622 82.4148 88.0731 82.6005 88.4853 82.6005C88.6886 82.6005 88.8438 82.5536 88.9503 82.4592C89.0572 82.3653 89.113 82.2265 89.1184 82.0437H89.965C89.96 82.4249 89.8354 82.715 89.591 82.9133C89.3469 83.1117 88.9784 83.2106 88.4853 83.2106ZM94.8088 88.9853C94.2646 88.9853 93.7727 88.8671 93.3328 88.6306C92.893 88.3941 92.5471 88.0658 92.2955 87.6465C92.0435 87.2267 91.9177 86.7525 91.9177 86.2238C91.9177 85.695 92.0435 85.2208 92.2955 84.8011C92.5471 84.3818 92.893 84.0534 93.3328 83.8169C93.7727 83.5809 94.2671 83.4626 94.8164 83.4626C95.2793 83.4626 95.6973 83.544 96.0713 83.7067C96.4449 83.8694 96.759 84.1033 97.0131 84.4082L96.2198 85.1407C95.8588 84.7235 95.4114 84.5151 94.8776 84.5151C94.5467 84.5151 94.252 84.5876 93.9924 84.7323C93.7333 84.8774 93.5312 85.0795 93.3861 85.339C93.241 85.5982 93.1689 85.8934 93.1689 86.2238C93.1689 86.5542 93.241 86.8494 93.3861 87.1085C93.5312 87.368 93.7333 87.5701 93.9924 87.7152C94.252 87.8599 94.5467 87.9324 94.8776 87.9324C95.4114 87.9324 95.8588 87.7215 96.2198 87.2993L97.0131 88.0318C96.759 88.3417 96.4437 88.5782 96.0676 88.7409C95.691 88.9035 95.2713 88.9853 94.8088 88.9853ZM100.408 85.3084C101.059 85.3084 101.558 85.4535 101.907 85.7432C102.255 86.033 102.429 86.4628 102.429 87.0322C102.429 87.6377 102.237 88.0989 101.853 88.4167C101.469 88.7346 100.929 88.8935 100.232 88.8935H97.8219V83.554H99.0501V85.3084H100.408ZM100.164 87.9781C100.484 87.9781 100.734 87.8993 100.915 87.7416C101.095 87.584 101.186 87.3555 101.186 87.0552C101.186 86.5009 100.845 86.2238 100.164 86.2238H99.0501V87.9781H100.164ZM103.108 83.554H104.336V88.8935H103.108V83.554Z" fill="white"/>
<path fill-rule="evenodd" clip-rule="evenodd" d="M29.8516 77.8206H74.4862V78.53H29.8516V77.8206Z" fill="white" fill-opacity="0.7"/>
</g>
<defs>
<clipPath id="clip0_105_277">
<rect width="104.336" height="90" fill="white"/>
</clipPath>
</defs>
</svg>
