<svg width="24" height="24" viewBox="0 0 24 24" fill="none" xmlns="http://www.w3.org/2000/svg">
<path d="M23.9478 6.82175L21.1565 15.6131C20.9478 16.2391 20.4 16.6565 19.7478 16.6565H8.97391C8.34783 16.6565 7.74783 16.2652 7.53913 15.6913L3.41739 4.65654H1.04348C0.469565 4.65654 0 4.18697 0 3.61306C0 3.03915 0.469565 2.56958 1.04348 2.56958H4.14783C4.5913 2.56958 4.98261 2.85654 5.13913 3.27393L9.3913 14.5696H19.3043L21.5217 7.5261H9.23478C8.66087 7.5261 8.1913 7.05654 8.1913 6.48262C8.1913 5.90871 8.66087 5.43915 9.23478 5.43915H22.9565C23.2957 5.43915 23.6087 5.62175 23.7913 5.88262C24 6.14349 24.0522 6.50871 23.9478 6.82175ZM9.49565 18.0391C9.05217 18.0391 8.6087 18.2218 8.29565 18.5348C7.98261 18.8478 7.8 19.2913 7.8 19.7348C7.8 20.1783 7.98261 20.6218 8.29565 20.9348C8.6087 21.2478 9.05217 21.4305 9.49565 21.4305C9.93913 21.4305 10.3826 21.2478 10.6957 20.9348C11.0087 20.6218 11.1913 20.1783 11.1913 19.7348C11.1913 19.2913 11.0087 18.8478 10.6957 18.5348C10.3826 18.2218 9.93913 18.0391 9.49565 18.0391ZM18.8609 18.0391C18.4174 18.0391 17.9739 18.2218 17.6609 18.5348C17.3478 18.8478 17.1652 19.2913 17.1652 19.7348C17.1652 20.1783 17.3478 20.6218 17.6609 20.9348C17.9739 21.2478 18.4174 21.4305 18.8609 21.4305C19.3043 21.4305 19.7478 21.2478 20.0609 20.9348C20.3739 20.6218 20.5565 20.1783 20.5565 19.7348C20.5565 19.2913 20.3739 18.8478 20.0609 18.5348C19.7478 18.2218 19.3043 18.0391 18.8609 18.0391Z" fill="white"/>
</svg>
