<svg width="12" height="13" viewBox="0 0 12 13" fill="none" xmlns="http://www.w3.org/2000/svg">
<path fill-rule="evenodd" clip-rule="evenodd" d="M0.706159 10.6475L10.0703 1.28329C10.0962 1.25758 10.1312 1.24315 10.1677 1.24315C10.2041 1.24315 10.2391 1.25758 10.265 1.28329L10.511 1.52928L10.514 1.5323L11.0437 2.062L11.046 2.06502L11.2927 2.31101C11.3184 2.33688 11.3329 2.37188 11.3329 2.40835C11.3329 2.44482 11.3184 2.47982 11.2927 2.50569L1.92856 11.8706C1.90268 11.8963 1.86769 11.9108 1.83122 11.9108C1.79474 11.9108 1.75975 11.8963 1.73388 11.8706L1.48789 11.6239L1.48487 11.6216L0.955165 11.0919L0.952147 11.0889L0.706159 10.8429C0.680447 10.817 0.666016 10.782 0.666016 10.7456C0.666016 10.7091 0.680447 10.6741 0.706159 10.6482V10.6475Z" fill="#23A8B3"/>
<path fill-rule="evenodd" clip-rule="evenodd" d="M10.0703 11.8699L0.706159 2.50569C0.680447 2.47982 0.666016 2.44482 0.666016 2.40835C0.666016 2.37188 0.680447 2.33688 0.706159 2.31101L0.952902 2.06502L0.955165 2.062L1.48487 1.5323L1.48789 1.52928L1.73388 1.28329C1.75975 1.25758 1.79474 1.24315 1.83122 1.24315C1.86769 1.24315 1.90268 1.25758 1.92856 1.28329L11.2927 10.6475C11.3184 10.6733 11.3329 10.7083 11.3329 10.7448C11.3329 10.7813 11.3184 10.8163 11.2927 10.8421L11.0467 11.0881L11.0437 11.0911L10.514 11.6208L10.511 11.6231L10.265 11.8699C10.2391 11.8956 10.2041 11.91 10.1677 11.91C10.1312 11.91 10.0962 11.8956 10.0703 11.8699Z" fill="#23A8B3"/>
</svg>
