<svg width="18" height="18" viewBox="0 0 18 18" fill="none" xmlns="http://www.w3.org/2000/svg">
<path fill-rule="evenodd" clip-rule="evenodd" d="M1.06021 15.2207L15.1065 1.17447C15.1453 1.1359 15.1978 1.11426 15.2525 1.11426C15.3072 1.11426 15.3597 1.1359 15.3985 1.17447L15.7675 1.54346L15.772 1.54798L16.5665 2.34254L16.5699 2.34707L16.9401 2.71605C16.9786 2.75486 17.0003 2.80735 17.0003 2.86206C17.0003 2.91677 16.9786 2.96926 16.9401 3.00807L2.89381 17.0554C2.855 17.094 2.80251 17.1157 2.7478 17.1157C2.69309 17.1157 2.6406 17.094 2.60179 17.0554L2.23281 16.6853L2.22828 16.6819L1.43372 15.8874L1.4292 15.8829L1.06021 15.5139C1.02165 15.4751 1 15.4226 1 15.3679C1 15.3132 1.02165 15.2607 1.06021 15.2219V15.2207Z" fill="#D52B1E"/>
<path fill-rule="evenodd" clip-rule="evenodd" d="M15.1065 17.0543L1.06021 3.00807C1.02165 2.96926 1 2.91677 1 2.86206C1 2.80735 1.02165 2.75486 1.06021 2.71605L1.43033 2.34707L1.43372 2.34254L2.22828 1.54798L2.23281 1.54346L2.60179 1.17447C2.6406 1.1359 2.69309 1.11426 2.7478 1.11426C2.80251 1.11426 2.855 1.1359 2.89381 1.17447L16.9401 15.2207C16.9786 15.2595 17.0003 15.312 17.0003 15.3667C17.0003 15.4214 16.9786 15.4739 16.9401 15.5127L16.5711 15.8817L16.5665 15.8862L15.772 16.6808L15.7675 16.6842L15.3985 17.0543C15.3597 17.0929 15.3072 17.1145 15.2525 17.1145C15.1978 17.1145 15.1453 17.0929 15.1065 17.0543Z" fill="#D52B1E"/>
</svg>
