<svg width="156" height="52" viewBox="0 0 156 52" fill="none" xmlns="http://www.w3.org/2000/svg">
<path fill-rule="evenodd" clip-rule="evenodd" d="M9.22735 27.7189L9.27959 27.6796C9.28391 27.6757 9.28901 27.6702 9.29294 27.6659L9.668 27.1978C9.71277 27.148 9.70767 27.1523 9.74969 27.0954L10.1024 26.6964C10.177 26.6218 10.2049 26.5688 10.2842 26.4907C10.5057 26.2724 10.7064 26.029 10.9456 25.8275L11.2943 25.4918C11.3454 25.4475 11.2994 25.4887 11.3418 25.4447C11.3842 25.4007 11.4039 25.3862 11.4506 25.3521L12.4097 24.5982C12.5039 24.533 12.4321 24.5656 12.5067 24.5106C12.5102 24.5083 12.5161 24.5047 12.5196 24.5024L12.5624 24.4777C12.5935 24.46 12.5848 24.4647 12.6202 24.4443C12.6473 24.4282 12.6614 24.4207 12.6783 24.4093C12.6822 24.4062 12.6877 24.4023 12.6917 24.3991L13.4288 23.9256C13.4716 23.8993 13.5003 23.8977 13.5553 23.8722C13.6169 23.8435 13.6389 23.8204 13.6833 23.7925C13.7238 23.767 13.7583 23.7576 13.809 23.7419C13.939 23.701 13.9641 23.6413 14.0588 23.6021L14.1683 23.5758C14.2469 23.5522 14.1742 23.5789 14.2225 23.555L14.3729 23.4843C14.3792 23.4827 14.3855 23.4815 14.3922 23.4796L14.6675 23.3637C14.7237 23.3414 14.6977 23.3504 14.7488 23.3315C14.9507 23.2558 15.1549 23.2279 15.3595 23.1659C15.6937 23.0649 16.3339 22.9786 16.7203 23.0123C16.7914 23.0186 16.7937 23.03 16.8829 23.0339L17.6271 23.2196C17.7952 23.264 17.525 23.1572 17.6884 23.2436C17.7053 23.2526 17.7292 23.2695 17.7446 23.2785L17.9366 23.3834C17.948 23.39 17.9716 23.4042 17.9888 23.4187L18.5088 24.0308C18.5929 24.2107 18.6459 24.6218 18.6133 24.8471C18.598 24.952 18.5681 25.056 18.5473 25.1691C18.5233 25.3026 18.4821 25.3972 18.422 25.5138L17.8537 26.4762C17.8223 26.517 17.8494 26.4836 17.8148 26.526L17.5124 26.8845C17.4681 26.9301 17.5152 26.8802 17.4692 26.9356L16.4823 27.8402C16.4403 27.8736 16.4097 27.8979 16.3684 27.9317L15.8826 28.2886C15.852 28.3067 15.8579 28.3031 15.8264 28.3255C15.7793 28.3597 15.8127 28.3334 15.7742 28.3652C15.7691 28.3695 15.7538 28.3828 15.7487 28.3875L15.6049 28.4888C15.4577 28.5662 15.3528 28.6691 15.2087 28.7566L14.9239 28.9341C14.9204 28.9368 14.9153 28.9415 14.9118 28.9447C14.8788 28.9718 14.8364 28.9902 14.7837 29.013C14.7771 29.0158 14.7559 29.0244 14.7496 29.0275L14.7056 29.0578C14.7013 29.0609 14.6969 29.0656 14.693 29.0688L14.5304 29.1591C14.5371 29.1665 14.5477 29.165 14.5536 29.1783C14.5933 29.2674 15.1136 29.1072 15.3112 29.0915C15.4588 29.0798 15.4954 29.0389 15.6929 29.0122L18.3486 28.6557C18.7295 28.64 19.0527 28.5874 19.4451 28.5874H20.8397C21.1177 28.5858 21.4343 28.6161 21.7088 28.6494C21.7924 28.6596 21.8313 28.649 21.9122 28.6702C22.1039 28.7213 22.3179 28.7048 22.5123 28.7562C22.8257 28.8395 23.1544 28.8567 23.4612 28.9698L24.1378 29.2223C24.205 29.2725 24.2569 29.2643 24.3217 29.2969C24.4391 29.3558 24.551 29.4473 24.6547 29.5305L24.7548 29.6102C24.758 29.6133 24.7627 29.6181 24.7662 29.6212L25.0439 30.0394C25.0792 30.1697 25.0875 30.3146 25.0376 30.4395C25.0168 30.4909 25.0266 30.4768 25.0042 30.518L24.5039 30.9892L24.2282 31.1211C24.2215 31.1242 24.2023 31.1329 24.196 31.136C24.1791 31.1442 24.1571 31.1572 24.1512 31.1603L23.7271 31.3268C23.6736 31.3457 23.685 31.3398 23.6407 31.3508L23.3598 31.4627C23.2412 31.5031 23.1458 31.4917 23.0127 31.5243L22.79 31.5785C22.6294 31.628 22.4244 31.6555 22.2292 31.6716C22.153 31.6778 22.0843 31.6688 22.0053 31.6786C21.9649 31.6837 21.8423 31.7041 21.807 31.7092C21.7335 31.7198 21.6676 31.714 21.5933 31.7242C21.5348 31.732 21.4779 31.7579 21.4076 31.7634C21.2391 31.7764 21.1205 31.7827 20.9524 31.7866L20.0621 31.8098C19.4628 31.8098 18.7963 31.8357 18.2119 31.789C17.9904 31.7713 17.8168 31.7238 17.5949 31.7179C17.2466 31.7081 16.8691 31.6704 16.5283 31.6233C16.4097 31.6068 16.2541 31.5683 16.1316 31.56L14.4546 31.3661C14.4264 31.3622 14.314 31.3519 14.2618 31.3358C14.0238 31.2632 13.6656 31.3178 13.4064 31.253C13.3031 31.2271 13.1024 31.2373 12.9909 31.2106C12.9037 31.1902 12.8802 31.1996 12.7749 31.191L11.4216 31.1242C11.2692 31.1246 11.1168 31.1242 10.9644 31.1242L10.6208 31.1195C10.4488 31.1403 10.5497 31.1117 10.4845 31.1925L10.5552 31.2424C10.5607 31.2451 10.5666 31.2479 10.5721 31.2506L10.7252 31.3029C10.7296 31.3048 10.7354 31.308 10.7394 31.3099L10.8682 31.3896C10.9161 31.4116 10.9024 31.4026 10.9463 31.4246L11.0041 31.456C11.008 31.4584 11.0135 31.4623 11.0174 31.4646L11.4891 31.7049C11.4946 31.7073 11.5009 31.7096 11.5064 31.712L12.1658 32.0344C12.2255 32.0677 12.1654 32.0304 12.2294 32.0791C12.4631 32.2566 12.7568 32.3194 13.0066 32.4702L14.0764 33.0014C14.1075 33.0203 14.1086 33.0262 14.1424 33.0474C14.2056 33.087 14.2437 33.0843 14.3062 33.1165C14.3517 33.1396 14.3729 33.1718 14.4472 33.2044L14.6647 33.3018C14.6691 33.3045 14.6738 33.3089 14.6785 33.3116L14.9613 33.4435C14.966 33.4459 14.9719 33.4486 14.9762 33.451C14.9805 33.4533 14.9864 33.4565 14.9911 33.4588L15.96 33.9288C16.002 33.952 15.9466 33.9269 16.0102 33.9524L16.2789 34.0686C16.284 34.071 16.2899 34.0737 16.2946 34.0761L16.5887 34.2143C16.707 34.2822 16.8346 34.3054 16.9618 34.3686L17.545 34.636C17.5717 34.6442 17.5776 34.6419 17.6008 34.6489L17.8266 34.7628C17.8616 34.7773 17.8251 34.7628 17.8738 34.7836L18.4275 34.9858C18.5485 35.0321 18.627 35.0887 18.7523 35.1209L19.5719 35.4629C19.6422 35.4888 19.6819 35.4817 19.7612 35.5053C19.7663 35.5068 19.7722 35.5092 19.7773 35.5108C19.8716 35.5414 19.9097 35.5775 20.0118 35.5999L20.2117 35.6694C20.2164 35.6714 20.2223 35.6741 20.227 35.6761L21.1385 35.978C21.3055 36.0349 21.5203 36.0789 21.6903 36.1555L22.0984 36.2784C22.1322 36.2866 22.1663 36.2937 22.1891 36.3004C22.1962 36.3027 22.2158 36.3094 22.2229 36.3113C22.2284 36.3133 22.2343 36.3153 22.2402 36.3172C22.2465 36.3188 22.2523 36.3208 22.2586 36.3227C22.4134 36.3683 22.5473 36.4323 22.7087 36.4688L23.6552 36.6899C23.6736 36.6926 23.7333 36.704 23.7459 36.7075C23.7514 36.7091 23.7569 36.7118 23.762 36.7134L24.2184 36.812C24.421 36.8485 24.5765 36.907 24.7918 36.9286C24.9296 36.9423 25.0195 37.0051 25.1586 37.0185C25.201 37.0224 25.2163 37.0173 25.2564 37.0275L25.7288 37.132C25.8019 37.1406 25.8855 37.1276 25.9562 37.1347C26.0532 37.1449 26.0175 37.1677 26.1408 37.1791L26.5551 37.2392C26.6337 37.2549 26.6938 37.2439 26.7715 37.2545C26.8112 37.2596 26.9043 37.2835 26.9526 37.2973C27.1073 37.3401 27.1784 37.3381 27.3783 37.3393C27.533 37.3401 27.6285 37.3927 27.764 37.406L28.4037 37.4547C28.4768 37.4582 28.5573 37.4492 28.6295 37.4555C28.7089 37.4626 28.7332 37.4771 28.8397 37.4779L29.5034 37.4999C29.6781 37.4991 29.7842 37.5242 29.9601 37.523C30.4931 37.5203 31.0287 37.5391 31.5617 37.5238C31.6607 37.5211 31.694 37.5022 31.7891 37.4995C32.2356 37.4853 32.6684 37.4849 33.0981 37.4335L33.4818 37.3997C33.545 37.3781 33.5053 37.399 33.5489 37.3632C33.5187 37.2945 33.5407 37.3389 33.4998 37.2953C33.4334 37.2246 33.3463 37.214 33.2795 37.152C33.276 37.1488 33.2712 37.1437 33.2677 37.1406L32.4713 36.4095L32.1524 35.9533C32.1496 35.9489 32.1461 35.9434 32.1437 35.9391L31.8786 35.4354C31.8645 35.391 31.8672 35.3922 31.8507 35.3639C31.7816 35.2465 31.8174 35.3674 31.7777 35.2383L31.4985 34.1719C31.4847 34.1087 31.4859 34.0427 31.4737 33.9893C31.447 33.8743 31.4604 33.7372 31.4329 33.6391C31.385 33.4679 31.3999 33.4742 31.4003 33.2723C31.4003 33.0238 31.3775 32.7576 31.4128 32.5145C31.4325 32.3779 31.4462 32.2947 31.4454 32.1514L31.6819 30.7536C31.6838 30.7457 31.6976 30.6829 31.7031 30.6578L31.8378 30.2035C31.8401 30.198 31.8425 30.1921 31.8445 30.1862C31.8464 30.1799 31.848 30.174 31.8499 30.1678C31.8719 30.092 31.8496 30.1709 31.8594 30.1293C31.9175 29.8862 31.9587 29.6828 32.0467 29.4524L32.1657 29.1614C32.1681 29.1563 32.1708 29.1504 32.1728 29.1449L32.2784 28.8842C32.2808 28.8779 32.2823 28.8717 32.2843 28.8654L32.6786 27.9175C32.7006 27.881 32.6825 27.9152 32.7132 27.8602L33.382 26.5877C33.4032 26.5575 33.3934 26.5732 33.4166 26.5276C33.4256 26.5096 33.4311 26.4966 33.4456 26.4644L33.633 26.1519C33.6549 26.1138 33.6479 26.1263 33.6659 26.0922C33.6683 26.0875 33.6711 26.0816 33.6734 26.0769L34.4011 24.9798C34.4365 24.9323 34.4471 24.9162 34.4809 24.8797L34.5696 24.7584C34.572 24.7545 34.5755 24.7486 34.5783 24.745L35.0063 24.1698C35.1324 24.0371 35.2377 23.862 35.3614 23.7246C35.3645 23.721 35.3692 23.7163 35.3724 23.7128C35.3948 23.6892 35.4065 23.681 35.4293 23.6566L35.9689 23.028C36.1684 22.7756 36.6896 22.2604 36.9264 22.0229L37.7256 21.271C37.7731 21.2317 37.7932 21.2239 37.8415 21.1795C37.8415 21.1795 37.8863 21.1343 37.8866 21.1336C37.944 21.0515 37.9039 21.1379 37.9377 21.0232C37.8376 21.0248 37.7409 21.0421 37.6691 21.0633C37.5426 21.1014 36.4987 21.2074 36.3841 21.2062L36.1036 21.2353C36.0066 21.2659 35.9367 21.2466 35.8327 21.2517C35.7353 21.2565 35.6924 21.2753 35.5844 21.2753L34.7377 21.3036C34.3509 21.355 31.7985 21.3205 31.286 21.3205L29.8906 21.2985C29.7795 21.2969 29.7327 21.2749 29.618 21.2737C29.4346 21.2714 29.2041 21.2887 29.0274 21.2733L28.4744 21.2517C28.2651 21.2517 27.7302 21.2749 27.5322 21.2219C27.5271 21.2207 27.5216 21.218 27.5169 21.2164C27.5122 21.2144 27.5067 21.2113 27.5016 21.2093C27.3838 21.1681 27.2357 21.1881 27.103 21.1838C26.993 21.1807 26.9585 21.1599 26.8289 21.1595C26.6325 21.1595 25.4032 21.141 25.1723 21.1084C25.0093 21.0853 24.7882 21.0919 24.5883 21.0919C24.1324 21.0919 23.9674 21.0476 23.4898 21.0468L22.3957 20.9773C22.0807 20.9624 21.0027 20.9353 20.7607 20.9019C20.6249 20.8831 20.3672 20.8473 20.2243 20.8403C20.1359 20.8359 20.0361 20.8414 19.947 20.841L18.5787 20.7731C18.4845 20.7657 18.3745 20.7739 18.2783 20.7727C18.0528 20.77 17.7359 20.7256 17.4563 20.726C16.9304 20.7268 16.0821 20.6624 15.5382 20.6345L14.6903 20.6117C14.2826 20.6133 13.9366 20.596 13.5726 20.5674C13.3994 20.5536 13.1763 20.567 12.9976 20.567C12.8374 20.5666 12.6029 20.4873 12.4588 20.5713C12.3205 20.6514 12.1536 20.9141 12.0535 21.0389C12.0507 21.0425 12.0464 21.048 12.0432 21.0511C12.0405 21.0546 12.0358 21.0594 12.0326 21.0629C12.0299 21.0664 12.0248 21.0707 12.0216 21.0743C12.0169 21.0794 11.9914 21.1057 11.9871 21.1108C11.9502 21.1544 11.9486 21.1654 11.9207 21.2062L11.8618 21.2808C11.8575 21.2863 11.8339 21.3146 11.83 21.3197L11.5547 21.708C11.5519 21.7119 11.548 21.7174 11.5453 21.7217L11.3956 21.9601C11.3925 21.9644 11.3713 21.9934 11.367 21.9985C11.279 22.1077 11.2381 22.2235 11.1498 22.3315L10.6809 23.1651C10.6781 23.169 10.6738 23.1741 10.671 23.178L10.6416 23.22C10.6388 23.2247 10.6286 23.2424 10.6168 23.266L10.499 23.5169C10.49 23.5404 10.4739 23.5864 10.4613 23.6107L10.4358 23.6547C10.4252 23.6735 10.4044 23.714 10.4032 23.7159C10.3977 23.7269 10.3891 23.7458 10.3816 23.7631C10.3741 23.7803 10.3663 23.8027 10.362 23.8133C10.347 23.8518 10.3349 23.8793 10.3137 23.9217C10.1825 24.182 10.2316 24.0265 10.1287 24.312C10.1283 24.3124 10.1122 24.3489 10.1083 24.3575L9.99515 24.6108C9.91817 24.7839 9.83295 24.9249 9.78621 25.1153L9.48067 25.9748L9.26231 26.9018C9.25524 26.9493 9.24464 27.1166 9.23403 27.1696C9.214 27.2689 9.19005 27.3211 9.18219 27.4197C9.17983 27.4487 9.17709 27.5316 9.17787 27.5595C9.17787 27.5626 9.18376 27.629 9.18376 27.6294C9.20183 27.7004 9.19201 27.6765 9.22735 27.7189Z" fill="white" fill-opacity="0.7"/>
<path fill-rule="evenodd" clip-rule="evenodd" d="M3.76367 36.3807L3.96475 36.5476C4.23338 36.7832 4.44703 37.071 4.71958 37.3003C4.92341 37.4715 5.11114 37.7012 5.31379 37.8716C5.46421 37.998 5.56278 38.0993 5.70102 38.2375L6.87804 39.3687C7.03474 39.525 7.17888 39.6946 7.34815 39.8371C7.55433 40.0103 7.72281 40.2282 7.93293 40.3958C8.19409 40.6051 8.91986 41.3511 9.20931 41.6315L9.88167 42.2833C9.95825 42.3641 9.92762 42.3512 10.0498 42.3681C10.0337 42.2432 9.98731 42.2036 9.9068 42.1223C9.842 42.0563 9.79762 42.0009 9.7395 41.9271C9.66684 41.8356 9.56316 41.7312 9.49914 41.6217C9.34244 41.3515 9.10405 41.0496 8.94068 40.7634L8.25614 39.3243C8.22158 39.2513 8.19331 39.2238 8.17524 39.1394L7.87127 38.2748C7.8697 38.2685 7.86813 38.2626 7.86655 38.256L7.77662 38.0015C7.76326 37.9639 7.77033 37.9851 7.76012 37.932L7.69257 37.6281C7.6749 37.5771 7.66155 37.5622 7.64073 37.4986C7.62188 37.4409 7.6152 37.3996 7.60578 37.3537C7.55197 37.0957 7.46675 36.8731 7.4424 36.6077C7.4208 36.3705 7.34461 36.2229 7.32772 35.9912C7.32262 35.921 7.31869 35.8978 7.30377 35.8271C7.28492 35.7356 7.29473 35.7879 7.28374 35.7521C7.24525 35.6257 7.25821 35.502 7.22875 35.3532C7.20598 35.235 7.18084 35.2134 7.15924 35.0595L7.03239 33.7752L7.42669 34.2491C7.45929 34.286 7.48482 34.3041 7.5182 34.3398L7.85202 34.7128C7.90858 34.7862 7.96631 34.8345 8.03268 34.9009L9.14058 35.9638C9.32477 36.151 9.53881 36.3179 9.74499 36.4816L9.92212 36.625C10.2194 36.8629 10.6204 37.1927 10.9362 37.3961L11.605 37.8476C11.6093 37.8508 11.6148 37.8543 11.6195 37.8571L12.0232 38.1138C12.0519 38.1343 12.0299 38.124 12.0759 38.1531L12.2479 38.2544C12.3017 38.2941 12.2938 38.2933 12.3563 38.331L12.447 38.38C12.4521 38.3824 12.458 38.3848 12.4631 38.3871L12.7113 38.5249C12.7152 38.5277 12.7211 38.5312 12.7251 38.5336L12.9116 38.647C13.0361 38.7075 13.2937 38.8866 13.41 38.8948L12.0103 38.4817C11.9683 38.459 11.9954 38.4645 11.9349 38.4409L11.2382 38.1998C11.2374 38.1994 11.1616 38.168 11.158 38.1665L10.4869 37.8767C10.3871 37.8311 10.4445 37.8347 10.3435 37.7919L9.64563 37.4165C9.62364 37.4063 9.57141 37.3851 9.56591 37.3824L9.14058 37.1028C9.03886 37.0337 8.95678 36.9748 8.86095 36.9033L8.41245 36.535C8.32291 36.4636 8.41363 36.5083 8.28992 36.4722L8.51574 37.2422C8.5181 37.2477 8.52045 37.2536 8.52281 37.2587L8.77769 37.9611C8.77966 37.967 8.78123 37.9733 8.78319 37.9792C8.78555 37.9851 8.78751 37.9909 8.78987 37.9964C8.81304 38.0573 8.79223 37.9976 8.81108 38.044C8.86724 38.1833 8.87863 38.2842 8.95521 38.4071L9.22109 39.0727C9.29964 39.2969 9.42649 39.4932 9.51878 39.7142C9.65467 40.0405 9.83493 40.3004 9.9661 40.5926L10.1699 40.964C10.261 41.0967 10.4134 41.4002 10.4994 41.5047C10.5509 41.5671 10.4967 41.4921 10.5395 41.5533L10.5646 41.5954C10.567 41.5997 10.5701 41.606 10.5721 41.6103L10.7818 41.9299C10.7995 41.9546 10.8183 41.977 10.8297 41.9943L11.0257 42.3013C11.0296 42.3068 11.0418 42.3237 11.0461 42.3292C11.0493 42.3331 11.054 42.3382 11.0571 42.3422L11.4282 42.8388C11.4876 42.9197 11.5472 42.9896 11.6113 43.0677L12.1854 43.7262C12.2522 43.8145 12.3123 43.8644 12.3873 43.9394L13.3475 44.8535C13.5659 45.0498 13.8094 45.2147 14.0344 45.4024C14.0863 45.4459 14.098 45.4491 14.1554 45.4895L15.7927 46.5281C15.8206 46.5449 15.8127 46.5406 15.8524 46.5618L16.8173 47.0397C16.9689 47.0938 17.1025 47.1802 17.2607 47.236L17.4858 47.3279C17.5513 47.3601 17.5635 47.3593 17.6393 47.3844C17.8141 47.4421 17.99 47.4924 18.1534 47.5756C18.318 47.6592 18.4719 47.6577 18.6192 47.726L18.8572 47.8108C18.9157 47.8324 18.8238 47.8073 18.9247 47.8363L19.9824 48.1265C20.0389 48.1445 20.1014 48.1575 20.1532 48.1665C20.2479 48.183 20.2384 48.185 20.3185 48.2038L22.2284 48.5627C22.4338 48.5878 22.3796 48.6071 22.6447 48.6071C22.5662 48.5093 22.4405 48.5003 22.3191 48.4642C22.076 48.3915 21.9378 48.3715 21.6919 48.2718L20.3822 47.7083C20.3284 47.6793 20.2977 47.6502 20.2412 47.6212L20.0507 47.5155C20.0444 47.512 20.026 47.503 20.0197 47.4994C19.7711 47.3636 19.2644 46.9478 19.0378 46.7495C18.9668 46.6875 18.9024 46.614 18.8332 46.5449C18.5838 46.2956 18.3773 46.0282 18.1703 45.7479C18.0509 45.5861 17.9731 45.4028 17.8718 45.2269C17.8263 45.1479 17.8333 45.1314 17.8047 45.0671L17.56 44.2896L17.5015 43.7164C17.5015 43.5707 17.5066 43.4635 17.5305 43.3414C17.5647 43.1655 17.6 42.9715 17.6731 42.8059C17.7992 42.5196 18.0431 42.1827 18.2752 42.0021L18.5948 41.7764C18.6208 41.7626 18.618 41.7646 18.6388 41.7532C18.6695 41.7363 18.6746 41.7344 18.7127 41.71L19.7078 41.368L20.0837 41.315C20.2812 41.3099 20.7176 41.2981 20.8951 41.3233C21.1343 41.357 21.3864 41.3727 21.6299 41.4312C21.6801 41.443 21.7347 41.4575 21.8019 41.4677L22.0517 41.5121C22.087 41.5208 22.1173 41.5251 22.1479 41.5321L22.4609 41.6299C22.5473 41.6491 22.5477 41.6436 22.6274 41.6668L23.1973 41.891C23.202 41.8934 23.2075 41.8969 23.2126 41.8993C23.2173 41.9016 23.2232 41.9048 23.2283 41.9071L23.4419 41.99C23.5177 42.028 23.4553 41.9947 23.5138 42.0312L23.9678 42.2609C24.0829 42.3394 24.2211 42.3842 24.3319 42.4674C24.3825 42.5059 24.3417 42.4819 24.3857 42.5082L24.465 42.5451C24.6971 42.661 24.8821 42.8306 25.0985 42.9609C25.159 42.9975 25.1625 43.0061 25.2202 43.043L27.1729 44.3367C27.1772 44.3391 27.1827 44.3426 27.187 44.3454C27.1914 44.3477 27.1969 44.3517 27.2008 44.354C27.2051 44.3568 27.2106 44.3607 27.2145 44.3631C27.2189 44.3658 27.2244 44.3697 27.2287 44.3725L27.3591 44.4483C27.4031 44.4765 27.4431 44.5017 27.4875 44.526L27.7848 44.6874C27.7895 44.6901 27.7954 44.6925 27.8005 44.6952L28.5384 45.0301C28.5436 45.0329 28.549 45.0356 28.5542 45.038C28.597 45.058 28.5907 45.0541 28.6386 45.071L28.7383 45.1075C28.7792 45.1224 28.7195 45.104 28.7914 45.1256C28.9449 45.1711 29.0832 45.2457 29.2458 45.2889L29.633 45.4055C30.2492 45.5685 30.8815 45.7263 31.537 45.7283C31.9458 45.7294 32.4041 45.6521 32.7804 45.4954L32.8133 45.4805C32.9767 45.4039 33.0745 45.3804 33.2399 45.2893L33.501 45.1613C33.6758 45.0706 33.8843 44.9665 34.0261 44.8346L34.1274 44.7596C34.2158 44.7133 34.2205 44.6834 34.2955 44.6281C34.2991 44.6257 34.3049 44.6222 34.3085 44.6195L34.3678 44.5869C34.5473 44.4808 34.808 44.2582 34.9596 44.1228L35.1855 43.9378C35.2719 43.8675 35.3351 43.8043 35.4168 43.736L36.3185 42.968C36.3609 42.9323 36.3817 42.9028 36.4218 42.8655L37.2226 42.182C37.2512 42.1576 37.2469 42.1643 37.2748 42.1427L38.3073 41.3005C38.3375 41.2742 38.3466 41.271 38.3733 41.2549C38.5194 41.1654 38.658 41.03 38.7994 40.9259L38.9254 40.8438C38.929 40.8407 38.9333 40.8356 38.9368 40.8325L39.5102 40.4265C39.5142 40.4237 39.5196 40.4198 39.524 40.4171L39.8869 40.1638C39.8908 40.1611 39.8967 40.1579 39.9006 40.1556C39.9049 40.1528 39.9112 40.1501 39.9155 40.1477L41.6129 39.0793C41.6188 39.0758 41.6357 39.0648 41.6416 39.0613C41.6459 39.0589 41.651 39.055 41.6553 39.0526L41.7496 39.0106C41.7979 38.9847 41.7508 39.011 41.8054 38.971L42.539 38.563C42.5429 38.5603 42.5484 38.5567 42.5523 38.5544L42.658 38.5022C42.6627 38.4998 42.6686 38.4967 42.6733 38.4943L42.7778 38.4401C42.7825 38.4378 42.7888 38.4354 42.7935 38.4331L44.7355 37.4962C44.7402 37.4939 44.7461 37.4907 44.7512 37.4884L45.089 37.3458C45.0937 37.3439 45.0996 37.3415 45.1047 37.3396L45.2563 37.2854C45.4252 37.2151 45.5116 37.2017 45.5493 37.0895C45.3887 37.0977 45.274 37.1629 45.1326 37.2088C45.1267 37.2108 45.1204 37.2127 45.1149 37.2147L44.507 37.4063C44.4697 37.42 44.5584 37.3847 44.4728 37.4204L42.6937 37.9485C42.6218 37.9721 42.6941 37.9497 42.6603 37.9611C42.6018 37.9811 42.5378 37.9894 42.4958 37.9984L42.2562 38.0581C42.1435 38.0915 42.1478 38.1138 42.0206 38.1394L41.4468 38.2819C41.2983 38.3494 41.1573 38.3388 41.0014 38.38C40.9319 38.3981 40.9158 38.4213 40.8561 38.4417L40.6601 38.4735C40.6535 38.4755 40.648 38.4778 40.6417 38.4798L39.6496 38.6918C39.5075 38.7126 39.48 38.7688 39.3296 38.7798L38.9635 38.8591C38.8053 38.9085 38.6038 38.8999 38.4416 38.9541C38.3328 38.9906 38.1361 38.9914 38.0116 39.0259L36.6759 39.2654C36.5078 39.3055 36.2957 39.3102 36.108 39.3326C35.8476 39.3636 35.641 39.4131 35.3759 39.4198C35.1858 39.4241 35.0209 39.4963 34.8481 39.5108C34.7593 39.5183 34.6973 39.5195 34.6333 39.5285L33.4798 39.6094C33.1931 39.6471 32.4587 39.651 32.3181 39.686C31.9615 39.7755 29.9817 39.7464 29.4559 39.7413C29.3031 39.7398 29.2434 39.6977 29.0926 39.6938C28.7957 39.6864 28.5553 39.6703 28.2675 39.6718C27.9764 39.6738 27.8036 39.6015 27.5138 39.6031C27.0547 39.6055 26.109 39.4877 25.6499 39.395C25.4135 39.3475 25.1492 39.3338 24.9041 39.2937L23.8539 39.0907C23.6568 39.031 23.4313 39.0377 23.2271 38.9659C23.103 38.9223 23.0394 38.9372 22.8442 38.8685L20.5471 38.2552C20.4391 38.2375 20.3712 38.1774 20.2494 38.1449L20.0912 38.0966C20.0236 38.0813 19.9682 38.073 19.916 38.0491L19.4553 37.8873C19.2118 37.8221 19.0221 37.6965 18.781 37.6262L18.4802 37.5178C18.4747 37.5155 18.4684 37.5135 18.4629 37.5115C18.4574 37.5096 18.4511 37.5076 18.4456 37.5056L17.7591 37.2131C17.6888 37.1774 17.7654 37.2116 17.6778 37.1766C17.6326 37.1589 17.5702 37.1338 17.5207 37.1087L17.4602 37.0773C17.4551 37.0749 17.4492 37.0722 17.4441 37.0698C17.439 37.0675 17.4331 37.0651 17.4276 37.0627L17.2285 36.9866C17.0549 36.9234 16.6477 36.7514 16.5251 36.6678L14.8603 35.813C14.8085 35.7863 14.7834 35.7663 14.7355 35.7364C14.6514 35.6846 14.5678 35.6418 14.4755 35.5849C14.448 35.568 14.4535 35.5711 14.4138 35.5527L13.7481 35.1687C13.7438 35.1663 13.7383 35.1628 13.734 35.1604L13.428 34.9641C13.388 34.9366 13.3554 34.9099 13.3024 34.882L12.6029 34.4415C12.5974 34.4376 12.5825 34.4258 12.577 34.4219L12.0382 34.0457C11.9977 34.0171 11.958 33.999 11.9078 33.9692L10.3635 32.8191C10.3596 32.816 10.3541 32.8121 10.3502 32.8089L9.87263 32.4406C9.8691 32.4379 9.8636 32.434 9.86006 32.4312L8.87823 31.5874C8.82443 31.5356 8.81618 31.5376 8.76316 31.4936L8.54559 31.3008C8.50239 31.2627 8.47608 31.2278 8.43287 31.1869C8.38025 31.1382 8.3665 31.1382 8.31702 31.0951L6.02228 28.8221C5.95669 28.7428 5.95669 28.7408 5.84398 28.7251C5.84398 29.1366 5.8428 29.5485 5.84437 29.9599L5.75483 31.0731L5.58792 31.949C5.54668 32.0323 5.56475 31.9553 5.54668 32.0798C5.53254 32.1791 5.51644 32.2306 5.49602 32.322L5.19322 33.3614C5.19322 33.3614 5.17476 33.3963 5.17005 33.4061L5.06794 33.6963C5.04595 33.754 5.04202 33.756 5.01806 33.8023C5.0157 33.807 5.01256 33.8129 5.01021 33.8176L4.89003 34.1333C4.86215 34.189 4.86293 34.1623 4.83623 34.2142L4.70937 34.5467C4.62219 34.7434 4.51261 34.8981 4.43328 35.0949L3.90977 36.0517C3.83122 36.1679 3.76603 36.2127 3.76367 36.3807Z" fill="white"/>
<path fill-rule="evenodd" clip-rule="evenodd" d="M26.2114 10.7623C24.99 10.7623 23.6971 10.8357 22.4879 10.7407C22.4172 10.7352 22.3296 10.7395 22.257 10.7395C21.3859 10.7407 20.5058 10.6932 19.6284 10.6939C19.4524 10.6939 19.3374 10.6743 19.1956 10.67C19.0526 10.6661 18.9038 10.672 18.7597 10.67C18.5158 10.6672 18.5602 10.6735 18.4337 10.8023L17.8049 11.5C17.8006 11.5051 17.788 11.5212 17.7841 11.5267C17.7629 11.5577 17.7786 11.5369 17.7578 11.5731L16.9122 12.7851C16.9091 12.7918 16.8942 12.8268 16.891 12.833C16.8388 12.9371 16.7697 12.9979 16.721 13.0961L16.6884 13.1817C16.6574 13.2583 16.4901 13.4817 16.4414 13.5955L16.3974 13.6831C16.3946 13.687 16.3895 13.6913 16.3868 13.6953C16.3565 13.7369 16.3824 13.6886 16.3569 13.7373C16.3542 13.7428 16.3514 13.7487 16.3491 13.7546L16.1358 14.1794C16.0683 14.3176 15.9728 14.5021 15.9709 14.6242C16.0922 14.5924 16.0683 14.6113 16.1496 14.5277C16.4127 14.2571 16.8785 13.8939 17.1813 13.6682L17.6113 13.3635C17.6793 13.3062 17.7382 13.2956 17.8136 13.2496L18.1262 13.0356C18.1301 13.0333 18.1356 13.0297 18.1399 13.0274C18.1439 13.025 18.1497 13.0215 18.1541 13.0195C18.1584 13.0172 18.1643 13.014 18.1686 13.0121C18.1733 13.0097 18.1792 13.007 18.1839 13.0046L18.7573 12.7094C18.7636 12.7062 18.7817 12.696 18.7879 12.6925L19.9932 12.2405C20.126 12.2197 20.2748 12.2017 20.4512 12.2017C20.6 12.2021 20.8086 12.1758 20.9499 12.2374L21.1282 12.3124C21.272 12.3701 21.3933 12.506 21.4715 12.6383C21.5284 12.7341 21.5308 12.9084 21.5265 13.0706C21.5194 13.3215 21.3666 13.506 21.2688 13.7129C21.261 13.7298 21.2535 13.7491 21.248 13.7589C21.2457 13.7628 21.2425 13.7687 21.2398 13.7726L20.9912 14.0926C20.9641 14.1225 20.9543 14.1338 20.926 14.1621L20.1499 14.8665L19.727 15.1543C19.7226 15.1574 19.7179 15.1622 19.714 15.1653L18.9093 15.6341C18.8661 15.6541 18.8944 15.6404 18.8626 15.6573L17.8332 16.1331C17.7225 16.2007 17.7939 16.1335 17.7539 16.247L19.0122 16.0986C19.1265 16.0609 19.0652 16.0794 19.1956 16.0601C19.3201 16.0421 19.8522 15.9447 19.9775 15.8976C20.1845 15.8194 20.8808 15.682 21.1624 15.5736C21.2912 15.5242 21.4 15.5289 21.5265 15.4802C21.596 15.4535 21.5422 15.4696 21.6046 15.4445L22.4199 15.2085C22.663 15.1198 22.905 15.0911 23.1426 14.9933C23.3609 14.903 23.5773 14.8853 23.7961 14.8276L24.1448 14.7185C24.5584 14.5936 24.5462 14.6525 24.7217 14.6105C24.9731 14.55 24.8875 14.5791 25.1145 14.55C25.1734 14.5426 25.2547 14.5163 25.3238 14.5112C25.6074 14.49 25.9388 14.4986 26.2106 14.5096L26.6241 14.5555C26.8339 14.5536 26.8649 14.5991 27.0016 14.6447C27.0734 14.6686 27.1296 14.6631 27.1979 14.6969L27.4269 14.7911C27.432 14.7931 27.4379 14.795 27.443 14.797L27.8082 15.02C27.928 15.117 28.0388 15.2269 28.1193 15.3624L28.2171 15.5391C28.2194 15.543 28.2237 15.5481 28.2257 15.5524C28.3062 15.7016 28.2768 15.9639 28.2245 16.0735L28.1432 16.2659C28.1409 16.2702 28.1381 16.2765 28.1358 16.2804L28.0996 16.333C28.0969 16.3369 28.0926 16.342 28.0898 16.346L28.0694 16.3719C28.0305 16.4229 28.0105 16.448 27.9661 16.4924L27.7159 16.7201C27.657 16.7684 27.6378 16.7661 27.5797 16.8128L27.2647 16.9966C27.26 16.9989 27.2545 17.0024 27.2502 17.0048C27.2454 17.0076 27.2399 17.0107 27.2352 17.013C27.2309 17.0154 27.225 17.0189 27.2207 17.0209C27.2183 17.0221 27.1492 17.0511 27.1433 17.0531L26.87 17.167C26.7985 17.1882 26.8617 17.1689 26.8166 17.1838C26.7797 17.1964 26.7781 17.1964 26.7314 17.2121C26.6744 17.2314 26.7149 17.216 26.6787 17.231C26.6151 17.2561 26.6709 17.2365 26.632 17.2522L26.5295 17.2832C26.5232 17.2851 26.5173 17.2871 26.511 17.2891L26.4604 17.3083C26.2715 17.37 25.6855 17.4995 25.5029 17.5042C25.0395 17.516 24.662 17.5953 24.1998 17.5953L21.3878 17.5945C21.2307 17.5949 21.1345 17.6181 20.9539 17.6173C20.8203 17.6173 20.3981 17.6888 20.1083 17.686L19.9006 17.7194C19.7513 17.7681 19.4187 17.7276 19.2404 17.7649C18.9223 17.8309 18.7899 17.816 18.4357 17.8977L17.4648 18.0928C17.3769 18.1136 17.3761 18.1234 17.2897 18.1458C17.2084 18.167 17.2582 18.1501 17.1986 18.1745L17.0312 18.233C16.9272 18.2667 17.0191 18.24 16.9484 18.2644C16.7783 18.3233 16.7929 18.2982 16.4975 18.4089C16.4096 18.4419 16.485 18.4203 16.4162 18.4371C16.3074 18.4635 16.329 18.4438 16.236 18.4941C16.1716 18.5286 16.1488 18.5475 16.0883 18.5695L15.899 18.6594C15.8947 18.6617 15.8888 18.6645 15.8841 18.6664L15.2852 18.9668C15.3602 19.0599 15.2836 19.0402 15.5593 19.0351C16.6256 19.0163 17.6934 19.0351 18.7597 19.0351C19.8907 19.0351 21.0108 19.087 22.189 19.0803L22.7369 19.1035C22.9348 19.1035 23.1351 19.0999 23.3323 19.1027C23.4379 19.1038 23.4764 19.1243 23.5812 19.127C23.6783 19.1298 23.7831 19.1266 23.8805 19.1262L24.4515 19.1494C24.8549 19.1494 25.1875 19.1655 25.5465 19.1938C25.9247 19.2236 26.3206 19.1761 26.6854 19.2197C26.978 19.2546 27.7423 19.2621 28.0871 19.2629C28.2025 19.2629 28.2489 19.2845 28.3588 19.2872C28.576 19.2923 28.7209 19.3163 28.9067 19.3308C29.0885 19.3449 29.2951 19.3214 29.4785 19.332C29.5806 19.3379 29.6242 19.3559 29.7558 19.3547C29.8752 19.354 29.9235 19.3724 30.0268 19.3779C30.3504 19.3944 30.8448 19.3681 31.152 19.4136C31.2435 19.4274 31.3291 19.4242 31.4237 19.4234C31.6492 19.4211 31.5522 19.4211 31.6759 19.456C31.8043 19.4926 32.1193 19.4698 32.2697 19.469C32.455 19.4678 32.6275 19.5008 32.7928 19.5138C32.9774 19.5283 33.2209 19.5149 33.4121 19.5149L32.719 18.9719L32.1951 18.4481C32.1919 18.445 32.1872 18.4403 32.1841 18.4368C32.1809 18.4336 32.1766 18.4285 32.1739 18.425L32.1122 18.3268C31.9779 18.1325 31.7332 17.7712 31.681 17.5356C31.5745 17.0519 31.584 16.9184 31.606 16.4316L31.7159 15.8179C31.7485 15.702 31.7713 15.5599 31.8227 15.4507L32.0203 15.0094C32.0226 15.0047 32.0262 14.9992 32.0285 14.9945L32.1444 14.7695C32.1864 14.6969 32.1766 14.656 32.2206 14.5944C32.309 14.4707 32.3082 14.4256 32.4122 14.2842C32.4488 14.2344 32.4224 14.2685 32.4558 14.2116L33.4773 12.8366C33.4801 12.8326 33.4848 12.8279 33.4879 12.8244L33.7797 12.4757C33.819 12.4263 33.8634 12.4074 33.9086 12.3532C34.2345 11.9649 34.6269 11.5731 35.0058 11.2366C35.214 11.0524 35.4194 10.8043 35.6389 10.6382C35.7803 10.531 35.9048 10.3845 36.0415 10.286C36.1043 10.2404 36.1479 10.2059 36.1778 10.145C36.0564 10.0469 35.8345 10.1552 35.7081 10.1886L34.1964 10.4109C34.1061 10.4266 33.9549 10.4258 33.8795 10.436C33.7683 10.4509 33.6882 10.4474 33.5881 10.4654C33.4781 10.4851 33.2641 10.4752 33.151 10.5145C33.0712 10.542 32.9566 10.5271 32.8631 10.5392C32.8313 10.5436 32.7347 10.5663 32.7107 10.5707C32.4279 10.6205 32.0509 10.5722 31.7721 10.6146C31.6617 10.6315 31.5891 10.6488 31.4701 10.6488C31.2415 10.6492 31.0483 10.6354 30.8499 10.6775C30.5939 10.7316 30.1375 10.646 29.8897 10.701C29.753 10.7316 29.8363 10.7407 29.5948 10.7395C29.3741 10.7383 29.1529 10.7399 28.9318 10.7395C28.697 10.7391 28.5375 10.7623 28.2917 10.7623H26.3257C26.3559 10.7737 26.3351 10.776 26.3806 10.7254L26.8841 10.2495C26.9265 10.2177 26.9246 10.2204 26.9599 10.1855L27.0043 10.1395C27.0075 10.1364 27.0122 10.1317 27.0157 10.1285L27.604 9.71589C27.6087 9.71353 27.6142 9.71039 27.6189 9.70803L28.7092 9.13321C28.7484 9.11908 28.7834 9.10534 28.8081 9.09316C28.9805 9.00796 29.2425 8.94318 29.3226 8.89488L29.4624 8.83559C29.4683 8.83363 29.4742 8.83167 29.4801 8.82931C29.4872 8.82696 29.5064 8.81871 29.5131 8.81596L29.9604 8.69385C30.2196 8.60708 30.4831 8.56978 30.7624 8.49164C30.8527 8.46612 30.8994 8.46573 30.9925 8.45277C31.1433 8.43118 31.0824 8.40997 31.2168 8.40762C31.331 8.40566 31.3935 8.39074 31.465 8.3715C31.6594 8.31928 32.3133 8.27687 32.4763 8.24153C32.5022 8.23564 32.5238 8.22426 32.5308 8.2219C32.6659 8.17518 32.8368 8.18382 32.979 8.18028C33.2256 8.17439 33.4872 8.13395 33.7778 8.13395C34.0307 8.13395 34.3429 8.12845 34.5903 8.09508C34.6799 8.08291 34.7792 8.06956 34.8539 8.06524C35.2065 8.04561 35.6048 8.07427 35.9539 8.04364C36.1185 8.02951 36.3494 8.04247 36.521 8.04247C36.7366 8.04286 36.8698 8.01852 37.0693 8.01969C37.4353 8.02166 37.777 7.9981 38.167 7.99771C38.2891 7.99731 38.3233 7.97925 38.4199 7.97375C38.6744 7.95962 38.9913 7.98082 39.2364 7.91172C39.47 7.84575 39.7764 7.8595 40.0195 7.78175L40.3918 7.67771C40.4743 7.65886 40.4385 7.67496 40.5049 7.64512C40.5563 7.62234 40.5406 7.62509 40.6125 7.59525L40.825 7.51241C40.8309 7.51005 40.8371 7.50848 40.8426 7.50573L40.9051 7.47079C40.9518 7.42995 40.9561 7.41857 40.9781 7.33454C40.8748 7.30863 40.9915 7.33611 40.887 7.30156L40.3627 7.11506C40.3576 7.11349 40.3517 7.11113 40.347 7.10917L40.2983 7.08993C40.221 7.06087 40.2048 7.05341 40.1232 7.033C40.1165 7.03142 40.0427 7.01101 40.0383 7.00904C40.034 7.00747 40.0281 7.00394 40.0242 7.00198L38.5672 6.53474C38.562 6.53278 38.4996 6.50647 38.487 6.50176C38.3892 6.4621 38.3264 6.44325 38.2121 6.44325C38.2219 6.39928 38.2757 6.38868 38.3138 6.37062L38.7097 6.16802C38.7659 6.13268 38.7517 6.1366 38.8 6.09734C38.8036 6.09459 38.8087 6.09027 38.8122 6.08753L39.1303 5.87707C39.3711 5.69214 39.6 5.50407 39.807 5.27123L40.0815 4.92846C40.0858 4.92336 40.0996 4.90804 40.1039 4.90255L40.5575 4.02736C40.585 3.97121 40.5862 3.95433 40.605 3.88601C40.6196 3.833 40.6227 3.81141 40.638 3.76036C40.6679 3.66142 40.673 3.74387 40.6812 3.58643C40.5505 3.60488 40.5387 3.63708 40.4299 3.71953L40.0112 3.98652C39.9877 4.00184 40.0046 3.99202 39.9692 4.01087L39.7885 4.07879C39.615 4.14711 39.4622 4.24449 39.2874 4.30692L38.2298 4.59433C38.1363 4.61278 38.0381 4.62063 37.9352 4.64301C37.9184 4.64694 37.8127 4.67325 37.8076 4.67442L37.583 4.70623C37.4985 4.73253 37.5912 4.71447 37.5182 4.72625L37.0241 4.75217C36.7539 4.74981 36.6357 4.7985 36.3608 4.79771C35.9241 4.79653 35.419 4.82206 34.9913 4.79771L34.6708 4.77494C34.5613 4.76905 34.4922 4.7506 34.3488 4.75177L32.4307 4.61828C32.2202 4.5955 31.9618 4.62731 31.7454 4.61474C31.1912 4.58333 30.434 4.55585 29.8893 4.61631C29.8021 4.62574 29.8131 4.62888 29.7326 4.64733C29.4836 4.70426 29.4825 4.64772 29.0245 4.78633C28.8274 4.84601 28.6738 4.87899 28.4935 4.9689L28.1778 5.13577C28.1739 5.13813 28.168 5.14166 28.164 5.14402C27.9292 5.28105 27.7438 5.45067 27.5761 5.66191C27.5384 5.70981 27.562 5.67369 27.538 5.71923C27.4752 5.83938 27.2364 6.73734 27.1602 6.91992C27.1206 7.0165 27.1217 7.08836 27.0887 7.19476L26.9815 7.5929C26.9733 7.62627 26.9811 7.58465 26.9603 7.66082C26.9584 7.66828 26.9489 7.71618 26.9438 7.73817C26.9399 7.75506 26.9328 7.78215 26.9305 7.78882L26.9093 7.83476C26.8398 7.99221 26.859 8.1791 26.806 8.30278L26.7667 8.40605C26.7518 8.47083 26.7502 8.50185 26.7372 8.55878C26.7251 8.61179 26.7251 8.63692 26.7141 8.69935L26.6666 8.82735C26.6218 8.9471 26.61 9.12929 26.5821 9.24943C26.5668 9.315 26.5656 9.33149 26.5519 9.40452C26.535 9.49405 26.4973 9.56982 26.4741 9.66681L26.332 10.3688C26.3005 10.4788 26.2746 10.6409 26.2114 10.7623Z" fill="white" fill-opacity="0.5"/>
<path fill-rule="evenodd" clip-rule="evenodd" d="M75.1595 20.2588C75.1214 19.8466 75.156 18.4021 75.156 17.808C75.156 17.1735 75.0931 17.179 75.3021 17.179H82.0225C82.1604 17.179 82.1674 17.1672 82.1674 17.305C82.1678 18.2144 82.1894 19.3915 82.1643 20.2687L75.1595 20.2588ZM56.1465 28.1375C56.2651 28.1065 56.628 27.8807 56.7525 27.8128C56.7568 27.8104 56.7627 27.8069 56.7674 27.8045L58.6474 26.7346C58.6529 26.7307 58.6686 26.7185 58.6741 26.7142L59.4313 26.2846C59.4353 26.2819 59.4408 26.2784 59.4451 26.2756L59.6438 26.172V17.2135H67.3473C67.3532 17.2092 67.3614 17.1951 67.3645 17.1998L69.7645 14.8082C69.9043 14.6704 69.8992 14.7199 69.9075 14.5628H56.1406L56.1465 28.1375ZM87.4175 26.1492H91.0031L91.0467 26.0714C91.0495 26.0671 91.0534 26.0616 91.0562 26.0573L91.582 25.0961C91.5848 25.0918 91.5883 25.0859 91.5907 25.0816L91.6951 24.9124C91.6979 24.9077 91.7006 24.9014 91.7034 24.8967L92.3164 23.7729C92.331 23.7443 92.3396 23.718 92.351 23.6928L92.4641 23.4875C92.4665 23.4832 92.4696 23.4773 92.472 23.4726L92.5591 23.3293C92.5843 23.2794 92.6027 23.2386 92.6291 23.1962L93.4703 21.6582C93.499 21.6036 93.4703 21.6539 93.5029 21.6013L93.5987 21.421C93.6019 21.4152 93.6113 21.3975 93.6144 21.3912L94.0951 20.5239C94.0979 20.5192 94.1006 20.5133 94.103 20.5086L94.6524 19.5034C94.6721 19.4681 94.6988 19.4319 94.7204 19.3884C94.7522 19.3244 94.7569 19.311 94.7887 19.2513L95.1206 18.6482C95.1378 18.62 95.1327 18.6294 95.1543 18.5897L95.3263 18.2878C95.3507 18.4048 95.4065 18.4786 95.4646 18.5768C95.4677 18.5827 95.4783 18.5999 95.4819 18.6062C95.4842 18.6105 95.4878 18.6164 95.4901 18.6208L96.0392 19.6463C96.0415 19.6514 96.0443 19.6577 96.0466 19.6628C96.049 19.6679 96.0517 19.6738 96.0545 19.6785L96.7253 20.8816C96.7276 20.8863 96.7308 20.8922 96.7331 20.8969L96.9138 21.2165C96.9581 21.3131 96.9966 21.383 97.0363 21.4611L97.0917 21.5479C97.0944 21.5518 97.0991 21.5565 97.1023 21.56C97.1046 21.5636 97.1094 21.5687 97.1117 21.5722L97.8131 22.8565C97.8155 22.8612 97.819 22.8667 97.8214 22.8714C97.9651 23.1451 98.1053 23.4215 98.2711 23.6795C98.2738 23.6834 98.2773 23.6893 98.2797 23.6932L98.6987 24.4852C98.7011 24.4895 98.7042 24.4958 98.7066 24.5005L99.2529 25.508C99.256 25.5143 99.2823 25.5618 99.2855 25.5677C99.2878 25.5724 99.2906 25.5783 99.2933 25.583C99.2957 25.5873 99.2984 25.5936 99.3012 25.5979L99.3927 25.7546C99.4363 25.8476 99.547 26.084 99.624 26.1264L99.6684 26.1398C99.6751 26.1409 99.6829 26.1433 99.6908 26.1449C99.699 26.146 99.7049 26.1472 99.714 26.148L103.19 26.1492C103.187 25.9725 103.093 25.8739 103.018 25.7338L102.012 23.8829C102.009 23.8786 102.006 23.8727 102.004 23.868L100.436 20.9797C100.428 20.9652 100.423 20.9562 100.412 20.935L100.336 20.803C100.333 20.7991 100.329 20.7936 100.326 20.7897L100.197 20.5317C100.155 20.4634 100.131 20.4269 100.092 20.3421L99.8542 19.8921C99.8369 19.8619 99.8208 19.8364 99.8023 19.8061L99.6499 19.5258C99.6468 19.5191 99.6366 19.501 99.6331 19.4948L99.4976 19.2447C99.4952 19.2396 99.4925 19.2337 99.4901 19.229L99.4135 19.0978C99.3715 19.0291 99.344 18.971 99.3114 18.905L98.7769 17.9321C98.762 17.8967 98.7506 17.8724 98.7317 17.8386C98.7294 17.8339 98.7258 17.8284 98.7231 17.8237C98.7207 17.8194 98.7168 17.8139 98.7145 17.8096L98.6618 17.7028C98.6363 17.6509 98.6606 17.7 98.6383 17.6576L98.2404 16.9352C98.2008 16.8649 98.1748 16.824 98.1438 16.7593L97.7271 15.9854C97.7244 15.9811 97.7204 15.9756 97.7181 15.9712L97.466 15.4918C97.4495 15.4632 97.4286 15.4321 97.4137 15.407L97.16 14.9527C97.1573 14.9484 97.1541 14.9425 97.1514 14.9382C97.149 14.9335 97.1459 14.928 97.1431 14.9233C97.1408 14.919 97.1376 14.9131 97.1353 14.9084C97.1325 14.904 97.1298 14.8982 97.1274 14.8938L97.1125 14.8636C97.061 14.7588 97.0159 14.5935 96.9051 14.5727L93.658 14.5628L93.5657 14.7537C93.5535 14.7812 93.561 14.7639 93.5449 14.8016L93.4715 14.93C93.4577 14.95 93.4287 14.9979 93.4188 15.0156C93.4122 15.0285 93.4047 15.0411 93.3953 15.0627L92.4488 16.8095C92.446 16.8134 92.4417 16.8182 92.4394 16.8221C92.329 16.9862 92.254 17.1656 92.1562 17.3419L91.5137 18.5257C91.5109 18.5301 91.5074 18.5356 91.5047 18.5399L91.2301 19.0668C91.1975 19.1245 91.1649 19.1712 91.1249 19.2337C91.0825 19.3 91.0624 19.3518 91.0326 19.4186C91.0302 19.4237 91.0279 19.4296 91.0255 19.4343L90.9721 19.5407C90.9698 19.545 90.9662 19.5505 90.9639 19.5548C90.9611 19.5592 90.9576 19.5647 90.9552 19.5686L90.4777 20.4402C90.4753 20.4446 90.4722 20.4504 90.4698 20.4552C90.4675 20.4595 90.4643 20.4654 90.4616 20.4701C90.4592 20.4748 90.4565 20.4807 90.4537 20.485L89.8595 21.5816C89.8571 21.5863 89.8544 21.5922 89.852 21.5966C89.8497 21.6013 89.8461 21.6072 89.8438 21.6115L89.2724 22.6645C89.27 22.6692 89.2677 22.6751 89.2653 22.6802L88.7383 23.6367C88.7355 23.6414 88.7324 23.6469 88.7296 23.6516L88.146 24.7361C88.1433 24.7408 88.1405 24.7467 88.1378 24.7514L87.4909 25.9533C87.489 25.9572 87.485 25.9631 87.4827 25.9666C87.4587 26.0051 87.4222 26.0581 87.4175 26.1492ZM147.445 14.5628V19.1563H140.632V14.6543C140.632 14.5134 140.533 14.5628 140.244 14.5628L137.225 14.5621C137.178 14.566 137.231 14.5585 137.18 14.5676C137.104 14.5805 137.105 14.5848 137.094 14.6528C137.089 14.6838 137.088 14.7136 137.088 14.745L137.09 17.4652C137.09 17.8665 137.07 25.967 137.099 26.1048C137.108 26.1441 137.108 26.1531 137.157 26.1625L140.632 26.172V21.5785H147.445V26.172H150.963L150.965 12.5518C150.956 12.5545 150.944 12.5498 150.938 12.5616L150.829 12.6201C150.824 12.624 150.81 12.635 150.805 12.6385L150.01 13.0999C149.907 13.169 149.895 13.1505 149.748 13.2522L149.474 13.4089C149.461 13.416 149.429 13.4289 149.412 13.4372L148.983 13.6912C148.803 13.7674 148.878 13.7568 148.767 13.8223L148.676 13.8659C148.67 13.8687 148.665 13.871 148.659 13.8738C148.615 13.8965 148.582 13.9228 148.547 13.9464L147.445 14.5628ZM104.95 14.5856C104.896 14.716 104.927 17.3498 104.927 17.4652L104.932 26.0824C104.949 26.1822 104.995 26.1747 105.179 26.1727L115.374 26.172C115.9 26.172 115.729 26.2187 116.066 25.8798L117.082 24.8641C117.086 24.8609 117.09 24.8558 117.094 24.8527L118.087 23.8585C118.111 23.8354 118.117 23.8291 118.145 23.8012C118.286 23.6606 118.302 23.6893 118.322 23.544H108.449L108.447 21.5785H114.682C114.793 21.5785 114.82 21.4956 114.87 21.4403L115.42 20.8929C115.566 20.7441 115.519 20.8203 115.679 20.6256C115.682 20.622 115.686 20.6165 115.689 20.613L116.568 19.7335C116.571 19.73 116.576 19.7252 116.579 19.7221L116.795 19.5058C116.914 19.3876 117.055 19.2784 117.088 19.1563H108.468L108.47 17.2135H116.157C116.248 17.2135 116.403 17.0184 116.511 16.9108C116.618 16.804 116.733 16.7015 116.831 16.5904C116.893 16.5205 116.907 16.4899 116.979 16.4196L118.683 14.7203C118.759 14.6445 118.74 14.6842 118.757 14.5628H105.384C105.316 14.5628 105.247 14.5632 105.179 14.5625L104.995 14.5727C104.986 14.5742 104.979 14.5774 104.972 14.5789C104.966 14.5805 104.957 14.5829 104.95 14.5856ZM124.007 17.1578L131.861 17.1617C131.915 17.4177 131.871 18.4339 131.871 18.7676V23.1785C131.871 23.2476 131.873 23.3167 131.873 23.3854L131.858 23.5268C131.857 23.5236 131.854 23.5374 131.851 23.5421C131.843 23.5456 124.523 23.6033 123.996 23.5535L124.007 17.1578ZM123.1 14.5856C123.029 14.6225 120.893 16.7856 120.625 17.0482C120.436 17.2344 120.494 17.2249 120.494 17.7621C120.494 18.4307 120.473 23.4278 120.505 23.5232C120.528 23.5908 122.141 25.1798 122.569 25.6062L122.672 25.7098C122.711 25.7491 122.735 25.7726 122.774 25.8123L122.944 25.9878C123.181 26.2045 123.04 26.1492 123.694 26.1492L132.705 26.1476C132.851 26.1248 133.597 25.3105 133.804 25.104L135.244 23.6642C135.361 23.5487 135.378 23.5837 135.376 23.3615C135.367 22.3979 135.41 17.3384 135.36 17.1927C135.323 17.084 132.948 14.7541 132.889 14.6944C132.703 14.5043 132.712 14.5628 132.175 14.5628H123.534C123.466 14.5628 123.397 14.5632 123.329 14.5625L123.144 14.5727C123.137 14.5742 123.129 14.5774 123.122 14.5789C123.116 14.5805 123.107 14.5821 123.1 14.5856ZM71.6677 26.1492L71.7577 26.1712C71.7871 26.1743 71.8421 26.1731 71.8735 26.1727C71.9497 26.1723 72.0259 26.172 72.1021 26.172H75.1878V22.8585H82.1372V26.172L82.4039 26.3212C82.4082 26.3239 82.4137 26.3274 82.4176 26.3302L83.2423 26.7888C83.2852 26.8116 83.2993 26.8277 83.337 26.8508L83.6798 27.0361C83.7368 27.0672 83.7203 27.0632 83.7784 27.0966L84.395 27.4398C84.3993 27.4425 84.4052 27.4457 84.4095 27.4484C84.4139 27.4508 84.4198 27.4543 84.4237 27.4571L84.9904 27.7833C84.9916 27.7841 85.036 27.8065 85.0363 27.8065L85.2524 27.9286C85.2563 27.9314 85.2614 27.9357 85.2653 27.9384C85.2692 27.9416 85.2743 27.9459 85.2783 27.9486L85.4291 28.0307C85.6113 28.121 85.532 28.1363 85.7028 28.1603C85.7028 24.6053 85.6844 21.0158 85.7028 17.4652C85.7032 17.4157 85.7067 17.3494 85.7044 17.3023C85.6954 17.1146 85.6117 17.1115 85.3541 16.8539C85.1094 16.6089 83.1351 14.6013 83.053 14.5742C82.9333 14.5342 74.9682 14.5691 74.4793 14.5621C74.2091 14.5585 74.2774 14.5695 74.2193 14.6249L73.2964 15.5511C72.8259 16.0219 72.1484 16.6697 71.7062 17.1374C71.6481 17.1986 71.6606 17.1649 71.6465 17.2548C71.6355 17.3258 71.6449 17.4978 71.6449 17.5795V25.8292C71.6445 25.9611 71.632 26.0094 71.6606 26.1272C71.6622 26.1335 71.665 26.1421 71.6677 26.1492Z" fill="white"/>
<path d="M59.7639 38.8918L57.6349 42.8488C57.4303 43.2297 57.1837 43.5179 56.8954 43.7134C56.6072 43.9085 56.2941 44.0059 55.956 44.0059C55.6941 44.0059 55.4227 43.949 55.1415 43.8347L55.4199 42.956C55.6202 43.018 55.7867 43.0491 55.9203 43.0491C56.0632 43.0491 56.1916 43.0145 56.3059 42.9454C56.4202 42.8763 56.5251 42.7679 56.6205 42.6203L56.6633 42.5634L54.6914 38.8918H55.9273L57.2563 41.5775L58.6282 38.8918H59.7639ZM65.3942 42.9489V44.9274H64.3224V43.8917H60.7929V44.9274H59.7211L59.7282 42.9489H59.9285C60.2285 42.9395 60.4402 42.7204 60.5643 42.2917C60.688 41.8633 60.7642 41.2512 60.7929 40.4561L60.8499 38.8918H64.6939V42.9489H65.3942ZM61.8144 40.5633C61.7908 41.1585 61.7406 41.6572 61.6644 42.0596C61.5882 42.4621 61.4715 42.7585 61.3145 42.9489H63.5507V39.8345H61.836L61.8144 40.5633ZM69.6023 42.8202H67.2801L66.8371 43.8917H65.6514L67.8806 38.8918H69.0234L71.2596 43.8917H70.0453L69.6023 42.8202ZM69.2378 41.9418L68.4449 40.0273L67.6516 41.9418H69.2378ZM74.0889 38.8918C74.5319 38.8918 74.9168 38.9656 75.2427 39.1133C75.5691 39.2609 75.8204 39.4702 75.9968 39.7419C76.1727 40.0132 76.2611 40.3348 76.2611 40.7062C76.2611 41.0725 76.1727 41.3929 75.9968 41.6666C75.8204 41.9406 75.5691 42.1499 75.2427 42.2952C74.9168 42.4405 74.5319 42.5131 74.0889 42.5131H73.0815V43.8917H71.9241V38.8918H74.0889ZM74.0249 41.5704C74.3724 41.5704 74.6367 41.4954 74.8178 41.3454C74.9988 41.1954 75.0892 40.9822 75.0892 40.7062C75.0892 40.4251 74.9988 40.2095 74.8178 40.0595C74.6367 39.9095 74.3724 39.8345 74.0249 39.8345H73.0815V41.5704H74.0249ZM79.4831 43.9776C78.9639 43.9776 78.4961 43.8657 78.0794 43.6419C77.6624 43.4181 77.3364 43.1095 77.1004 42.7169C76.8647 42.3239 76.7469 41.8821 76.7469 41.3917C76.7469 40.9013 76.8647 40.4596 77.1004 40.0666C77.3364 39.6739 77.6624 39.3657 78.0794 39.1415C78.4961 38.9177 78.9639 38.8062 79.4831 38.8062C80.0023 38.8062 80.4692 38.9177 80.8836 39.1415C81.2979 39.3657 81.6242 39.6739 81.8622 40.0666C82.1006 40.4596 82.2196 40.9013 82.2196 41.3917C82.2196 41.8821 82.1006 42.3239 81.8622 42.7169C81.6242 43.1095 81.2979 43.4181 80.8836 43.6419C80.4692 43.8657 80.0023 43.9776 79.4831 43.9776ZM79.4831 42.9917C79.7784 42.9917 80.0451 42.9238 80.2835 42.7883C80.5215 42.6525 80.7084 42.4632 80.8443 42.2202C80.9802 41.9776 81.0477 41.7011 81.0477 41.3917C81.0477 41.0823 80.9802 40.8059 80.8443 40.5633C80.7084 40.3202 80.5215 40.131 80.2835 39.9951C80.0451 39.8597 79.7784 39.7917 79.4831 39.7917C79.1877 39.7917 78.9211 39.8597 78.6831 39.9951C78.4447 40.131 78.2577 40.3202 78.1222 40.5633C77.9864 40.8059 77.9184 41.0823 77.9184 41.3917C77.9184 41.7011 77.9864 41.9776 78.1222 42.2202C78.2577 42.4632 78.4447 42.6525 78.6831 42.7883C78.9211 42.9238 79.1877 42.9917 79.4831 42.9917ZM87.6708 38.8918V43.8917H86.5208V39.8345H84.263V43.8917H83.1127V38.8918H87.6708ZM91.0789 38.8918C91.5219 38.8918 91.9064 38.9656 92.2327 39.1133C92.5591 39.2609 92.8105 39.4702 92.9864 39.7419C93.1627 40.0132 93.2507 40.3348 93.2507 40.7062C93.2507 41.0725 93.1627 41.3929 92.9864 41.6666C92.8105 41.9406 92.5591 42.1499 92.2327 42.2952C91.9064 42.4405 91.5219 42.5131 91.0789 42.5131H90.0715V43.8917H88.9142V38.8918H91.0789ZM91.0145 41.5704C91.3625 41.5704 91.6268 41.4954 91.8078 41.3454C91.9885 41.1954 92.0792 40.9822 92.0792 40.7062C92.0792 40.4251 91.9885 40.2095 91.8078 40.0595C91.6268 39.9095 91.3625 39.8345 91.0145 39.8345H90.0715V41.5704H91.0145ZM96.4731 43.9776C95.9539 43.9776 95.4861 43.8657 95.0691 43.6419C94.6524 43.4181 94.326 43.1095 94.0904 42.7169C93.8547 42.3239 93.7365 41.8821 93.7365 41.3917C93.7365 40.9013 93.8547 40.4596 94.0904 40.0666C94.326 39.6739 94.6524 39.3657 95.0691 39.1415C95.4861 38.9177 95.9539 38.8062 96.4731 38.8062C96.9923 38.8062 97.4592 38.9177 97.8736 39.1415C98.2879 39.3657 98.6143 39.6739 98.8523 40.0666C99.0903 40.4596 99.2097 40.9013 99.2097 41.3917C99.2097 41.8821 99.0903 42.3239 98.8523 42.7169C98.6143 43.1095 98.2879 43.4181 97.8736 43.6419C97.4592 43.8657 96.9923 43.9776 96.4731 43.9776ZM96.4731 42.9917C96.7684 42.9917 97.0351 42.9238 97.2735 42.7883C97.5115 42.6525 97.6984 42.4632 97.8343 42.2202C97.9698 41.9776 98.0377 41.7011 98.0377 41.3917C98.0377 41.0823 97.9698 40.8059 97.8343 40.5633C97.6984 40.3202 97.5115 40.131 97.2735 39.9951C97.0351 39.8597 96.7684 39.7917 96.4731 39.7917C96.1778 39.7917 95.9111 39.8597 95.6731 39.9951C95.4347 40.131 95.2478 40.3202 95.1119 40.5633C94.9764 40.8059 94.9084 41.0823 94.9084 41.3917C94.9084 41.7011 94.9764 41.9776 95.1119 42.2202C95.2478 42.4632 95.4347 42.6525 95.6731 42.7883C95.9111 42.9238 96.1778 42.9917 96.4731 42.9917ZM104.103 38.8918V43.8917H102.96V42.0918C102.527 42.2489 102.125 42.3274 101.753 42.3274C101.081 42.3274 100.567 42.1668 100.21 41.8452C99.8526 41.5241 99.6739 41.0607 99.6739 40.4561V38.8918H100.817V40.3273C100.817 40.6705 100.909 40.9288 101.092 41.1024C101.275 41.2763 101.541 41.3631 101.889 41.3631C102.27 41.3631 102.627 41.2893 102.96 41.1416V38.8918H104.103ZM109.934 38.8918V43.8917H108.776V41.8417H106.504V43.8917H105.347V38.8918H106.504V40.8633H108.776V38.8918H109.934ZM113.606 40.5346C114.216 40.5346 114.684 40.6705 115.01 40.9418C115.336 41.2131 115.499 41.6155 115.499 42.1487C115.499 42.7157 115.32 43.1476 114.96 43.4452C114.6 43.7428 114.094 43.8917 113.442 43.8917H111.184V38.8918H112.334V40.5346H113.606ZM113.377 43.0345C113.677 43.0345 113.912 42.9607 114.081 42.8131C114.25 42.6655 114.335 42.4515 114.335 42.1703C114.335 41.6513 114.015 41.3917 113.377 41.3917H112.334V43.0345H113.377ZM116.135 38.8918H117.285V43.8917H116.135V38.8918ZM122.401 42.9631V43.8917H118.529V38.8918H122.308V39.8204H119.679V40.906H122.001V41.806H119.679V42.9631H122.401ZM127.295 41.8774H126.495V43.8917H125.344V38.8918H126.495V40.9131H127.323L128.638 38.8918H129.86L128.224 41.3061L129.91 43.8917H128.595L127.295 41.8774ZM134.325 42.9631V43.8917H130.453V38.8918H134.232V39.8204H131.603V40.906H133.925V41.806H131.603V42.9631H134.325ZM135.261 38.8918H136.411V42.1487L138.798 38.8918H139.884V43.8917H138.741V40.6418L136.354 43.8917H135.261V38.8918ZM137.569 38.5702C136.654 38.5702 136.193 38.2059 136.183 37.4775H136.976C136.985 37.825 137.183 37.999 137.569 37.999C137.76 37.999 137.905 37.955 138.005 37.8666C138.105 37.7787 138.157 37.6487 138.162 37.4775H138.955C138.95 37.8344 138.834 38.1062 138.605 38.2919C138.376 38.4776 138.031 38.5702 137.569 38.5702ZM143.492 43.9776C142.982 43.9776 142.521 43.8669 142.109 43.6455C141.697 43.424 141.373 43.1166 141.138 42.724C140.902 42.3309 140.784 41.8869 140.784 41.3917C140.784 40.8966 140.902 40.4526 141.138 40.0595C141.373 39.6669 141.697 39.3594 142.109 39.138C142.521 38.9169 142.984 38.8062 143.499 38.8062C143.933 38.8062 144.324 38.8824 144.674 39.0347C145.024 39.1871 145.318 39.4062 145.556 39.6916L144.813 40.3776C144.475 39.9869 144.056 39.7917 143.556 39.7917C143.246 39.7917 142.97 39.8597 142.727 39.9951C142.485 40.131 142.295 40.3202 142.159 40.5633C142.023 40.8059 141.956 41.0823 141.956 41.3917C141.956 41.7011 142.023 41.9776 142.159 42.2202C142.295 42.4632 142.485 42.6525 142.727 42.7883C142.97 42.9238 143.246 42.9917 143.556 42.9917C144.056 42.9917 144.475 42.7942 144.813 42.3989L145.556 43.0848C145.318 43.3749 145.023 43.5964 144.671 43.7487C144.318 43.9011 143.925 43.9776 143.492 43.9776ZM148.736 40.5346C149.346 40.5346 149.814 40.6705 150.14 40.9418C150.466 41.2131 150.629 41.6155 150.629 42.1487C150.629 42.7157 150.45 43.1476 150.09 43.4452C149.73 43.7428 149.224 43.8917 148.571 43.8917H146.314V38.8918H147.464V40.5346H148.736ZM148.507 43.0345C148.808 43.0345 149.042 42.9607 149.211 42.8131C149.38 42.6655 149.465 42.4515 149.465 42.1703C149.465 41.6513 149.146 41.3917 148.507 41.3917H147.464V43.0345H148.507ZM151.265 38.8918H152.416V43.8917H151.265V38.8918Z" fill="white"/>
<path fill-rule="evenodd" clip-rule="evenodd" d="M82.6504 33.5229H124.456V34.1873H82.6504V33.5229Z" fill="white" fill-opacity="0.7"/>
</svg>
