<svg width="198" height="66" viewBox="0 0 198 66" fill="none" xmlns="http://www.w3.org/2000/svg">
<path fill-rule="evenodd" clip-rule="evenodd" d="M11.7095 35.182L11.7758 35.1322C11.7812 35.1272 11.7877 35.1202 11.7927 35.1147L12.2687 34.5207C12.3256 34.4574 12.3191 34.4629 12.3724 34.3906L12.8201 33.8843C12.9148 33.7896 12.9502 33.7224 13.0508 33.6232C13.332 33.3461 13.5867 33.0371 13.8903 32.7815L14.3329 32.3554C14.3977 32.2991 14.3394 32.3514 14.3932 32.2956C14.4471 32.2398 14.472 32.2213 14.5313 32.178L15.7486 31.2212C15.8682 31.1384 15.777 31.1798 15.8717 31.11C15.8762 31.107 15.8836 31.1026 15.8881 31.0996L15.9425 31.0682C15.9818 31.0457 15.9709 31.0517 16.0157 31.0258C16.0501 31.0054 16.0681 30.9959 16.0895 30.9815C16.0945 30.9775 16.1015 30.9725 16.1065 30.9685L17.0421 30.3675C17.0964 30.3341 17.1328 30.3321 17.2026 30.2997C17.2808 30.2633 17.3088 30.2339 17.3651 30.1985C17.4164 30.1662 17.4603 30.1542 17.5246 30.1343C17.6896 30.0824 17.7215 30.0067 17.8416 29.9568L17.9807 29.9235C18.0804 29.8936 17.9882 29.9274 18.0495 29.897L18.2404 29.8073C18.2484 29.8054 18.2564 29.8039 18.2648 29.8014L18.6143 29.6544C18.6855 29.6259 18.6526 29.6374 18.7174 29.6135C18.9736 29.5173 19.2329 29.4819 19.4926 29.4032C19.9168 29.2751 20.7293 29.1655 21.2197 29.2083C21.31 29.2163 21.313 29.2308 21.4261 29.2357L22.3707 29.4715C22.5841 29.5278 22.2411 29.3922 22.4485 29.5019C22.4699 29.5133 22.5003 29.5347 22.5198 29.5462L22.7635 29.6793C22.778 29.6877 22.8079 29.7057 22.8298 29.7241L23.4898 30.501C23.5964 30.7293 23.6637 31.2511 23.6224 31.5371C23.6029 31.6702 23.565 31.8022 23.5386 31.9458C23.5082 32.1152 23.4559 32.2353 23.3796 32.3833L22.6583 33.6048C22.6184 33.6566 22.6528 33.6142 22.609 33.668L22.2252 34.123C22.1688 34.1808 22.2287 34.1176 22.1703 34.1878L20.9177 35.336C20.8643 35.3784 20.8255 35.4093 20.7731 35.4521L20.1565 35.9051C20.1176 35.928 20.1251 35.9236 20.0852 35.952C20.0254 35.9953 20.0678 35.9619 20.0189 36.0023C20.0125 36.0078 19.993 36.0247 19.9865 36.0307L19.8041 36.1593C19.6172 36.2575 19.4841 36.388 19.3011 36.4992L18.9398 36.7244C18.9353 36.7279 18.9288 36.7339 18.9243 36.7379C18.8824 36.7722 18.8286 36.7957 18.7618 36.8246C18.7533 36.8281 18.7264 36.839 18.7184 36.843L18.6626 36.8814C18.6571 36.8854 18.6516 36.8914 18.6467 36.8953L18.4403 37.01C18.4488 37.0194 18.4622 37.0174 18.4697 37.0344C18.52 37.1475 19.1805 36.9442 19.4312 36.9242C19.6187 36.9093 19.665 36.8575 19.9158 36.8236L23.2864 36.3711C23.7699 36.3511 24.1802 36.2844 24.6781 36.2844H26.4482C26.8011 36.2824 27.2029 36.3207 27.5513 36.3631C27.6575 36.3761 27.7068 36.3626 27.8095 36.3895C28.0528 36.4543 28.3244 36.4334 28.5712 36.4987C28.9689 36.6043 29.3862 36.6262 29.7755 36.7698L30.6343 37.0902C30.7196 37.154 30.7854 37.1435 30.8676 37.1849C31.0167 37.2596 31.1587 37.3757 31.2903 37.4814L31.4174 37.5826C31.4214 37.5865 31.4274 37.5925 31.4319 37.5965L31.7843 38.1273C31.8292 38.2927 31.8396 38.4766 31.7763 38.6351C31.7499 38.7004 31.7624 38.6824 31.734 38.7347L31.0989 39.3328L30.749 39.5002C30.7405 39.5042 30.7161 39.5152 30.7081 39.5191C30.6867 39.5296 30.6588 39.5461 30.6513 39.55L30.1129 39.7613C30.0451 39.7853 30.0596 39.7778 30.0033 39.7917L29.6469 39.9338C29.4963 39.9851 29.3752 39.9706 29.2062 40.012L28.9236 40.0808C28.7197 40.1436 28.4595 40.1785 28.2118 40.1989C28.1151 40.2069 28.0278 40.1954 27.9276 40.2079C27.8763 40.2143 27.7208 40.2402 27.6759 40.2467C27.5827 40.2602 27.499 40.2527 27.4048 40.2657C27.3305 40.2756 27.2582 40.3085 27.169 40.3155C26.9551 40.3319 26.8046 40.3399 26.5912 40.3449L25.4612 40.3743C24.7006 40.3743 23.8547 40.4072 23.1129 40.3479C22.8318 40.3255 22.6115 40.2652 22.3298 40.2577C21.8877 40.2452 21.4087 40.1974 20.976 40.1376C20.8255 40.1167 20.6281 40.0678 20.4725 40.0574L18.3441 39.8112C18.3082 39.8062 18.1656 39.7932 18.0993 39.7728C17.7973 39.6806 17.3427 39.7499 17.0137 39.6676C16.8826 39.6348 16.6279 39.6477 16.4863 39.6138C16.3756 39.5879 16.3457 39.5999 16.2121 39.5889L14.4944 39.5042C14.301 39.5047 14.1076 39.5042 13.9142 39.5042L13.478 39.4982C13.2597 39.5246 13.3878 39.4882 13.3051 39.5909L13.3948 39.6542C13.4018 39.6577 13.4092 39.6612 13.4162 39.6647L13.6106 39.7309C13.6161 39.7334 13.6236 39.7374 13.6286 39.7399L13.7921 39.8411C13.8529 39.869 13.8354 39.8575 13.8913 39.8854L13.9645 39.9253C13.9695 39.9283 13.9765 39.9333 13.9815 39.9363L14.5801 40.2412C14.5871 40.2442 14.5951 40.2472 14.6021 40.2502L15.439 40.6594C15.5148 40.7017 15.4385 40.6544 15.5198 40.7162C15.8163 40.9414 16.1892 41.0212 16.5062 41.2125L17.8641 41.8868C17.9034 41.9107 17.9049 41.9182 17.9478 41.9451C18.0281 41.9954 18.0764 41.9919 18.1557 42.0328C18.2135 42.0622 18.2404 42.1031 18.3346 42.1444L18.6108 42.268C18.6162 42.2715 18.6222 42.277 18.6282 42.2805L18.9871 42.4479C18.9931 42.4509 19.0006 42.4544 19.006 42.4574C19.0115 42.4604 19.019 42.4644 19.025 42.4674L20.2547 43.0639C20.308 43.0933 20.2378 43.0614 20.3185 43.0938L20.6595 43.2413C20.6659 43.2443 20.6734 43.2478 20.6794 43.2508L21.0528 43.4262C21.2028 43.5124 21.3648 43.5418 21.5263 43.622L22.2665 43.9614C22.3004 43.9719 22.3079 43.9689 22.3373 43.9779L22.6239 44.1224C22.6683 44.1408 22.6219 44.1224 22.6837 44.1488L23.3866 44.4054C23.5401 44.4642 23.6398 44.536 23.7988 44.5769L24.8391 45.0109C24.9284 45.0438 24.9787 45.0348 25.0794 45.0647C25.0859 45.0667 25.0934 45.0697 25.0998 45.0717C25.2195 45.1106 25.2678 45.1564 25.3974 45.1848L25.6511 45.2731C25.6571 45.2755 25.6646 45.279 25.6706 45.2815L26.8275 45.6648C27.0394 45.737 27.312 45.7928 27.5279 45.89L28.0458 46.046C28.0886 46.0565 28.132 46.0654 28.1609 46.0739C28.1699 46.0769 28.1948 46.0854 28.2038 46.0879C28.2108 46.0903 28.2183 46.0928 28.2257 46.0953C28.2337 46.0973 28.2412 46.0998 28.2492 46.1023C28.4456 46.1601 28.6155 46.2413 28.8204 46.2877L30.0217 46.5683C30.0451 46.5718 30.1209 46.5862 30.1369 46.5907C30.1438 46.5927 30.1508 46.5962 30.1573 46.5982L30.7365 46.7232C30.9937 46.7696 31.1911 46.8438 31.4643 46.8713C31.6392 46.8887 31.7534 46.9684 31.9298 46.9854C31.9837 46.9904 32.0031 46.9839 32.054 46.9968L32.6536 47.1294C32.7463 47.1404 32.8525 47.1239 32.9422 47.1329C33.0654 47.1458 33.02 47.1748 33.1765 47.1892L33.7024 47.2654C33.8021 47.2854 33.8784 47.2714 33.9771 47.2849C34.0274 47.2914 34.1455 47.3218 34.2069 47.3392C34.4032 47.3935 34.4935 47.391 34.7472 47.3925C34.9436 47.3935 35.0647 47.4603 35.2367 47.4772L36.0487 47.539C36.1414 47.5435 36.2436 47.5321 36.3353 47.54C36.436 47.549 36.4669 47.5674 36.602 47.5684L37.4444 47.5964C37.6662 47.5954 37.8008 47.6273 38.0241 47.6258C38.7005 47.6223 39.3805 47.6462 40.0569 47.6268C40.1825 47.6233 40.2249 47.5993 40.3455 47.5959C40.9123 47.5779 41.4616 47.5774 42.0069 47.5121L42.4939 47.4693C42.5742 47.4419 42.5238 47.4683 42.5791 47.4229C42.5408 47.3357 42.5687 47.392 42.5168 47.3367C42.4326 47.247 42.3219 47.2336 42.2372 47.1548C42.2327 47.1508 42.2267 47.1444 42.2222 47.1404L41.2113 46.2124L40.8066 45.6334C40.8031 45.6279 40.7986 45.6209 40.7956 45.6154L40.4592 44.976C40.4412 44.9197 40.4447 44.9212 40.4238 44.8853C40.336 44.7363 40.3814 44.8898 40.331 44.7259L39.9766 43.3724C39.9592 43.2921 39.9607 43.2084 39.9452 43.1406C39.9113 42.9946 39.9283 42.8207 39.8934 42.6961C39.8326 42.4788 39.8515 42.4868 39.852 42.2306C39.852 41.9152 39.8231 41.5773 39.868 41.2688C39.8929 41.0954 39.9103 40.9898 39.9093 40.8079L40.2094 39.0337C40.2119 39.0238 40.2294 38.944 40.2363 38.9122L40.4073 38.3356C40.4103 38.3286 40.4133 38.3211 40.4158 38.3136C40.4183 38.3057 40.4203 38.2982 40.4228 38.2902C40.4507 38.194 40.4223 38.2942 40.4347 38.2414C40.5085 37.9329 40.5608 37.6748 40.6725 37.3822L40.8235 37.0129C40.8265 37.0065 40.83 36.999 40.8325 36.992L40.9666 36.6611C40.9696 36.6531 40.9716 36.6452 40.9741 36.6372L41.4745 35.4342C41.5024 35.3878 41.4795 35.4312 41.5184 35.3614L42.3673 33.7463C42.3942 33.7079 42.3817 33.7278 42.4111 33.67C42.4226 33.6471 42.4296 33.6307 42.448 33.5898L42.6858 33.1931C42.7137 33.1448 42.7048 33.1607 42.7277 33.1174C42.7307 33.1114 42.7342 33.1039 42.7372 33.0979L43.6608 31.7056C43.7057 31.6453 43.7191 31.6248 43.762 31.5785L43.8747 31.4245C43.8776 31.4195 43.8821 31.412 43.8856 31.4075L44.429 30.6775C44.589 30.509 44.7225 30.2868 44.8796 30.1123C44.8836 30.1079 44.8895 30.1019 44.8935 30.0974C44.9219 30.0675 44.9369 30.057 44.9658 30.0261L45.6507 29.2283C45.9039 28.9078 46.5654 28.254 46.866 27.9525L47.8804 26.9982C47.9407 26.9483 47.9661 26.9384 48.0274 26.882C48.0274 26.882 48.0842 26.8247 48.0847 26.8237C48.1575 26.7196 48.1067 26.8292 48.1495 26.6837C48.0224 26.6857 47.8998 26.7076 47.8086 26.7345C47.6481 26.7829 46.3231 26.9174 46.1776 26.9159L45.8217 26.9528C45.6986 26.9917 45.6098 26.9673 45.4777 26.9737C45.3541 26.9797 45.2998 27.0036 45.1627 27.0036L44.088 27.0395C43.597 27.1048 40.3575 27.061 39.707 27.061L37.9359 27.033C37.7948 27.0311 37.7355 27.0031 37.59 27.0017C37.3572 26.9987 37.0646 27.0206 36.8403 27.0012L36.1384 26.9737C35.8727 26.9737 35.1938 27.0031 34.9426 26.9359C34.9361 26.9344 34.9291 26.9309 34.9232 26.9289C34.9172 26.9264 34.9102 26.9224 34.9037 26.9199C34.7542 26.8676 34.5662 26.893 34.3978 26.8875C34.2582 26.8835 34.2143 26.8571 34.0498 26.8566C33.8006 26.8566 32.2404 26.8332 31.9473 26.7918C31.7404 26.7624 31.4598 26.7709 31.2061 26.7709C30.6274 26.7709 30.418 26.7146 29.8119 26.7136L28.4231 26.6254C28.0233 26.6065 26.6551 26.5721 26.348 26.5297C26.1755 26.5058 25.8485 26.4604 25.6671 26.4515C25.5549 26.446 25.4283 26.453 25.3152 26.4525L23.5785 26.3663C23.4589 26.3568 23.3193 26.3673 23.1972 26.3658C22.9111 26.3623 22.5088 26.306 22.1539 26.3065C21.4864 26.3075 20.4097 26.2257 19.7194 26.1903L18.6432 26.1614C18.1258 26.1634 17.6866 26.1415 17.2245 26.1051C17.0047 26.0877 16.7216 26.1046 16.4948 26.1046C16.2914 26.1041 15.9938 26.0035 15.8109 26.1101C15.6354 26.2118 15.4236 26.5452 15.2964 26.7036C15.293 26.7081 15.2875 26.7151 15.2835 26.7191C15.28 26.7236 15.274 26.7296 15.27 26.734C15.2665 26.7385 15.2601 26.744 15.2561 26.7485C15.2501 26.755 15.2177 26.7884 15.2122 26.7948C15.1653 26.8502 15.1634 26.8641 15.128 26.9159L15.0532 27.0106C15.0477 27.0176 15.0178 27.0535 15.0128 27.06L14.6634 27.5528C14.6599 27.5578 14.6549 27.5648 14.6514 27.5703L14.4615 27.8728C14.4575 27.8782 14.4306 27.9151 14.4251 27.9216C14.3135 28.0601 14.2616 28.2072 14.1495 28.3442L13.5543 29.4022C13.5508 29.4072 13.5453 29.4137 13.5418 29.4186L13.5044 29.472C13.501 29.4779 13.488 29.5004 13.473 29.5303L13.3235 29.8487C13.312 29.8786 13.2916 29.9369 13.2757 29.9678L13.2433 30.0236C13.2298 30.0475 13.2034 30.0989 13.2019 30.1014C13.1949 30.1153 13.1839 30.1392 13.1745 30.1612C13.165 30.1831 13.155 30.2115 13.1495 30.225C13.1306 30.2738 13.1151 30.3087 13.0882 30.3625C12.9217 30.6929 12.984 30.4956 12.8534 30.8579C12.853 30.8584 12.8325 30.9047 12.8275 30.9157L12.684 31.2371C12.5863 31.4569 12.4781 31.6358 12.4188 31.8775L12.031 32.9684L11.7538 34.145C11.7449 34.2053 11.7314 34.4176 11.7179 34.4848C11.6925 34.6109 11.6621 34.6772 11.6521 34.8023C11.6491 34.8392 11.6457 34.9443 11.6467 34.9797C11.6467 34.9837 11.6541 35.0679 11.6541 35.0684C11.6771 35.1586 11.6646 35.1282 11.7095 35.182Z" fill="#23A8B3"/>
<path fill-rule="evenodd" clip-rule="evenodd" d="M4.77539 46.1756L5.03061 46.3874C5.37156 46.6864 5.64273 47.0517 5.98866 47.3427C6.24737 47.56 6.48564 47.8515 6.74285 48.0678C6.93376 48.2283 7.05888 48.3568 7.23434 48.5323L8.72825 49.968C8.92714 50.1663 9.11008 50.3816 9.32492 50.5625C9.58661 50.7823 9.80046 51.0589 10.0671 51.2717C10.3986 51.5373 11.3198 52.4842 11.6872 52.84L12.5405 53.6672C12.6377 53.7699 12.5989 53.7534 12.7539 53.7749C12.7334 53.6164 12.6746 53.5661 12.5724 53.4629C12.4902 53.3792 12.4339 53.3089 12.3601 53.2152C12.2679 53.0991 12.1363 52.9666 12.055 52.8275C11.8561 52.4847 11.5536 52.1014 11.3462 51.7381L10.4774 49.9117C10.4335 49.819 10.3976 49.7841 10.3747 49.677L9.98888 48.5796C9.98688 48.5716 9.98489 48.5642 9.9829 48.5557L9.86874 48.2328C9.8518 48.1849 9.86077 48.2118 9.84781 48.1445L9.76207 47.7588C9.73964 47.694 9.72269 47.6751 9.69628 47.5944C9.67235 47.5211 9.66387 47.4688 9.65191 47.4105C9.58362 47.0831 9.47545 46.8005 9.44455 46.4636C9.41713 46.1626 9.32043 45.9752 9.29899 45.6812C9.29251 45.592 9.28753 45.5626 9.26859 45.4729C9.24466 45.3568 9.25712 45.4231 9.24317 45.3777C9.19432 45.2173 9.21076 45.0603 9.17338 44.8714C9.14447 44.7214 9.11257 44.694 9.08515 44.4986L8.92415 42.8685L9.42461 43.4701C9.46598 43.5169 9.49838 43.5398 9.54075 43.5852L9.96445 44.0586C10.0362 44.1518 10.1095 44.2131 10.1937 44.2973L11.5999 45.6463C11.8337 45.884 12.1054 46.0958 12.3671 46.3037L12.5919 46.4856C12.9692 46.7875 13.4782 47.2062 13.8789 47.4643L14.7278 48.0374C14.7333 48.0414 14.7403 48.0459 14.7463 48.0494L15.2587 48.3753C15.2951 48.4012 15.2672 48.3882 15.3255 48.4251L15.5438 48.5537C15.6121 48.604 15.6021 48.603 15.6814 48.6509L15.7965 48.7132C15.803 48.7162 15.8105 48.7191 15.817 48.7221L16.132 48.8971C16.137 48.9005 16.1445 48.905 16.1495 48.908L16.3862 49.052C16.5442 49.1288 16.8712 49.356 17.0188 49.3665L15.2422 48.8422C15.1889 48.8133 15.2233 48.8203 15.1465 48.7904L14.2622 48.4844C14.2613 48.4839 14.165 48.4441 14.1606 48.4421L13.3087 48.0743C13.1821 48.0165 13.2548 48.021 13.1267 47.9666L12.241 47.4902C12.213 47.4773 12.1467 47.4503 12.1398 47.4469L11.5999 47.092C11.4708 47.0043 11.3666 46.9296 11.245 46.8389L10.6758 46.3714C10.5621 46.2807 10.6773 46.3375 10.5202 46.2917L10.8069 47.269C10.8099 47.2759 10.8128 47.2834 10.8158 47.2899L11.1393 48.1814C11.1418 48.1889 11.1438 48.1969 11.1463 48.2044C11.1493 48.2118 11.1518 48.2193 11.1548 48.2263C11.1842 48.3035 11.1578 48.2278 11.1817 48.2866C11.253 48.4635 11.2674 48.5916 11.3646 48.7476L11.7021 49.5922C11.8018 49.8768 11.9628 50.126 12.08 50.4065C12.2524 50.8207 12.4812 51.1506 12.6477 51.5213L12.9064 51.9928C13.0221 52.1612 13.2155 52.5464 13.3246 52.679C13.3899 52.7582 13.3211 52.6631 13.3755 52.7408L13.4074 52.7941C13.4104 52.7996 13.4144 52.8076 13.4168 52.8131L13.683 53.2187C13.7055 53.2501 13.7294 53.2785 13.7438 53.3005L13.9926 53.6902C13.9976 53.6971 14.013 53.7186 14.0185 53.7255C14.0225 53.7305 14.0285 53.737 14.0325 53.742L14.5035 54.3724C14.5788 54.4751 14.6545 54.5638 14.7358 54.6629L15.4646 55.4987C15.5493 55.6108 15.6256 55.6741 15.7208 55.7693L16.9395 56.9294C17.2167 57.1786 17.5257 57.3879 17.8113 57.6261C17.8771 57.6814 17.8921 57.6854 17.9649 57.7367L20.043 59.0549C20.0784 59.0763 20.0684 59.0708 20.1188 59.0977L21.3435 59.7042C21.5359 59.773 21.7054 59.8826 21.9063 59.9534L22.1919 60.07C22.2751 60.1109 22.2906 60.1099 22.3868 60.1418C22.6086 60.215 22.8319 60.2788 23.0393 60.3845C23.2481 60.4906 23.4435 60.4886 23.6305 60.5753L23.9325 60.683C24.0068 60.7104 23.8902 60.6785 24.0183 60.7154L25.3607 61.0836C25.4324 61.1066 25.5117 61.123 25.5775 61.1345C25.6976 61.1554 25.6857 61.1579 25.7873 61.1818L28.2114 61.6373C28.4721 61.6692 28.4033 61.6936 28.7398 61.6936C28.6401 61.5695 28.4806 61.5581 28.3265 61.5122C28.018 61.42 27.8425 61.3946 27.5305 61.268L25.8681 60.5529C25.7998 60.516 25.7609 60.4791 25.6891 60.4423L25.4474 60.3082C25.4394 60.3037 25.416 60.2923 25.408 60.2878C25.0925 60.1154 24.4495 59.5876 24.1618 59.3359C24.0716 59.2572 23.9899 59.164 23.9021 59.0763C23.5856 58.7598 23.3234 58.4205 23.0607 58.0647C22.9092 57.8593 22.8105 57.6266 22.6819 57.4033C22.6241 57.3032 22.633 57.2822 22.5966 57.2005L22.2861 56.2138L22.2118 55.4862C22.2118 55.3013 22.2183 55.1653 22.2487 55.0103C22.2921 54.787 22.3369 54.5408 22.4297 54.3305C22.5897 53.9672 22.8992 53.5397 23.1938 53.3104L23.5996 53.0239C23.6325 53.0064 23.629 53.0089 23.6554 52.9945C23.6943 52.973 23.7008 52.9705 23.7491 52.9396L25.0122 52.5056L25.4893 52.4383C25.74 52.4318 26.2938 52.4169 26.5191 52.4488C26.8227 52.4916 27.1427 52.5116 27.4517 52.5858C27.5155 52.6008 27.5848 52.6192 27.6701 52.6322L27.9871 52.6885C28.0319 52.6994 28.0703 52.7049 28.1092 52.7139L28.5065 52.838C28.6162 52.8624 28.6167 52.8554 28.7178 52.8848L29.4411 53.1694C29.4471 53.1724 29.4541 53.1769 29.4606 53.1799C29.4665 53.1828 29.474 53.1868 29.4805 53.1898L29.7517 53.295C29.8479 53.3433 29.7686 53.3009 29.8429 53.3473L30.4191 53.6388C30.5652 53.7385 30.7406 53.7953 30.8812 53.901C30.9455 53.9498 30.8937 53.9194 30.9495 53.9528L31.0502 53.9996C31.3448 54.1466 31.5796 54.3619 31.8542 54.5274C31.931 54.5737 31.9355 54.5847 32.0087 54.6315L34.4871 56.2736C34.4926 56.2766 34.4996 56.2811 34.5051 56.2846C34.5105 56.2875 34.5175 56.2925 34.5225 56.2955C34.528 56.299 34.535 56.304 34.54 56.307C34.5454 56.3105 34.5524 56.3155 34.5579 56.3189L34.7234 56.4151C34.7792 56.451 34.8301 56.4829 34.8864 56.5138L35.2637 56.7186C35.2697 56.7221 35.2772 56.7251 35.2837 56.7286L36.2203 57.1537C36.2268 57.1572 36.2338 57.1606 36.2402 57.1636C36.2946 57.1891 36.2866 57.1841 36.3474 57.2055L36.474 57.2518C36.5259 57.2708 36.4501 57.2474 36.5413 57.2748C36.7362 57.3326 36.9117 57.4273 37.118 57.4821L37.6095 57.6301C38.3916 57.8369 39.1942 58.0372 40.0261 58.0397C40.545 58.0412 41.1267 57.9431 41.6043 57.7442L41.6461 57.7253C41.8535 57.6281 41.9776 57.5982 42.1875 57.4826L42.5189 57.3201C42.7408 57.205 43.0055 57.0729 43.1854 56.9055L43.314 56.8103C43.4262 56.7515 43.4321 56.7136 43.5273 56.6434C43.5318 56.6404 43.5393 56.6359 43.5438 56.6324L43.6191 56.591C43.8469 56.4565 44.1779 56.1739 44.3703 56.002L44.6569 55.7673C44.7665 55.6781 44.8468 55.5978 44.9505 55.5111L46.095 54.5364C46.1488 54.491 46.1752 54.4536 46.2261 54.4063L47.2424 53.5387C47.2788 53.5078 47.2733 53.5162 47.3087 53.4888L48.6192 52.4199C48.6576 52.3865 48.6691 52.3825 48.703 52.3621C48.8884 52.2484 49.0643 52.0765 49.2438 51.9444L49.4038 51.8403C49.4083 51.8363 49.4138 51.8298 49.4183 51.8258L50.146 51.3105C50.151 51.3071 50.158 51.3021 50.1635 51.2986L50.624 50.9772C50.629 50.9737 50.6365 50.9697 50.6415 50.9667C50.647 50.9632 50.655 50.9597 50.6604 50.9567L52.8148 49.6007C52.8223 49.5962 52.8437 49.5823 52.8512 49.5778C52.8567 49.5748 52.8632 49.5698 52.8687 49.5668L52.9883 49.5135C53.0496 49.4806 52.9898 49.514 53.0591 49.4632L53.9902 48.9454C53.9952 48.9419 54.0022 48.9374 54.0072 48.9344L54.1412 48.8681C54.1472 48.8652 54.1547 48.8612 54.1607 48.8582L54.2933 48.7894C54.2993 48.7864 54.3072 48.7834 54.3132 48.7804L56.7781 47.5914C56.7841 47.5884 56.7916 47.5844 56.7981 47.5814L57.2268 47.4005C57.2327 47.398 57.2402 47.395 57.2467 47.3925L57.4391 47.3238C57.6535 47.2346 57.7631 47.2176 57.811 47.0751C57.6071 47.0856 57.4616 47.1683 57.2821 47.2266C57.2746 47.2291 57.2666 47.2316 57.2597 47.2341L56.488 47.4773C56.4407 47.4947 56.5533 47.4499 56.4447 47.4952L54.1866 48.1655C54.0954 48.1954 54.1871 48.167 54.1442 48.1814C54.07 48.2068 53.9887 48.2173 53.9354 48.2288L53.6313 48.3045C53.4883 48.3469 53.4937 48.3753 53.3322 48.4077L52.604 48.5886C52.4155 48.6743 52.2366 48.6608 52.0387 48.7132C51.9505 48.7361 51.93 48.7655 51.8543 48.7914L51.6055 48.8318C51.5971 48.8343 51.5901 48.8373 51.5821 48.8397L50.323 49.1089C50.1425 49.1353 50.1076 49.2065 49.9167 49.2205L49.4521 49.3211C49.2513 49.3839 48.9956 49.373 48.7897 49.4417C48.6516 49.4881 48.4019 49.4891 48.2439 49.5329L46.5486 49.8369C46.3352 49.8878 46.0661 49.8937 45.8278 49.9222C45.4973 49.9615 45.2351 50.0243 44.8986 50.0328C44.6574 50.0383 44.448 50.13 44.2287 50.1484C44.116 50.1579 44.0373 50.1594 43.956 50.1708L42.492 50.2735C42.1281 50.3213 41.196 50.3263 41.0176 50.3707C40.5649 50.4843 38.0522 50.4474 37.3847 50.4409C37.1908 50.4389 37.115 50.3856 36.9236 50.3806C36.5468 50.3712 36.2417 50.3507 35.8764 50.3527C35.507 50.3552 35.2877 50.2635 34.9198 50.2655C34.3371 50.2685 33.1368 50.119 32.5541 50.0014C32.254 49.9411 31.9185 49.9236 31.6075 49.8728L30.2746 49.6152C30.0243 49.5394 29.7382 49.5479 29.479 49.4567C29.3215 49.4014 29.2407 49.4203 28.993 49.3331L26.0775 48.5547C25.9404 48.5323 25.8541 48.456 25.6996 48.4147L25.4987 48.3534C25.413 48.3339 25.3427 48.3235 25.2764 48.2931L24.6917 48.0877C24.3827 48.005 24.1419 47.8455 23.8358 47.7563L23.454 47.6188C23.447 47.6158 23.4391 47.6133 23.4321 47.6108C23.4251 47.6083 23.4171 47.6058 23.4101 47.6033L22.5388 47.2321C22.4496 47.1867 22.5468 47.2301 22.4356 47.1857C22.3783 47.1633 22.2991 47.1314 22.2363 47.0995L22.1595 47.0596C22.153 47.0567 22.1455 47.0532 22.1391 47.0502C22.1326 47.0472 22.1251 47.0442 22.1181 47.0412L21.8654 46.9445C21.6451 46.8643 21.1282 46.646 20.9726 46.5399L18.8596 45.455C18.7938 45.4211 18.7619 45.3957 18.7011 45.3578C18.5944 45.292 18.4883 45.2377 18.3711 45.1654C18.3362 45.144 18.3432 45.148 18.2929 45.1246L17.448 44.6372C17.4425 44.6342 17.4355 44.6297 17.43 44.6267L17.0417 44.3775C16.9909 44.3427 16.9495 44.3088 16.8822 44.2734L15.9944 43.7142C15.9874 43.7093 15.9685 43.6943 15.9615 43.6893L15.2776 43.2119C15.2263 43.1755 15.1759 43.1526 15.1121 43.1147L13.1522 41.6551C13.1472 41.6511 13.1402 41.6461 13.1352 41.6421L12.5291 41.1747C12.5246 41.1712 12.5176 41.1662 12.5131 41.1627L11.2669 40.0918C11.1987 40.026 11.1882 40.0285 11.1209 39.9726L10.8447 39.728C10.7899 39.6796 10.7565 39.6353 10.7017 39.5834C10.6349 39.5216 10.6174 39.5216 10.5546 39.4668L7.64209 36.5819C7.55884 36.4812 7.55884 36.4787 7.41578 36.4588C7.41578 36.9811 7.41428 37.5038 7.41628 38.0261L7.30263 39.4389L7.09078 40.5507C7.03844 40.6564 7.06137 40.5587 7.03844 40.7167C7.0205 40.8428 7.00006 40.908 6.97414 41.0242L6.58982 42.3433C6.58982 42.3433 6.56639 42.3876 6.56041 42.4001L6.43081 42.7684C6.40289 42.8416 6.39791 42.8441 6.3675 42.9029C6.36451 42.9089 6.36052 42.9164 6.35753 42.9224L6.205 43.323C6.16961 43.3938 6.1706 43.3599 6.13671 43.4257L5.9757 43.8478C5.86504 44.0975 5.72597 44.2938 5.62528 44.5435L4.96082 45.758C4.86113 45.9055 4.77838 45.9623 4.77539 46.1756Z" fill="#1F4567"/>
<path fill-rule="evenodd" clip-rule="evenodd" d="M33.2663 13.6599C31.7161 13.6599 30.0751 13.7531 28.5404 13.6325C28.4506 13.6255 28.3395 13.631 28.2473 13.631C27.1417 13.6325 26.0246 13.5722 24.911 13.5732C24.6877 13.5732 24.5416 13.5483 24.3617 13.5428C24.1802 13.5378 23.9913 13.5453 23.8084 13.5428C23.4988 13.5393 23.5552 13.5473 23.3947 13.7107L22.5966 14.5963C22.5911 14.6028 22.5752 14.6232 22.5702 14.6302C22.5433 14.6695 22.5632 14.6431 22.5368 14.689L21.4636 16.2274C21.4596 16.2358 21.4407 16.2802 21.4367 16.2882C21.3704 16.4202 21.2826 16.4975 21.2208 16.6221L21.1795 16.7307C21.1401 16.8279 20.9277 17.1114 20.8659 17.256L20.8101 17.3671C20.8066 17.3721 20.8001 17.3776 20.7966 17.3825C20.7583 17.4354 20.7912 17.3741 20.7588 17.4359C20.7553 17.4428 20.7518 17.4503 20.7488 17.4578L20.4781 17.997C20.3924 18.1724 20.2713 18.4066 20.2688 18.5616C20.4228 18.5213 20.3924 18.5452 20.4956 18.439C20.8295 18.0957 21.4207 17.6347 21.805 17.3482L22.3509 16.9614C22.4371 16.8887 22.5119 16.8752 22.6076 16.8169L23.0044 16.5453C23.0093 16.5423 23.0163 16.5378 23.0218 16.5349C23.0268 16.5319 23.0343 16.5274 23.0397 16.5249C23.0452 16.5219 23.0527 16.5179 23.0582 16.5154C23.0642 16.5124 23.0717 16.5089 23.0776 16.5059L23.8054 16.1312C23.8134 16.1272 23.8363 16.1142 23.8443 16.1098L25.3741 15.5362C25.5426 15.5098 25.7315 15.4868 25.9553 15.4868C26.1442 15.4873 26.4089 15.4539 26.5884 15.5322L26.8147 15.6274C26.9971 15.7006 27.1511 15.873 27.2503 16.041C27.3226 16.1626 27.3256 16.3839 27.3201 16.5897C27.3111 16.9081 27.1172 17.1423 26.9931 17.405C26.9831 17.4264 26.9737 17.4508 26.9667 17.4633C26.9637 17.4683 26.9597 17.4757 26.9562 17.4807L26.6407 17.8869C26.6063 17.9247 26.5938 17.9392 26.5579 17.9751L25.573 18.8691L25.0361 19.2344C25.0306 19.2384 25.0247 19.2444 25.0197 19.2484L23.9983 19.8434C23.9435 19.8688 23.9794 19.8514 23.939 19.8728L22.6325 20.4768C22.4919 20.5625 22.5827 20.4773 22.5318 20.6213L24.1289 20.4329C24.274 20.3851 24.1962 20.4085 24.3617 20.3841C24.5197 20.3612 25.1951 20.2376 25.3541 20.1778C25.6168 20.0786 26.5006 19.9042 26.858 19.7666C27.0215 19.7038 27.1596 19.7098 27.3201 19.648C27.4083 19.6141 27.34 19.6346 27.4193 19.6027L28.4541 19.3032C28.7627 19.1905 29.0697 19.1542 29.3713 19.0301C29.6484 18.9155 29.9231 18.893 30.2008 18.8198L30.6434 18.6812C31.1683 18.5228 31.1528 18.5975 31.3756 18.5442C31.6947 18.4674 31.586 18.5043 31.8741 18.4674C31.9489 18.458 32.0521 18.4246 32.1398 18.4181C32.4997 18.3912 32.9204 18.4022 33.2653 18.4161L33.7902 18.4744C34.0564 18.4719 34.0958 18.5297 34.2693 18.5875C34.3605 18.6179 34.4318 18.611 34.5185 18.6538L34.8091 18.7734C34.8156 18.7759 34.8231 18.7784 34.8295 18.7809L35.2931 19.064C35.4451 19.1871 35.5857 19.3266 35.6879 19.4985L35.812 19.7228C35.815 19.7278 35.8205 19.7342 35.823 19.7397C35.9252 19.9291 35.8878 20.262 35.8215 20.401L35.7183 20.6452C35.7153 20.6507 35.7118 20.6587 35.7088 20.6637L35.663 20.7304C35.6595 20.7354 35.654 20.7419 35.6505 20.7469L35.6246 20.7798C35.5752 20.8446 35.5498 20.8765 35.4935 20.9328L35.176 21.2218C35.1012 21.2831 35.0768 21.2801 35.003 21.3394L34.6032 21.5726C34.5973 21.5756 34.5903 21.5801 34.5848 21.5831C34.5788 21.5866 34.5718 21.5906 34.5658 21.5936C34.5604 21.5966 34.5529 21.6011 34.5474 21.6035C34.5444 21.605 34.4567 21.6419 34.4492 21.6444L34.1023 21.7889C34.0115 21.8158 34.0918 21.7914 34.0345 21.8104C33.9876 21.8263 33.9856 21.8263 33.9263 21.8462C33.854 21.8707 33.9054 21.8512 33.8595 21.8702C33.7788 21.9021 33.8495 21.8771 33.8002 21.8971L33.6701 21.9364C33.6621 21.9389 33.6546 21.9414 33.6467 21.9439L33.5824 21.9683C33.3426 22.0466 32.5989 22.211 32.3671 22.217C31.7789 22.232 31.2999 22.3326 30.7132 22.3326L27.1441 22.3316C26.9448 22.3321 26.8226 22.3615 26.5933 22.3605C26.4239 22.3605 25.888 22.4512 25.5201 22.4477L25.2564 22.4901C25.067 22.5519 24.6448 22.5006 24.4185 22.5479C24.0148 22.6316 23.8468 22.6127 23.3972 22.7164L22.1649 22.964C22.0533 22.9904 22.0523 23.0029 21.9426 23.0313C21.8394 23.0582 21.9027 23.0368 21.827 23.0677L21.6146 23.1419C21.4825 23.1848 21.5992 23.1509 21.5095 23.1818C21.2936 23.2566 21.3121 23.2247 20.9372 23.3652C20.8256 23.4071 20.9213 23.3797 20.834 23.4011C20.6959 23.4345 20.7234 23.4096 20.6052 23.4733C20.5235 23.5172 20.4946 23.5411 20.4178 23.569L20.1775 23.6831C20.1721 23.6861 20.1646 23.6896 20.1586 23.6921L19.3984 24.0734C19.4936 24.1915 19.3964 24.1665 19.7464 24.1601C21.0997 24.1361 22.455 24.1601 23.8084 24.1601C25.244 24.1601 26.6656 24.2258 28.161 24.2174L28.8564 24.2468C29.1076 24.2468 29.3618 24.2423 29.6121 24.2458C29.7462 24.2473 29.795 24.2732 29.9281 24.2767C30.0512 24.2802 30.1843 24.2762 30.3079 24.2757L31.0327 24.3051C31.5446 24.3051 31.9668 24.3255 32.4224 24.3614C32.9025 24.3993 33.4049 24.339 33.868 24.3943C34.2394 24.4386 35.2094 24.4481 35.647 24.4491C35.7936 24.4491 35.8524 24.4765 35.992 24.48C36.2676 24.4865 36.4516 24.5169 36.6873 24.5353C36.9181 24.5533 37.1803 24.5234 37.4131 24.5368C37.5427 24.5443 37.598 24.5672 37.765 24.5657C37.9166 24.5647 37.9779 24.5881 38.109 24.5951C38.5197 24.6161 39.1473 24.5827 39.5371 24.6405C39.6532 24.6579 39.7619 24.6539 39.882 24.6529C40.1681 24.6499 40.045 24.6499 40.202 24.6943C40.365 24.7406 40.7648 24.7117 40.9557 24.7107C41.191 24.7092 41.4098 24.7511 41.6197 24.7676C41.854 24.786 42.163 24.769 42.4058 24.769L41.526 24.0798L40.861 23.415C40.857 23.4111 40.851 23.4051 40.847 23.4006C40.8431 23.3966 40.8376 23.3901 40.8341 23.3856L40.7558 23.261C40.5854 23.0144 40.2748 22.5559 40.2085 22.2569C40.0734 21.6429 40.0854 21.4735 40.1133 20.8555L40.2529 20.0766C40.2942 19.9296 40.3232 19.7492 40.3885 19.6107L40.6392 19.0505C40.6422 19.0445 40.6467 19.0376 40.6497 19.0316L40.7967 18.746C40.85 18.6538 40.8376 18.602 40.8934 18.5238C41.0056 18.3668 41.0046 18.3095 41.1367 18.1301C41.183 18.0668 41.1496 18.1101 41.192 18.0379L42.4885 16.2927C42.492 16.2877 42.498 16.2817 42.502 16.2772L42.8723 15.8347C42.9222 15.7719 42.9785 15.748 43.0358 15.6792C43.4496 15.1863 43.9475 14.689 44.4286 14.2619C44.6927 14.0282 44.9534 13.7132 45.2321 13.5024C45.4115 13.3664 45.5695 13.1805 45.743 13.0554C45.8228 12.9976 45.8781 12.9537 45.916 12.8765C45.762 12.7519 45.4803 12.8894 45.3198 12.9318L43.4012 13.2139C43.2866 13.2338 43.0946 13.2328 42.9989 13.2458C42.8579 13.2647 42.7562 13.2602 42.6291 13.2831C42.4895 13.3081 42.2178 13.2956 42.0743 13.3454C41.9731 13.3803 41.8275 13.3614 41.7089 13.3768C41.6685 13.3823 41.5459 13.4112 41.5155 13.4167C41.1566 13.48 40.6781 13.4187 40.3242 13.4725C40.1841 13.4939 40.0919 13.5159 39.9408 13.5159C39.6507 13.5164 39.4055 13.4989 39.1537 13.5522C38.8287 13.621 38.2495 13.5124 37.935 13.5821C37.7615 13.621 37.8672 13.6325 37.5606 13.631C37.2805 13.6295 36.9999 13.6315 36.7192 13.631C36.4211 13.6305 36.2188 13.6599 35.9067 13.6599H33.4114C33.4498 13.6743 33.4234 13.6773 33.4812 13.613L34.1202 13.009C34.174 12.9687 34.1716 12.9722 34.2164 12.9278L34.2727 12.8695C34.2767 12.8655 34.2827 12.8595 34.2872 12.8556L35.0339 12.3318C35.0399 12.3288 35.0469 12.3248 35.0528 12.3218L36.4366 11.5922C36.4864 11.5743 36.5308 11.5569 36.5622 11.5414C36.781 11.4333 37.1135 11.351 37.2152 11.2897L37.3927 11.2145C37.4001 11.212 37.4076 11.2095 37.4151 11.2065C37.4241 11.2035 37.4485 11.1931 37.457 11.1896L38.0247 11.0346C38.3537 10.9245 38.6882 10.8771 39.0426 10.7779C39.1572 10.7456 39.2166 10.7451 39.3347 10.7286C39.5261 10.7012 39.4488 10.6743 39.6193 10.6713C39.7644 10.6688 39.8436 10.6499 39.9344 10.6255C40.1811 10.5592 41.011 10.5054 41.2179 10.4605C41.2508 10.453 41.2782 10.4386 41.2872 10.4356C41.4587 10.3763 41.6755 10.3872 41.856 10.3828C42.169 10.3753 42.501 10.324 42.8698 10.324C43.1909 10.324 43.5871 10.317 43.9012 10.2746C44.0148 10.2592 44.1409 10.2422 44.2356 10.2367C44.6833 10.2118 45.1887 10.2482 45.6319 10.2093C45.8407 10.1914 46.1338 10.2078 46.3516 10.2078C46.6253 10.2083 46.7943 10.1774 47.0475 10.1789C47.5121 10.1814 47.9457 10.1515 48.4407 10.151C48.5957 10.1505 48.6391 10.1276 48.7617 10.1206C49.0847 10.1027 49.487 10.1296 49.7981 10.0419C50.0946 9.95817 50.4834 9.97561 50.792 9.87693L51.2646 9.74487C51.3692 9.72095 51.3239 9.74138 51.4081 9.70351C51.4734 9.67461 51.4535 9.67809 51.5447 9.64022L51.8144 9.53507C51.8218 9.53208 51.8298 9.53009 51.8368 9.5266L51.916 9.48224C51.9754 9.43042 51.9809 9.41596 52.0088 9.30932C51.8777 9.27643 52.0257 9.31131 51.8931 9.26746L51.2277 9.03074C51.2212 9.02875 51.2137 9.02576 51.2077 9.02327L51.1459 8.99885C51.0477 8.96197 51.0273 8.9525 50.9236 8.92659C50.9151 8.92459 50.8214 8.89868 50.8159 8.89619C50.8104 8.89419 50.803 8.88971 50.798 8.88722L48.9487 8.29418C48.9422 8.29169 48.8629 8.2583 48.847 8.25232C48.7229 8.20199 48.6431 8.17807 48.4981 8.17807C48.5105 8.12225 48.5788 8.1088 48.6272 8.08587L49.1296 7.82873C49.2009 7.78388 49.1829 7.78886 49.2443 7.73902C49.2487 7.73554 49.2552 7.73005 49.2597 7.72657L49.6635 7.45945C49.969 7.22473 50.2596 6.98602 50.5223 6.6905L50.8708 6.25544C50.8762 6.24897 50.8937 6.22953 50.8992 6.22255L51.4749 5.11174C51.5098 5.04047 51.5113 5.01904 51.5352 4.93233C51.5537 4.86506 51.5576 4.83765 51.5771 4.77286C51.615 4.64728 51.6215 4.75193 51.6319 4.55209C51.4659 4.57552 51.451 4.61638 51.3129 4.72103L50.7815 5.05991C50.7516 5.07934 50.7731 5.06689 50.7282 5.09081L50.4989 5.17702C50.2786 5.26373 50.0847 5.38732 49.8629 5.46656L48.5205 5.83135C48.4018 5.85477 48.2772 5.86474 48.1466 5.89315C48.1252 5.89813 47.9911 5.93152 47.9846 5.93301L47.6995 5.97338C47.5923 6.00677 47.71 5.98385 47.6173 5.9988L46.9902 6.03169C46.6472 6.0287 46.4972 6.09049 46.1483 6.0895C45.594 6.088 44.9529 6.12039 44.4101 6.0895L44.0034 6.06059C43.8643 6.05312 43.7765 6.02969 43.5946 6.03119L41.1601 5.86175C40.8929 5.83285 40.5649 5.87321 40.2903 5.85727C39.5869 5.8174 38.6259 5.78251 37.9345 5.85926C37.8238 5.87122 37.8378 5.87521 37.7356 5.89863C37.4196 5.97089 37.4181 5.89913 36.8369 6.07504C36.5866 6.15079 36.3917 6.19265 36.1629 6.30677L35.7622 6.51857C35.7572 6.52156 35.7497 6.52605 35.7447 6.52904C35.4466 6.70296 35.2114 6.91825 34.9985 7.18636C34.9507 7.24716 34.9806 7.20131 34.9502 7.25912C34.8704 7.41161 34.5673 8.55133 34.4706 8.78306C34.4203 8.90566 34.4218 8.99685 34.3799 9.13191L34.2438 9.63723C34.2334 9.67959 34.2433 9.62676 34.2169 9.72344C34.2144 9.73291 34.2025 9.79371 34.196 9.82162C34.191 9.84305 34.182 9.87743 34.179 9.8859L34.1521 9.94421C34.0639 10.144 34.0883 10.3813 34.021 10.5382L33.9712 10.6693C33.9522 10.7515 33.9502 10.7909 33.9338 10.8632C33.9183 10.9304 33.9183 10.9623 33.9044 11.0416L33.8441 11.204C33.7872 11.356 33.7723 11.5873 33.7369 11.7398C33.7175 11.823 33.716 11.8439 33.6985 11.9366C33.6771 12.0502 33.6292 12.1464 33.5998 12.2695L33.4194 13.1605C33.3795 13.3001 33.3466 13.5059 33.2663 13.6599Z" fill="#259192"/>
<path fill-rule="evenodd" clip-rule="evenodd" d="M95.3933 25.7131C95.3449 25.1898 95.3888 23.3564 95.3888 22.6024C95.3888 21.7971 95.309 21.8041 95.5742 21.8041H104.104C104.279 21.8041 104.288 21.7891 104.288 21.964C104.288 23.1182 104.316 24.6122 104.284 25.7256L95.3933 25.7131ZM71.2614 35.7129C71.4119 35.6736 71.8725 35.387 72.0305 35.3008C72.036 35.2978 72.0435 35.2933 72.0495 35.2903L74.4356 33.9323C74.4426 33.9274 74.4625 33.9119 74.4695 33.9064L75.4306 33.3612C75.4356 33.3577 75.4425 33.3533 75.448 33.3498L75.7002 33.2182V21.8479H85.4777C85.4852 21.8424 85.4957 21.8245 85.4996 21.8305L88.5458 18.795C88.7232 18.6201 88.7168 18.6829 88.7272 18.4836H71.2539L71.2614 35.7129ZM110.951 33.1893H115.502L115.558 33.0906C115.561 33.0851 115.566 33.0782 115.57 33.0727L116.237 31.8527C116.241 31.8473 116.245 31.8398 116.248 31.8343L116.381 31.6195C116.384 31.6135 116.388 31.6056 116.391 31.5996L117.169 30.1733C117.188 30.1369 117.199 30.1035 117.213 30.0716L117.357 29.811C117.36 29.8055 117.364 29.798 117.367 29.7921L117.477 29.6102C117.509 29.5469 117.533 29.4951 117.566 29.4412L118.634 27.4892C118.67 27.4199 118.634 27.4837 118.675 27.4169L118.797 27.1882C118.801 27.1807 118.813 27.1583 118.817 27.1503L119.427 26.0495C119.43 26.0435 119.434 26.036 119.437 26.03L120.134 24.7543C120.159 24.7094 120.193 24.6636 120.22 24.6083C120.261 24.527 120.267 24.5101 120.307 24.4343L120.728 23.6689C120.75 23.633 120.744 23.645 120.771 23.5946L120.99 23.2114C121.021 23.3599 121.091 23.4536 121.165 23.5782C121.169 23.5856 121.183 23.6076 121.187 23.6156C121.19 23.621 121.194 23.6285 121.197 23.634L121.894 24.9357C121.897 24.9422 121.901 24.9501 121.904 24.9566C121.907 24.9631 121.91 24.9706 121.914 24.9765L122.765 26.5035C122.768 26.5095 122.772 26.5169 122.775 26.5229L123.004 26.9286C123.061 27.0512 123.11 27.1399 123.16 27.239L123.23 27.3492C123.234 27.3541 123.24 27.3601 123.244 27.3646C123.247 27.3691 123.253 27.3756 123.256 27.3801L124.146 29.0102C124.149 29.0161 124.153 29.0231 124.156 29.0291C124.339 29.3764 124.517 29.7273 124.727 30.0547C124.731 30.0597 124.735 30.0672 124.738 30.0721L125.27 31.0773C125.273 31.0828 125.277 31.0908 125.28 31.0967L125.973 32.3755C125.977 32.3835 126.011 32.4438 126.015 32.4512C126.018 32.4572 126.021 32.4647 126.025 32.4707C126.028 32.4762 126.031 32.4841 126.035 32.4896L126.151 32.6885C126.206 32.8066 126.347 33.1066 126.444 33.1604L126.501 33.1773C126.509 33.1788 126.519 33.1818 126.529 33.1838C126.54 33.1853 126.547 33.1868 126.559 33.1878L130.97 33.1893C130.967 32.965 130.848 32.84 130.752 32.6621L129.475 30.3128C129.472 30.3074 129.468 30.2999 129.465 30.2939L127.475 26.6281C127.464 26.6096 127.459 26.5982 127.445 26.5712L127.348 26.4038C127.345 26.3988 127.339 26.3918 127.336 26.3869L127.171 26.0594C127.118 25.9727 127.088 25.9264 127.039 25.8187L126.736 25.2476C126.715 25.2093 126.694 25.1769 126.671 25.1385L126.477 24.7827C126.473 24.7742 126.46 24.7513 126.456 24.7433L126.284 24.4259C126.281 24.4194 126.277 24.4119 126.274 24.4059L126.177 24.2395C126.124 24.1523 126.089 24.0785 126.048 23.9948L125.369 22.7599C125.35 22.715 125.336 22.6841 125.312 22.6413C125.309 22.6353 125.304 22.6283 125.301 22.6223C125.298 22.6169 125.293 22.6099 125.29 22.6044L125.223 22.4689C125.191 22.4031 125.222 22.4654 125.193 22.4115L124.688 21.4946C124.638 21.4054 124.605 21.3535 124.566 21.2713L124.037 20.2891C124.033 20.2836 124.028 20.2766 124.025 20.2711L123.705 19.6627C123.684 19.6263 123.658 19.5869 123.639 19.555L123.317 18.9784C123.313 18.9729 123.309 18.9655 123.306 18.96C123.303 18.954 123.299 18.947 123.296 18.941C123.293 18.9356 123.289 18.9281 123.286 18.9221C123.282 18.9166 123.279 18.9092 123.276 18.9037L123.257 18.8653C123.191 18.7322 123.134 18.5224 122.993 18.496L118.872 18.4836L118.755 18.7258C118.74 18.7607 118.749 18.7387 118.729 18.7866L118.635 18.9495C118.618 18.9749 118.581 19.0357 118.569 19.0582C118.56 19.0746 118.551 19.0906 118.539 19.118L117.337 21.3351C117.334 21.3401 117.328 21.3461 117.325 21.3511C117.185 21.5594 117.09 21.7871 116.966 22.0109L116.15 23.5134C116.147 23.5189 116.143 23.5258 116.139 23.5313L115.791 24.2001C115.749 24.2734 115.708 24.3327 115.657 24.4119C115.603 24.4961 115.578 24.5619 115.54 24.6466C115.537 24.6531 115.534 24.6606 115.531 24.6666L115.463 24.8016C115.46 24.8071 115.456 24.8141 115.453 24.8196C115.449 24.825 115.445 24.832 115.442 24.837L114.836 25.9433C114.833 25.9488 114.829 25.9563 114.826 25.9623C114.823 25.9677 114.819 25.9752 114.815 25.9812C114.812 25.9872 114.809 25.9947 114.805 26.0001L114.051 27.392C114.048 27.398 114.044 27.4055 114.041 27.411C114.038 27.4169 114.034 27.4244 114.031 27.4299L113.306 28.7665C113.303 28.7724 113.3 28.7799 113.297 28.7864L112.628 30.0004C112.624 30.0064 112.62 30.0133 112.617 30.0193L111.876 31.3957C111.873 31.4017 111.869 31.4092 111.866 31.4152L111.045 32.9406C111.042 32.9456 111.037 32.9531 111.034 32.9576C111.004 33.0064 110.957 33.0737 110.951 33.1893ZM187.14 18.4836V24.3137H178.493V18.5997C178.493 18.4208 178.367 18.4836 178 18.4836L174.169 18.4826C174.109 18.4876 174.176 18.4781 174.111 18.4895C174.015 18.506 174.016 18.5115 174.003 18.5977C173.996 18.6371 173.995 18.6749 173.995 18.7148L173.997 22.1673C173.997 22.6767 173.972 32.9581 174.009 33.133C174.02 33.1828 174.02 33.1943 174.082 33.2062L178.493 33.2182V27.388H187.14V33.2182H191.606L191.608 15.931C191.596 15.9345 191.581 15.9285 191.574 15.9435L191.436 16.0177C191.429 16.0227 191.412 16.0367 191.405 16.0412L190.396 16.6267C190.265 16.7144 190.25 16.691 190.063 16.8201L189.716 17.0189C189.7 17.0279 189.658 17.0443 189.636 17.0548L189.092 17.3772C188.864 17.4739 188.959 17.4605 188.819 17.5437L188.702 17.599C188.696 17.6025 188.688 17.6055 188.682 17.609C188.625 17.6379 188.583 17.6713 188.539 17.7012L187.14 18.4836ZM133.205 18.5125C133.136 18.6779 133.176 22.0208 133.176 22.1673L133.181 33.1046C133.203 33.2312 133.261 33.2217 133.495 33.2192L146.434 33.2182C147.103 33.2182 146.885 33.2775 147.313 32.8474L148.603 31.5582C148.607 31.5542 148.613 31.5477 148.618 31.5438L149.878 30.2819C149.908 30.2525 149.917 30.2446 149.952 30.2092C150.131 30.0308 150.151 30.0672 150.177 29.8828H137.645L137.643 27.388H145.557C145.698 27.388 145.732 27.2829 145.795 27.2126L146.493 26.5179C146.679 26.3291 146.619 26.4257 146.822 26.1785C146.825 26.1741 146.831 26.1671 146.834 26.1626L147.95 25.0463C147.954 25.0418 147.96 25.0358 147.965 25.0318L148.239 24.7573C148.39 24.6073 148.569 24.4687 148.61 24.3137H137.669L137.672 21.8479H147.428C147.544 21.8479 147.741 21.6002 147.878 21.4637C148.013 21.3281 148.159 21.1981 148.284 21.057C148.363 20.9683 148.381 20.9295 148.472 20.8403L150.635 18.6834C150.731 18.5872 150.706 18.6376 150.728 18.4836H133.755C133.669 18.4836 133.581 18.4841 133.495 18.4831L133.261 18.496C133.25 18.498 133.241 18.502 133.233 18.504C133.225 18.506 133.214 18.509 133.205 18.5125ZM157.392 21.7771L167.361 21.7821C167.429 22.1071 167.374 23.3968 167.374 23.8204V29.4188C167.374 29.5065 167.375 29.5942 167.375 29.6814L167.356 29.8608C167.355 29.8568 167.352 29.8743 167.348 29.8803C167.338 29.8848 158.047 29.958 157.378 29.8947L157.392 21.7771ZM156.241 18.5125C156.151 18.5593 153.44 21.3047 153.1 21.6381C152.859 21.8743 152.933 21.8624 152.933 22.5441C152.933 23.3928 152.907 29.7353 152.947 29.8564C152.976 29.9421 155.024 31.9589 155.566 32.5001L155.697 32.6316C155.747 32.6815 155.777 32.7114 155.827 32.7617L156.042 32.9845C156.343 33.2596 156.165 33.1893 156.995 33.1893L168.432 33.1873C168.617 33.1584 169.564 32.1248 169.826 31.8627L171.654 30.0353C171.803 29.8887 171.824 29.9331 171.822 29.651C171.811 28.4281 171.865 22.0064 171.802 21.8215C171.754 21.6835 168.74 18.7263 168.666 18.6505C168.429 18.4093 168.441 18.4836 167.759 18.4836H156.792C156.705 18.4836 156.618 18.4841 156.531 18.4831L156.297 18.496C156.287 18.498 156.277 18.502 156.269 18.504C156.261 18.506 156.25 18.508 156.241 18.5125ZM90.9614 33.1893L91.0755 33.2172C91.1129 33.2212 91.1827 33.2197 91.2226 33.2192C91.3193 33.2187 91.416 33.2182 91.5127 33.2182H95.4291V29.0126H104.25V33.2182L104.588 33.4076C104.593 33.4111 104.6 33.4156 104.605 33.419L105.652 34.0011C105.707 34.03 105.725 34.0504 105.772 34.0798L106.208 34.3151C106.28 34.3544 106.259 34.3495 106.333 34.3918L107.115 34.8274C107.121 34.8309 107.128 34.8348 107.134 34.8383C107.139 34.8413 107.147 34.8458 107.152 34.8493L107.871 35.2634C107.872 35.2644 107.929 35.2928 107.929 35.2928L108.203 35.4478C108.208 35.4513 108.215 35.4568 108.22 35.4603C108.225 35.4643 108.231 35.4697 108.236 35.4732L108.428 35.5774C108.659 35.692 108.558 35.7114 108.775 35.7418C108.775 31.2298 108.752 26.6739 108.775 22.1673C108.776 22.1046 108.78 22.0203 108.777 21.9605C108.766 21.7223 108.66 21.7183 108.333 21.3914C108.022 21.0805 105.516 18.5324 105.412 18.498C105.26 18.4472 95.1505 18.4915 94.5299 18.4826C94.187 18.4781 94.2737 18.492 94.1999 18.5623L93.0285 19.7379C92.4314 20.3354 91.5715 21.1577 91.0102 21.7512C90.9364 21.829 90.9524 21.7861 90.9345 21.9002C90.9205 21.9904 90.9325 22.2087 90.9325 22.3124V32.7831C90.932 32.9506 90.916 33.0119 90.9524 33.1614C90.9544 33.1694 90.9579 33.1803 90.9614 33.1893Z" fill="#1F4567"/>
<path d="M75.8523 49.3627L73.1501 54.385C72.8904 54.8684 72.5773 55.2342 72.2115 55.4824C71.8456 55.7301 71.4483 55.8536 71.0191 55.8536C70.6867 55.8536 70.3422 55.7814 69.9853 55.6364L70.3387 54.5211C70.5929 54.5998 70.8043 54.6392 70.9738 54.6392C71.1552 54.6392 71.3182 54.5953 71.4633 54.5076C71.6083 54.4199 71.7414 54.2824 71.8625 54.095L71.9169 54.0227L69.4141 49.3627H70.9827L72.6696 52.7714L74.4107 49.3627H75.8523ZM82.9983 54.5121V57.0233H81.638V55.7086H77.1583V57.0233H75.798L75.8069 54.5121H76.0611C76.442 54.5001 76.7106 54.2221 76.8682 53.6779C77.0252 53.1342 77.1219 52.3572 77.1583 51.3481L77.2306 49.3627H82.1096V54.5121H82.9983ZM78.4548 51.4841C78.4249 52.2396 78.3611 52.8725 78.2644 53.3833C78.1677 53.8942 78.0196 54.2704 77.8202 54.5121H80.6585V50.5592H78.4822L78.4548 51.4841ZM88.3394 54.3486H85.392L84.8297 55.7086H83.3248L86.1541 49.3627H87.6047L90.443 55.7086H88.9017L88.3394 54.3486ZM87.8768 53.2338L86.8704 50.8039L85.8635 53.2338H87.8768ZM94.0339 49.3627C94.5962 49.3627 95.0847 49.4564 95.4984 49.6437C95.9127 49.8311 96.2317 50.0967 96.4555 50.4416C96.6788 50.786 96.791 51.1941 96.791 51.6655C96.791 52.1305 96.6788 52.5371 96.4555 52.8845C96.2317 53.2323 95.9127 53.498 95.4984 53.6824C95.0847 53.8667 94.5962 53.9589 94.0339 53.9589H92.7554V55.7086H91.2864V49.3627H94.0339ZM93.9527 52.7624C94.3938 52.7624 94.7293 52.6672 94.9591 52.4768C95.1889 52.2865 95.3035 52.0159 95.3035 51.6655C95.3035 51.3087 95.1889 51.0351 94.9591 50.8448C94.7293 50.6544 94.3938 50.5592 93.9527 50.5592H92.7554V52.7624H93.9527ZM100.88 55.8178C100.221 55.8178 99.6278 55.6757 99.0989 55.3917C98.5695 55.1076 98.1558 54.7159 97.8562 54.2176C97.5571 53.7187 97.4076 53.1581 97.4076 52.5357C97.4076 51.9132 97.5571 51.3526 97.8562 50.8537C98.1558 50.3554 98.5695 49.9642 99.0989 49.6796C99.6278 49.3956 100.221 49.254 100.88 49.254C101.539 49.254 102.132 49.3956 102.658 49.6796C103.184 49.9642 103.598 50.3554 103.9 50.8537C104.203 51.3526 104.354 51.9132 104.354 52.5357C104.354 53.1581 104.203 53.7187 103.9 54.2176C103.598 54.7159 103.184 55.1076 102.658 55.3917C102.132 55.6757 101.539 55.8178 100.88 55.8178ZM100.88 54.5664C101.255 54.5664 101.594 54.4802 101.896 54.3083C102.198 54.1358 102.436 53.8956 102.608 53.5872C102.781 53.2792 102.866 52.9284 102.866 52.5357C102.866 52.143 102.781 51.7921 102.608 51.4841C102.436 51.1757 102.198 50.9355 101.896 50.763C101.594 50.5911 101.255 50.5049 100.88 50.5049C100.506 50.5049 100.167 50.5911 99.865 50.763C99.5625 50.9355 99.3252 51.1757 99.1532 51.4841C98.9807 51.7921 98.8945 52.143 98.8945 52.5357C98.8945 52.9284 98.9807 53.2792 99.1532 53.5872C99.3252 53.8956 99.5625 54.1358 99.865 54.3083C100.167 54.4802 100.506 54.5664 100.88 54.5664ZM111.272 49.3627V55.7086H109.813V50.5592H106.947V55.7086H105.487V49.3627H111.272ZM115.598 49.3627C116.16 49.3627 116.648 49.4564 117.063 49.6437C117.477 49.8311 117.796 50.0967 118.019 50.4416C118.243 50.786 118.355 51.1941 118.355 51.6655C118.355 52.1305 118.243 52.5371 118.019 52.8845C117.796 53.2323 117.477 53.498 117.063 53.6824C116.648 53.8667 116.16 53.9589 115.598 53.9589H114.32V55.7086H112.851V49.3627H115.598ZM115.516 52.7624C115.958 52.7624 116.294 52.6672 116.523 52.4768C116.753 52.2865 116.868 52.0159 116.868 51.6655C116.868 51.3087 116.753 51.0351 116.523 50.8448C116.294 50.6544 115.958 50.5592 115.516 50.5592H114.32V52.7624H115.516ZM122.445 55.8178C121.786 55.8178 121.192 55.6757 120.663 55.3917C120.134 55.1076 119.72 54.7159 119.42 54.2176C119.121 53.7187 118.971 53.1581 118.971 52.5357C118.971 51.9132 119.121 51.3526 119.42 50.8537C119.72 50.3554 120.134 49.9642 120.663 49.6796C121.192 49.3956 121.786 49.254 122.445 49.254C123.104 49.254 123.696 49.3956 124.222 49.6796C124.748 49.9642 125.162 50.3554 125.464 50.8537C125.766 51.3526 125.918 51.9132 125.918 52.5357C125.918 53.1581 125.766 53.7187 125.464 54.2176C125.162 54.7159 124.748 55.1076 124.222 55.3917C123.696 55.6757 123.104 55.8178 122.445 55.8178ZM122.445 54.5664C122.82 54.5664 123.158 54.4802 123.461 54.3083C123.763 54.1358 124 53.8956 124.172 53.5872C124.344 53.2792 124.431 52.9284 124.431 52.5357C124.431 52.143 124.344 51.7921 124.172 51.4841C124 51.1757 123.763 50.9355 123.461 50.763C123.158 50.5911 122.82 50.5049 122.445 50.5049C122.07 50.5049 121.731 50.5911 121.429 50.763C121.127 50.9355 120.889 51.1757 120.717 51.4841C120.545 51.7921 120.459 52.143 120.459 52.5357C120.459 52.9284 120.545 53.2792 120.717 53.5872C120.889 53.8956 121.127 54.1358 121.429 54.3083C121.731 54.4802 122.07 54.5664 122.445 54.5664ZM132.129 49.3627V55.7086H130.678V53.4242C130.129 53.6235 129.618 53.7232 129.146 53.7232C128.294 53.7232 127.641 53.5194 127.188 53.1112C126.734 52.7036 126.507 52.1155 126.507 51.3481V49.3627H127.958V51.1846C127.958 51.6202 128.074 51.9481 128.307 52.1684C128.54 52.3891 128.877 52.4993 129.319 52.4993C129.802 52.4993 130.256 52.4056 130.678 52.2182V49.3627H132.129ZM139.529 49.3627V55.7086H138.06V53.1068H135.177V55.7086H133.708V49.3627H135.177V51.8649H138.06V49.3627H139.529ZM144.19 51.4478C144.964 51.4478 145.558 51.6202 145.972 51.9645C146.386 52.3089 146.593 52.8197 146.593 53.4965C146.593 54.2161 146.365 54.7643 145.909 55.142C145.452 55.5197 144.81 55.7086 143.982 55.7086H141.116V49.3627H142.576V51.4478H144.19ZM143.9 54.6207C144.281 54.6207 144.579 54.527 144.793 54.3397C145.008 54.1523 145.115 53.8807 145.115 53.5239C145.115 52.8651 144.71 52.5357 143.9 52.5357H142.576V54.6207H143.9ZM147.4 49.3627H148.86V55.7086H147.4V49.3627ZM155.353 54.53V55.7086H150.438V49.3627H155.235V50.5413H151.898V51.9192H154.845V53.0614H151.898V54.53H155.353ZM161.565 53.1521H160.549V55.7086H159.089V49.3627H160.549V51.9282H161.601L163.27 49.3627H164.82L162.743 52.427L164.884 55.7086H163.215L161.565 53.1521ZM170.488 54.53V55.7086H165.573V49.3627H170.37V50.5413H167.033V51.9192H169.98V53.0614H167.033V54.53H170.488ZM171.676 49.3627H173.135V53.4965L176.165 49.3627H177.543V55.7086H176.092V51.5838L173.063 55.7086H171.676V49.3627ZM174.605 48.9545C173.444 48.9545 172.858 48.4921 172.845 47.5676H173.852C173.864 48.0087 174.115 48.2294 174.605 48.2294C174.847 48.2294 175.031 48.1736 175.158 48.0615C175.285 47.9499 175.351 47.7849 175.358 47.5676H176.364C176.358 48.0206 176.21 48.3655 175.919 48.6012C175.629 48.8369 175.191 48.9545 174.605 48.9545ZM182.122 55.8178C181.475 55.8178 180.891 55.6772 180.368 55.3962C179.845 55.1151 179.434 54.7249 179.135 54.2265C178.835 53.7277 178.685 53.1641 178.685 52.5357C178.685 51.9072 178.835 51.3436 179.135 50.8448C179.434 50.3464 179.845 49.9562 180.368 49.6751C180.891 49.3946 181.478 49.254 182.131 49.254C182.682 49.254 183.179 49.3507 183.623 49.5441C184.067 49.7374 184.441 50.0155 184.743 50.3778L183.8 51.2484C183.37 50.7526 182.839 50.5049 182.204 50.5049C181.811 50.5049 181.46 50.5911 181.152 50.763C180.844 50.9355 180.604 51.1757 180.431 51.4841C180.259 51.7921 180.173 52.143 180.173 52.5357C180.173 52.9284 180.259 53.2792 180.431 53.5872C180.604 53.8956 180.844 54.1358 181.152 54.3083C181.46 54.4802 181.811 54.5664 182.204 54.5664C182.839 54.5664 183.37 54.3157 183.8 53.8139L184.743 54.6845C184.441 55.0528 184.066 55.3339 183.619 55.5272C183.171 55.7206 182.672 55.8178 182.122 55.8178ZM188.778 51.4478C189.552 51.4478 190.146 51.6202 190.56 51.9645C190.974 52.3089 191.182 52.8197 191.182 53.4965C191.182 54.2161 190.953 54.7643 190.497 55.142C190.041 55.5197 189.398 55.7086 188.57 55.7086H185.704V49.3627H187.164V51.4478H188.778ZM188.488 54.6207C188.869 54.6207 189.167 54.527 189.382 54.3397C189.596 54.1523 189.703 53.8807 189.703 53.5239C189.703 52.8651 189.298 52.5357 188.488 52.5357H187.164V54.6207H188.488ZM191.989 49.3627H193.449V55.7086H191.989V49.3627Z" fill="#1F4567"/>
<path fill-rule="evenodd" clip-rule="evenodd" d="M104.9 42.5483H157.962V43.3915H104.9V42.5483Z" fill="#23A8B3"/>
</svg>
