<svg width="24" height="24" viewBox="0 0 24 24" fill="none" xmlns="http://www.w3.org/2000/svg">
<path d="M10.9386 1.93135C8.55417 1.93534 6.26851 2.88434 4.58243 4.57042C2.89635 6.25649 1.94736 8.54215 1.94336 10.9266C1.94535 13.3131 2.89323 15.6015 4.5793 17.2904C6.26538 18.9793 8.55217 19.931 10.9386 19.937C13.0552 19.937 15.0054 19.1924 16.5475 17.9603L20.293 21.7058C20.4827 21.8823 20.7335 21.9783 20.9925 21.9738C21.2516 21.9692 21.4988 21.8645 21.6823 21.6815C21.8657 21.4985 21.9711 21.2516 21.9763 20.9926C21.9816 20.7335 21.8862 20.4825 21.7103 20.2923L17.9648 16.543C19.244 14.952 19.9414 12.9719 19.9415 10.9304C19.9415 5.97166 15.8974 1.93135 10.9386 1.93135ZM10.9386 3.9345C14.8164 3.9345 17.9383 7.05261 17.9383 10.9266C17.9383 14.8006 14.8164 17.9376 10.9386 17.9376C7.06084 17.9376 3.94273 14.812 3.94273 10.9342C3.94273 7.05639 7.06084 3.9345 10.9386 3.9345Z" fill="#131A23"/>
</svg>
