<svg width="44" height="44" viewBox="0 0 44 44" fill="none" xmlns="http://www.w3.org/2000/svg">
<rect opacity="0.2" width="44" height="44" fill="white"/>
<path d="M29.1703 14.8194C27.7503 13.3854 25.9359 12.4062 23.9578 12.0064C21.9797 11.6066 19.9274 11.8043 18.0619 12.5743C16.5109 13.2145 15.1424 14.2285 14.0783 15.526C13.0142 16.8234 12.2876 18.3639 11.9633 20.0102C11.639 21.6566 11.727 23.3576 12.2195 24.9616C12.712 26.5657 13.5937 28.023 14.786 29.2037C15.7288 30.1558 16.8504 30.9123 18.0865 31.4296C19.3225 31.947 20.6486 32.215 21.9885 32.2182C23.3284 32.2216 24.6558 31.9601 25.8944 31.4488C27.133 30.9376 28.2583 30.1867 29.2058 29.2392C30.1533 28.2917 30.9042 27.1664 31.4154 25.9278C31.9267 24.6892 32.1882 23.3619 32.1848 22.0219C32.1816 20.682 31.9136 19.3559 31.3962 18.1199C30.8789 16.8839 30.1224 15.7622 29.1703 14.8194ZM13.2599 22.0116C13.2596 21.2399 13.3619 20.4717 13.5641 19.7271C13.8974 20.4445 14.3815 21.0643 14.7107 21.8004C15.1361 22.7467 16.2786 22.4842 16.7831 23.3134C17.2308 24.0494 16.7527 24.9803 17.0878 25.7504C17.3311 26.3094 17.9051 26.4315 18.3011 26.8402C18.7056 27.2525 18.697 27.8174 18.7588 28.355C18.8285 28.9867 18.9415 29.6128 19.097 30.229C19.097 30.2335 19.097 30.2385 19.1007 30.243C15.7028 29.0497 13.2599 25.8108 13.2599 22.0116ZM21.9782 30.7298C21.4913 30.7297 21.0052 30.689 20.5251 30.6081C20.5301 30.4851 20.5324 30.3702 20.5446 30.2903C20.655 29.5683 21.0164 28.8622 21.5041 28.3219C21.9859 27.7888 22.6461 27.4282 23.053 26.8234C23.4516 26.2331 23.5711 25.4385 23.4067 24.7487C23.1647 23.7298 21.7802 23.3897 21.0337 22.8371C20.6046 22.5192 20.2227 22.0279 19.6592 21.9879C19.3995 21.9698 19.182 22.0256 18.9245 21.9593C18.6884 21.898 18.5031 21.7709 18.2516 21.804C17.7816 21.8658 17.4851 22.368 16.9801 22.2999C16.5011 22.2359 16.0075 21.6751 15.8985 21.2187C15.7587 20.6321 16.2227 20.4418 16.72 20.3896C16.9275 20.3678 17.1604 20.3442 17.3598 20.4205C17.6222 20.5176 17.7462 20.7746 17.9818 20.9045C18.4237 21.147 18.5131 20.7597 18.4454 20.3673C18.3442 19.7798 18.2261 19.5405 18.7501 19.1359C19.1134 18.8571 19.424 18.6555 19.3659 18.1546C19.3314 17.8604 19.1702 17.7273 19.3205 17.4345C19.4344 17.2115 19.7473 17.0104 19.9512 16.8773C20.4774 16.534 22.2057 16.5595 21.4996 15.5986C21.2921 15.3166 20.9093 14.8126 20.546 14.7436C20.0919 14.6578 19.8903 15.1645 19.5738 15.3879C19.2469 15.6191 18.6103 15.8815 18.2829 15.5242C17.8424 15.0433 18.5749 14.8857 18.737 14.5497C18.8119 14.3931 18.737 14.1756 18.6107 13.9708C18.7752 13.9015 18.9417 13.8374 19.1102 13.7787C19.2163 13.857 19.3421 13.9042 19.4735 13.9149C19.7773 13.9349 20.0638 13.7705 20.329 13.9776C20.6232 14.2046 20.8353 14.4916 21.2258 14.5624C21.6035 14.631 22.0036 14.4108 22.0971 14.0239C22.1539 13.7887 22.0971 13.5403 22.0426 13.2974C23.7409 13.3071 25.3988 13.8157 26.8104 14.76C26.7196 14.7254 26.6111 14.7295 26.4772 14.7917C26.2015 14.9198 25.811 15.2458 25.7788 15.5691C25.742 15.936 26.2833 15.9878 26.5403 15.9878C26.9262 15.9878 27.3172 15.8152 27.1928 15.3693C27.1387 15.1759 27.0652 14.9747 26.9467 14.853C27.2316 15.0507 27.5045 15.2651 27.764 15.4951C27.7599 15.4992 27.7558 15.5028 27.7517 15.5074C27.4902 15.7798 27.1864 15.9955 27.0075 16.327C26.8813 16.5604 26.7392 16.6712 26.4835 16.7316C26.3427 16.7647 26.182 16.777 26.0639 16.8714C25.7352 17.1302 25.9223 17.7523 26.2338 17.9389C26.6274 18.1746 27.2114 18.0638 27.5084 17.7273C27.7404 17.464 27.8771 17.0067 28.2944 17.0072C28.4781 17.0068 28.6546 17.0787 28.7857 17.2074C28.9582 17.3863 28.9242 17.5534 28.9609 17.7768C29.0259 18.1737 29.376 17.9585 29.5889 17.7582C29.7442 18.0345 29.8842 18.319 30.0085 18.6105C29.7742 18.9479 29.588 19.3157 29.0245 18.9225C28.6871 18.6868 28.4796 18.3449 28.056 18.2386C27.6859 18.1478 27.3067 18.2423 26.9412 18.3054C26.5257 18.3776 26.0331 18.4094 25.7179 18.724C25.4133 19.0274 25.2521 19.4333 24.9278 19.738C24.3008 20.3283 24.036 20.9726 24.442 21.8072C24.8325 22.6096 25.6494 23.045 26.5307 22.9878C27.3967 22.9301 28.2962 22.4279 28.2712 23.6862C28.2621 24.1316 28.3552 24.44 28.4919 24.8536C28.6186 25.235 28.6099 25.6047 28.639 25.9983C28.6667 26.4593 28.7387 26.9166 28.8542 27.3638C28.0404 28.4117 26.9977 29.2597 25.806 29.8431C24.6143 30.4265 23.305 30.7298 21.9782 30.7298Z" fill="white"/>
</svg>
