<svg width="44" height="44" viewBox="0 0 44 44" fill="none" xmlns="http://www.w3.org/2000/svg">
<rect opacity="0.2" width="44" height="44" fill="white"/>
<path d="M11.7733 31.6889C11.7915 31.6525 12.3484 30.4987 13.4221 28.7735C13.3165 28.7189 13.211 28.657 13.1054 28.5952C13.0654 28.5697 13.029 28.5369 12.9999 28.5005C12.9452 28.4441 12.8953 28.3832 12.8507 28.3185C11.726 30.1275 11.1364 31.3395 11.1182 31.3759C11.0308 31.5579 11.1072 31.7726 11.2892 31.86C11.3402 31.8855 11.3911 31.8964 11.4457 31.8964C11.5804 31.8964 11.7114 31.8199 11.7733 31.6889Z" fill="white"/>
<path d="M26.8301 14.3712C27.0084 14.2766 27.2304 14.3421 27.3251 14.5168C27.4197 14.6951 27.3542 14.9135 27.1795 15.0118C20.77 18.4877 16.2312 24.3877 13.8108 28.1584C13.6725 28.3695 13.5451 28.577 13.4214 28.7735C14.2986 29.243 15.2048 29.476 16.1257 29.476C18.2476 29.476 20.4642 28.2385 22.6699 25.7926C22.7437 25.7205 22.7867 25.6227 22.79 25.5196C22.79 25.4941 22.7864 25.465 22.7791 25.4395C22.7732 25.4116 22.7634 25.3846 22.75 25.3595L22.7208 25.3049L22.0693 23.9764L24.0384 23.8635H24.0603C24.0821 23.8635 24.1039 23.8599 24.1221 23.8526C24.1476 23.849 24.1731 23.8381 24.1949 23.8271C24.2168 23.8162 24.235 23.8053 24.2532 23.7907C24.2677 23.7835 24.2786 23.7725 24.2896 23.758C24.3114 23.7398 24.3296 23.7179 24.3441 23.6925C24.7336 23.1502 25.123 22.5642 25.5416 21.8945C29.2796 15.9035 32.7628 12.7806 32.7955 12.7515C32.9084 12.6532 32.9484 12.4967 32.8975 12.3584C32.8744 12.2905 32.8316 12.231 32.7745 12.1876C32.7175 12.1442 32.6488 12.1187 32.5772 12.1146C32.3333 12.1 26.5862 11.7979 20.1003 15.161C18.9097 15.7811 17.7998 16.5451 16.7954 17.4358C16.7626 17.4577 16.7299 17.4868 16.7044 17.5159C14.0511 19.8963 12.2785 23.1392 12.1803 25.7926C12.1402 26.8372 12.3695 27.7034 12.85 28.3185C12.9846 28.1038 13.1229 27.8818 13.2758 27.6525C15.7617 23.8053 20.355 17.8835 26.8301 14.3712Z" fill="white"/>
</svg>
