<svg width="44" height="44" viewBox="0 0 44 44" fill="none" xmlns="http://www.w3.org/2000/svg">
<rect opacity="0.2" width="44" height="44" fill="white"/>
<path d="M30.7617 27.1968L34.207 18.7782H29.8379V17.1945H35.9991V18.7782L32.5677 27.1968H30.7617Z" fill="white"/>
<path d="M25.0861 27.4052C24.4332 27.4052 23.8451 27.2524 23.3218 26.9468C22.8032 26.6365 22.391 26.2082 22.0854 25.6618C21.7798 25.1153 21.627 24.4879 21.627 23.7794V20.737C21.627 19.9776 21.7775 19.3177 22.0784 18.7574C22.3841 18.197 22.8101 17.7641 23.3565 17.4584C23.9076 17.1528 24.5466 17 25.2737 17C25.7784 17 26.2577 17.0857 26.7115 17.257C27.1653 17.4237 27.5682 17.6923 27.9201 18.0628L26.7115 19.2366C26.5355 19.0283 26.3202 18.8639 26.0655 18.7435C25.8154 18.6231 25.5515 18.5629 25.2737 18.5629C24.8847 18.5629 24.5443 18.6555 24.2526 18.8407C23.9608 19.0213 23.7339 19.2598 23.5719 19.5562C23.4144 19.8525 23.3357 20.1697 23.3357 20.5078V22.1679L23.0301 21.8345C23.3172 21.5011 23.6622 21.2417 24.065 21.0565C24.4679 20.8667 24.8893 20.7717 25.3292 20.7717C25.959 20.7717 26.5147 20.9153 26.9963 21.2024C27.4779 21.4849 27.8576 21.8738 28.1354 22.3693C28.4133 22.8602 28.5522 23.4205 28.5522 24.0503C28.5522 24.6754 28.3924 25.2427 28.0729 25.7521C27.758 26.2568 27.339 26.6597 26.8157 26.9607C26.2924 27.2571 25.7159 27.4052 25.0861 27.4052ZM25.0861 25.8007C25.4103 25.8007 25.7066 25.7243 25.9752 25.5715C26.2438 25.414 26.4568 25.2033 26.6142 24.9394C26.7763 24.6708 26.8574 24.3744 26.8574 24.0503C26.8574 23.7261 26.7786 23.4298 26.6212 23.1612C26.4637 22.8926 26.2507 22.6796 25.9822 22.5221C25.7182 22.3601 25.4241 22.279 25.1 22.279C24.7758 22.279 24.4795 22.3601 24.2109 22.5221C23.9423 22.6796 23.7293 22.8926 23.5719 23.1612C23.4144 23.4298 23.3357 23.7261 23.3357 24.0503C23.3357 24.3652 23.4121 24.6569 23.5649 24.9255C23.7224 25.1894 23.9331 25.4025 24.197 25.5645C24.4656 25.722 24.762 25.8007 25.0861 25.8007Z" fill="white"/>
<path d="M12.7539 27.1968V17.1945H16.8868C16.9841 17.1945 17.1091 17.1991 17.2619 17.2084C17.4147 17.213 17.556 17.2269 17.6856 17.25C18.2645 17.338 18.7414 17.5302 19.1165 17.8266C19.4962 18.1229 19.7764 18.498 19.957 18.9518C20.1422 19.401 20.2348 19.9011 20.2348 20.4522C20.2348 20.9986 20.1422 21.4987 19.957 21.9525C19.7718 22.4017 19.4893 22.7745 19.1096 23.0709C18.7345 23.3672 18.2598 23.5594 17.6856 23.6474C17.556 23.6659 17.4124 23.6798 17.255 23.6891C17.1022 23.6983 16.9794 23.7029 16.8868 23.7029H14.4279V27.1968H12.7539ZM14.4279 22.1401H16.8174C16.91 22.1401 17.0142 22.1354 17.1299 22.1262C17.2457 22.1169 17.3522 22.0984 17.4495 22.0706C17.7273 22.0012 17.945 21.8784 18.1024 21.7025C18.2645 21.5265 18.3779 21.3274 18.4428 21.1051C18.5122 20.8828 18.5469 20.6652 18.5469 20.4522C18.5469 20.2392 18.5122 20.0215 18.4428 19.7992C18.3779 19.5723 18.2645 19.3709 18.1024 19.1949C17.945 19.019 17.7273 18.8963 17.4495 18.8268C17.3522 18.799 17.2457 18.7828 17.1299 18.7782C17.0142 18.7689 16.91 18.7643 16.8174 18.7643H14.4279V22.1401Z" fill="white"/>
<path d="M9 27.1968V17.1945H10.674V27.1968H9Z" fill="white"/>
</svg>
