<svg width="18" height="18" viewBox="0 0 18 18" fill="none" xmlns="http://www.w3.org/2000/svg">
<path d="M13.2188 2.05469C15.3172 2.05469 17 3.7589 17 6.24121C16.9999 7.53032 16.4961 8.65655 15.4629 9.90332C14.4041 11.1809 12.8692 12.4934 10.9053 14.167C10.3273 14.6596 9.67856 15.2137 9 15.8037C8.3215 15.2137 7.6724 14.6593 7.09473 14.167C5.13078 12.4934 3.59589 11.1809 2.53711 9.90332C1.50392 8.65653 1.00013 7.5303 1 6.24121C1 3.7589 2.68276 2.05469 4.78125 2.05469C5.53145 2.05469 6.21282 2.2875 6.83105 2.76562C7.44011 3.23665 7.86415 3.85401 8.12305 4.32715L9 5.93066L9.87695 4.32715C10.1359 3.85401 10.5599 3.23664 11.1689 2.76562C11.7872 2.2875 12.4686 2.05469 13.2188 2.05469Z" stroke="#8D8D8D" stroke-width="2"/>
</svg>
