<svg width="18" height="18" viewBox="0 0 18 18" fill="none" xmlns="http://www.w3.org/2000/svg">
<g clip-path="url(#clip0_53_302)">
<path d="M9 0C7.21052 0.00238121 5.49501 0.714305 4.22966 1.97966C2.9643 3.24501 2.25238 4.96052 2.25 6.75C2.25 11.5959 8.53875 17.6653 8.80594 17.9212C8.85791 17.9718 8.92753 18 9 18C9.07247 18 9.14209 17.9718 9.19406 17.9212C9.46125 17.6653 15.75 11.5959 15.75 6.75C15.7476 4.96052 15.0357 3.24501 13.7703 1.97966C12.505 0.714305 10.7895 0.00238121 9 0ZM9 9.84375C8.38811 9.84375 7.78997 9.6623 7.2812 9.32236C6.77244 8.98241 6.37591 8.49924 6.14175 7.93393C5.90759 7.36862 5.84632 6.74657 5.9657 6.14644C6.08507 5.54631 6.37972 4.99506 6.81239 4.56239C7.24506 4.12972 7.79631 3.83507 8.39644 3.7157C8.99657 3.59632 9.61862 3.65759 10.1839 3.89175C10.7492 4.12591 11.2324 4.52244 11.5724 5.0312C11.9123 5.53997 12.0938 6.13811 12.0938 6.75C12.0932 7.57035 11.7671 8.35696 11.187 8.93704C10.607 9.51711 9.82035 9.84323 9 9.84375Z" fill="white"/>
</g>
<defs>
<clipPath id="clip0_53_302">
<rect width="18" height="18" fill="white"/>
</clipPath>
</defs>
</svg>
