<svg width="14" height="22" viewBox="0 0 14 22" fill="none" xmlns="http://www.w3.org/2000/svg">
<g clip-path="url(#clip0_142_1373)">
<path d="M7 4C5.60818 4.00185 4.2739 4.55557 3.28974 5.53974C2.30557 6.5239 1.75185 7.85818 1.75 9.25C1.75 13.0191 6.64125 17.7397 6.84906 17.9388C6.88948 17.978 6.94363 18 7 18C7.05637 18 7.11052 17.978 7.15094 17.9388C7.35875 17.7397 12.25 13.0191 12.25 9.25C12.2481 7.85818 11.6944 6.5239 10.7103 5.53974C9.7261 4.55557 8.39182 4.00185 7 4ZM7 11.6562C6.52409 11.6562 6.05887 11.5151 5.66316 11.2507C5.26745 10.9863 4.95904 10.6105 4.77692 10.1708C4.59479 9.73115 4.54714 9.24733 4.63999 8.78056C4.73283 8.3138 4.962 7.88504 5.29852 7.54852C5.63504 7.212 6.0638 6.98283 6.53056 6.88999C6.99733 6.79714 7.48115 6.84479 7.92083 7.02691C8.36052 7.20904 8.73632 7.51745 9.00072 7.91316C9.26513 8.30887 9.40625 8.77409 9.40625 9.25C9.40584 9.88805 9.1522 10.4999 8.70103 10.951C8.24986 11.4022 7.63805 11.6558 7 11.6562Z" fill="#131A23"/>
</g>
<defs>
<clipPath id="clip0_142_1373">
<rect width="14" height="14" fill="white" transform="translate(0 4)"/>
</clipPath>
</defs>
</svg>
