<svg width="374" height="223" viewBox="0 0 374 223" fill="none" xmlns="http://www.w3.org/2000/svg">
<path d="M205.599 56.0492C204.505 62.0511 206.751 68.1989 211.292 71.6364C216.59 75.6458 223.674 74.9894 228.307 70.0601C228.556 70.7897 228.837 71.4368 228.826 72.2145C229.103 73.2511 230.528 79.2412 230.751 79.648C233.302 79.5641 274.432 82.6132 274.629 82.7247C275.292 82.7255 276.3 82.645 276.855 82.9431C275.65 84.8498 271.633 89.4911 270.071 91.3921L256.798 107.596L209.349 165.589L194.395 183.855C192.324 186.386 188.645 190.598 186.908 193.121C185.113 189.551 182.243 184.948 180.188 181.466L166.355 158.239C164.255 154.711 161.586 150.496 159.663 146.931C156.884 142.437 154.105 137.367 151.224 133.013C153.76 131.733 157.915 130.634 159.844 129.412C158.763 126.441 157.831 122.215 157.046 119.03L153.307 104.03C151.639 97.1044 149.9 90.2475 148.15 83.3491C147.338 80.1532 147.241 77.9927 148.763 75.1302L149.777 73.7873C152.052 71.7306 165.942 68.021 169.765 66.8411L203.649 56.4443C204.256 56.131 204.928 56.1187 205.599 56.0492Z" fill="url(#paint0_linear_400_1526)"/>
<path d="M205.599 56.0492C204.505 62.0511 206.751 68.1989 211.292 71.6364C216.59 75.6458 223.674 74.9894 228.307 70.0601C228.556 70.7897 228.837 71.4368 228.826 72.2145C229.103 73.2511 230.528 79.2412 230.751 79.648C231.557 83.1329 232.517 87.4972 233.558 90.8938C234.087 92.953 234.975 97.0144 235.584 98.8214C235.011 99.7766 223.721 103.959 221.682 104.778L193.289 116.151L170.499 125.203C167.569 126.36 162.583 128.544 159.844 129.412C158.763 126.441 157.831 122.215 157.046 119.03L153.307 104.03C151.639 97.1044 149.9 90.2475 148.15 83.3491C147.338 80.1532 147.241 77.9927 148.763 75.1302L149.777 73.7873C152.052 71.7306 165.942 68.021 169.765 66.8411L203.649 56.4443C204.256 56.131 204.928 56.1187 205.599 56.0492Z" fill="#1F4567"/>
<path d="M205.602 56.0492C204.508 62.0511 206.754 68.1989 211.295 71.6364L211.142 72.2007C210.627 72.8072 210.456 72.7874 210.405 73.4726C207.239 78.4292 203.671 85.1956 201.031 89.7586C195.505 99.3114 194.665 102.43 184.821 96.0219C183.775 95.3416 173.715 89.7619 172.925 89.6033C172.542 89.2624 148.835 75.1518 148.766 75.1302L149.78 73.7873C152.055 71.7306 165.945 68.021 169.768 66.8411L203.652 56.4443C204.259 56.131 204.931 56.1187 205.602 56.0492Z" fill="#326089"/>
<path d="M205.6 56.0492C204.506 62.0511 206.751 68.1989 211.293 71.6364L211.14 72.2007C210.625 72.8072 210.454 72.7874 210.403 73.4726C209.27 72.2023 207.998 71.5395 206.641 69.6383C203.581 65.3498 203.277 61.6186 203.649 56.4443C204.256 56.131 204.928 56.1187 205.6 56.0492Z" fill="#275074"/>
<path d="M228.307 70.0602C228.556 70.7898 228.837 71.4369 228.826 72.2146C228.176 72.5547 226.967 73.6483 226.208 74.1866C222.234 77.0029 217.996 76.858 213.644 75.236C212.838 74.9353 211.46 74.1114 210.725 74.6695C207.716 80.5364 204.89 86.4937 201.916 92.3916C199.876 96.4374 198.993 100.806 194.39 102.108C191.229 103.003 188.819 101.835 186.34 99.6111L186.268 99.2819L186.976 98.3286C186.903 97.6414 186.84 97.5802 186.306 97.1724C184.77 96 173.14 90.4664 172.922 89.6034C173.712 89.762 183.772 95.3417 184.818 96.022C194.662 102.43 195.502 99.3115 201.028 89.7587C203.668 85.1957 207.236 78.4293 210.402 73.4727C210.453 72.7875 210.624 72.8073 211.139 72.2008L211.292 71.6365C216.589 75.6459 223.674 74.9895 228.307 70.0602Z" fill="#183856"/>
<path d="M230.754 79.6481C233.305 79.5641 274.435 82.6132 274.632 82.7247C273.893 82.7854 273.339 82.791 272.597 82.7788C273.603 83.1532 275.104 83.0106 275.557 83.9694L275.327 84.2199C274.338 83.9862 273.959 83.7915 273.112 84.3105C272.788 84.4641 270.002 85.3734 269.675 85.5086C266.467 86.8364 236.888 99.0119 235.794 99.0119L235.587 98.8214C234.979 97.0145 234.09 92.953 233.561 90.8939C232.52 87.4973 231.56 83.133 230.754 79.6481Z" fill="#23A8B3"/>
<path d="M233.559 90.8939C233.681 90.8257 233.803 90.7587 233.928 90.6973C236.092 89.6353 271.004 83.7207 272.104 84.2236C272.483 84.3971 272.708 84.3785 273.109 84.3105C272.785 84.4641 269.999 85.3735 269.673 85.5087C266.464 86.8365 236.886 99.012 235.791 99.012L235.585 98.8215C234.976 97.0145 234.088 92.9531 233.559 90.8939Z" fill="#259192"/>
<path d="M62.3697 164.945C69.6221 164.509 72.1594 169.289 74.8892 175.759C76.7887 177.236 78.8973 178.13 80.6334 179.987C85.0066 184.56 84.6616 193.193 80.5516 197.828C75.8768 203.099 66.5162 201.704 60.2597 201.693L39.142 201.69C36.3998 201.703 33.6911 201.679 30.8563 201.601C19.812 201.298 15.4886 187.098 23.4526 178.982C26.116 176.267 30.7565 175.81 34.3355 176.153C36.5649 172.902 38.9631 169.836 42.7062 168.941C46.1293 168.123 49.9701 169.176 52.8844 171.245L53.2365 170.771C55.9691 167.101 58.0183 165.389 62.3697 164.945Z" fill="#E6F8FD"/>
<path d="M333.041 73.0646C339.944 72.8088 342.84 77.8108 344.987 84.1819C350.32 86.8694 353.681 89.6302 354.074 96.8498C354.355 102.004 350.181 108.285 345.56 109.162C340.506 110.122 334.76 109.806 329.544 109.79L308.815 109.792C305.88 109.813 303.165 109.801 300.276 109.611C289.621 108.906 285.901 94.1402 293.987 86.815C296.888 84.1869 301.164 84.0771 304.703 84.5246C308.811 76.6488 316.1 74.3848 322.986 79.5784L323.158 79.3521C326.291 75.281 328.129 73.4773 333.041 73.0646Z" fill="#E6F8FD"/>
<path d="M131.788 108.632C134.998 106.866 151.521 105.731 153.307 104.03L157.046 119.03C157.831 122.215 158.763 126.441 159.844 129.412C157.915 130.634 153.76 131.732 151.224 133.013C154.105 137.367 156.884 142.437 159.663 146.931C155.342 148.416 150.138 150.952 145.818 152.717C134.89 157.183 123.912 162.312 112.979 166.693C112.562 166.969 110.796 167.752 110.258 168.007C112.198 161.914 115.238 154.181 117.447 148.087L131.788 108.632Z" fill="#23A8B3"/>
<path d="M112.98 166.693C113.583 165.049 115.779 163.128 117.107 162.033C128.471 152.657 139.699 142.037 151.225 133.013C154.107 137.367 156.886 142.438 159.665 146.931C155.344 148.416 150.14 150.952 145.82 152.718C134.892 157.183 123.914 162.312 112.98 166.693Z" fill="#259192"/>
<path d="M90.8477 69.625C99.9343 69.8582 110.514 70.9592 119.708 71.5993C129.335 72.2696 140.29 72.7401 149.78 73.7874L148.766 75.1303C147.244 77.9928 147.341 80.1533 148.153 83.3491C149.903 90.2476 151.642 97.1045 153.31 104.03C151.524 105.732 135.001 106.866 131.791 108.633C131.725 108.183 131.559 107.855 131.241 107.565C117.691 95.1947 104.572 81.7192 90.8477 69.625Z" fill="#45D6E2"/>
<path d="M205.602 56.0493C206.77 49.6422 211.482 44.7901 217.298 44.0072C223.114 43.2243 228.725 46.6865 231.225 52.6C233.723 58.5133 232.549 65.5485 228.309 70.0602C223.676 74.9895 216.592 75.6459 211.294 71.6365C206.753 68.1989 204.508 62.0512 205.602 56.0493Z" fill="#D52B1E"/>
<path d="M218.842 50.2971L221.401 50.1968C221.571 55.8651 221.48 62.1374 221.486 67.8361C220.554 67.8372 218.982 68.0066 218.354 67.4195C218.304 63.0557 218.346 58.6728 218.369 54.3073L215.434 55.512L215.479 51.958C216.734 51.2216 217.516 50.8617 218.842 50.2971Z" fill="white"/>
<path d="M200.069 16.4974C203.532 16.3688 205.796 21.1137 208.132 23.3477C210.595 25.6714 211.914 30.0866 209.366 32.9294C207.025 35.5418 202.592 35.1649 199.536 35.176C195.905 35.1892 192.284 35.156 188.663 35.1391C183.656 35.0849 177.216 35.1478 178.843 26.5576C179.691 22.0758 183.153 23.24 185.299 22.0162C189.711 19.5002 189.468 17.498 194.927 19.4532C196.724 18.1989 198.049 17.212 200.069 16.4974Z" fill="#E6F8FD"/>
<path d="M51.5051 61.763C52.2685 61.7006 53.3084 61.7493 54.0945 61.7602C55.0655 62.5791 61.789 70.2174 62.3927 71.2943C63.1692 76.5603 60.8688 79.8899 56.0339 79.9659C50.8703 80.0471 45.6982 79.9945 40.5332 79.9919C38.6783 80.0164 35.4327 80.2709 33.767 79.4589C30.1032 77.6733 29.2297 72.1246 32.1517 69.0231C33.862 67.2076 35.6356 67.4674 37.6757 66.4186C39.1222 65.6447 40.4479 64.4117 41.9511 63.7458C43.6326 63.0168 45.2256 63.7907 46.7616 64.5875C48.6196 62.9064 49.2183 62.5294 51.5051 61.763Z" fill="#E6F8FD"/>
<path d="M294.48 183.773C298.693 183.395 299.303 185.678 301.678 188.754C303.018 190.267 304.089 191.349 305.32 193.026C307.532 195.427 304.847 201.092 302.443 201.564C297.403 202.554 290.529 202.161 285.451 202.148C278.97 202.032 273.35 203.132 273.865 193.668C274.359 192.751 275.137 191.255 275.946 190.727L276.059 190.654C277.317 189.829 280.54 189.128 281.098 188.663C284.948 185.455 285.873 185.613 290.527 186.176C290.625 186.188 293.636 184.143 294.48 183.773Z" fill="#E6F8FD"/>
<defs>
<linearGradient id="paint0_linear_400_1526" x1="283.05" y1="123.373" x2="156.028" y2="151.761" gradientUnits="userSpaceOnUse">
<stop stop-color="#23A8B3"/>
<stop offset="1" stop-color="#50E3F0"/>
</linearGradient>
</defs>
</svg>
