<svg width="40" height="40" viewBox="0 0 40 40" fill="none" xmlns="http://www.w3.org/2000/svg">
<path d="M37.3461 30.4359L20.5727 39.85C20.3975 39.9483 20.2001 40 19.9992 40C19.7984 40 19.6009 39.9483 19.4258 39.85L2.65234 30.4359C1.85469 29.9891 1.85625 28.8383 2.65234 28.3922L6.82422 26.0508L18.2789 32.4797C18.8043 32.7746 19.3967 32.9295 19.9992 32.9295C20.6017 32.9295 21.1941 32.7746 21.7195 32.4797L33.1742 26.0508L37.3461 28.3922C38.1437 28.8391 38.1422 29.9898 37.3461 30.4359Z" fill="#23A8B3"/>
<path d="M37.3461 18.9781L33.1742 16.6367L21.7195 23.0656C21.1941 23.3605 20.6017 23.5153 19.9992 23.5153C19.3967 23.5153 18.8043 23.3605 18.2789 23.0656L6.82422 16.6367L2.65234 18.9781C1.85625 19.4242 1.85469 20.575 2.65234 21.0219L19.4258 30.4359C19.6009 30.5343 19.7984 30.5859 19.9992 30.5859C20.2001 30.5859 20.3975 30.5343 20.5727 30.4359L37.3461 21.0219C38.1422 20.5758 38.1437 19.425 37.3461 18.9781ZM9.63984 22.5641C8.99219 22.5641 8.46797 22.0391 8.46797 21.3922C8.46797 20.7445 8.99219 20.2203 9.63984 20.2203C10.2867 20.2203 10.8117 20.7445 10.8117 21.3922C10.8117 22.0391 10.2867 22.5641 9.63984 22.5641ZM14.6297 25.4664C13.982 25.4664 13.4578 24.9414 13.4578 24.2945C13.4578 23.6469 13.982 23.1227 14.6297 23.1227C15.2766 23.1227 15.8016 23.6469 15.8016 24.2945C15.8016 24.9414 15.2766 25.4664 14.6297 25.4664ZM19.9992 28.1852C19.3523 28.1852 18.8273 27.6609 18.8273 27.0133C18.8273 26.3664 19.3523 25.8414 19.9992 25.8414C20.6461 25.8414 21.1711 26.3664 21.1711 27.0133C21.1711 27.6609 20.6461 28.1852 19.9992 28.1852ZM25.3687 25.4664C24.7219 25.4664 24.1969 24.9414 24.1969 24.2945C24.1969 23.6469 24.7219 23.1227 25.3687 23.1227C26.0164 23.1227 26.5406 23.6469 26.5406 24.2945C26.5406 24.9414 26.0164 25.4664 25.3687 25.4664ZM30.3586 22.5641C29.7117 22.5641 29.1867 22.0391 29.1867 21.3922C29.1867 20.7445 29.7117 20.2203 30.3586 20.2203C31.0062 20.2203 31.5305 20.7445 31.5305 21.3922C31.5305 22.0391 31.0062 22.5641 30.3586 22.5641Z" fill="#23A8B3"/>
<path d="M37.3461 11.6078L20.5727 21.0219C20.3975 21.1202 20.2001 21.1719 19.9992 21.1719C19.7984 21.1719 19.6009 21.1202 19.4258 21.0219L2.65234 11.6078C1.85469 11.1609 1.85625 10.0102 2.65234 9.56406L19.4258 0.150001C19.6009 0.0516549 19.7984 0 19.9992 0C20.2001 0 20.3975 0.0516549 20.5727 0.150001L37.3461 9.56406C38.1437 10.0109 38.1422 11.1617 37.3461 11.6078Z" fill="#23A8B3"/>
</svg>
