<svg width="40" height="40" viewBox="0 0 40 40" fill="none" xmlns="http://www.w3.org/2000/svg">
<path d="M16.0223 39.9051C16.5514 40.1312 17.1667 39.9424 17.4757 39.4542L31.5382 17.1104C31.6502 16.9331 31.7125 16.7291 31.7187 16.5195C31.725 16.3099 31.6748 16.1024 31.5736 15.9188C31.4724 15.7352 31.3237 15.5821 31.1432 15.4754C30.9627 15.3688 30.7568 15.3126 30.5471 15.3126H21.1618L24.6523 1.46029C24.7931 0.900683 24.5081 0.322714 23.9782 0.0949794C23.4518 -0.131583 22.8327 0.0583388 22.5248 0.545839L8.46228 22.8896C8.35033 23.0669 8.28799 23.271 8.28177 23.4806C8.27554 23.6902 8.32565 23.8976 8.42688 24.0812C8.52811 24.2649 8.67675 24.418 8.85729 24.5246C9.03784 24.6312 9.24369 24.6875 9.45337 24.6875H18.8387L15.3482 38.5397C15.2074 39.0994 15.4924 39.6773 16.0223 39.9051Z" fill="#23A8B3"/>
</svg>
