<svg width="40" height="40" viewBox="0 0 40 40" fill="none" xmlns="http://www.w3.org/2000/svg">
<g clip-path="url(#clip0_105_1476)">
<path d="M34.1421 5.85789C30.3646 2.08031 25.3422 0 20 0C14.6578 0 9.63531 2.08031 5.85781 5.85789C2.08031 9.63547 0 14.6578 0 19.9999C0 25.342 2.08031 30.3645 5.85789 34.142C9.63547 37.9195 14.6577 40 19.9999 40C25.3421 40 30.3646 37.9195 34.142 34.142C37.9195 30.3645 39.9999 25.3421 39.9999 19.9999C39.9999 14.6577 37.9196 9.63539 34.1421 5.85789ZM22.256 7.93117C25.0597 8.45414 27.531 9.93266 29.3182 12.0151L25.2669 14.3541C24.9617 14.5303 24.6156 14.623 24.2633 14.6229C23.911 14.6229 23.5649 14.5302 23.2598 14.354C22.9547 14.1779 22.7013 13.9245 22.5251 13.6194C22.3489 13.3143 22.2562 12.9682 22.2561 12.6159V7.93117H22.256ZM17.744 7.93117V12.6159C17.744 12.9682 17.6513 13.3144 17.4751 13.6195C17.299 13.9247 17.0456 14.178 16.7404 14.3542C16.4353 14.5304 16.0891 14.6231 15.7368 14.6231C15.3845 14.6231 15.0383 14.5303 14.7332 14.3541L10.6819 12.015C12.4689 9.93266 14.9403 8.45414 17.744 7.93117ZM7.72266 19.9999C7.72266 18.57 7.96914 17.1969 8.42063 15.9197L12.4772 18.2617C12.7823 18.4379 13.0357 18.6913 13.2118 18.9964C13.388 19.3016 13.4807 19.6477 13.4807 20C13.4807 20.3523 13.388 20.6985 13.2118 21.0036C13.0357 21.3087 12.7823 21.5621 12.4772 21.7383L8.42063 24.0803C7.96914 22.803 7.72266 21.4298 7.72266 19.9999ZM17.7441 32.0688C14.9403 31.5459 12.469 30.0674 10.6819 27.9849L14.7332 25.6459C15.0383 25.4697 15.3844 25.377 15.7368 25.3771C16.0891 25.3771 16.4352 25.4698 16.7403 25.646C17.0454 25.8221 17.2988 26.0755 17.475 26.3806C17.6511 26.6857 17.7439 27.0318 17.744 27.3841V32.0688H17.7441ZM15.7523 19.9999C15.7523 17.6578 17.6577 15.7523 19.9999 15.7523C22.3421 15.7523 24.2476 17.6577 24.2476 19.9999C24.2476 22.3421 22.3422 24.2476 19.9999 24.2476C17.6577 24.2476 15.7523 22.3421 15.7523 19.9999ZM22.2561 32.0688V27.3841C22.2561 27.0318 22.3488 26.6856 22.5249 26.3805C22.7011 26.0753 22.9545 25.822 23.2596 25.6458C23.5648 25.4696 23.9109 25.3769 24.2633 25.3769C24.6156 25.3769 24.9618 25.4697 25.2669 25.6459L29.3182 27.985C27.531 30.0674 25.0597 31.5459 22.2561 32.0688ZM31.5793 24.0803L27.523 21.7384C26.9023 21.3801 26.5198 20.7179 26.5195 20.0012C26.5191 19.2845 26.9005 18.621 27.5212 18.2627L31.5793 15.9198C32.0308 17.197 32.2773 18.5702 32.2773 20C32.2773 21.4298 32.0308 22.803 31.5793 24.0803Z" fill="#23A8B3"/>
<path d="M19.9999 18.3556C19.0931 18.3556 18.3555 19.0932 18.3555 20C18.3555 20.9067 19.0931 21.6444 19.9999 21.6444C20.9067 21.6444 21.6444 20.9067 21.6444 20C21.6444 19.0932 20.9067 18.3556 19.9999 18.3556Z" fill="#23A8B3"/>
</g>
<defs>
<clipPath id="clip0_105_1476">
<rect width="40" height="40" fill="white"/>
</clipPath>
</defs>
</svg>
