<svg width="40" height="40" viewBox="0 0 40 40" fill="none" xmlns="http://www.w3.org/2000/svg">
<path d="M25.8789 15.3027H32.9492V9.3457C32.9492 8.73188 32.4498 8.23242 31.8359 8.23242H25.8789V15.3027ZM16.4648 8.23242H23.5352V15.3027H16.4648V8.23242ZM16.4648 17.6465H23.5352V24.7168H16.4648V17.6465ZM25.8789 24.7168H31.8359C32.4498 24.7168 32.9492 24.2173 32.9492 23.6035V17.6465H25.8789V24.7168ZM14.1211 8.23242H8.16406C7.55023 8.23242 7.05078 8.73188 7.05078 9.3457V15.3027H14.1211V8.23242ZM14.1211 24.7168V17.6465H7.05078V23.6035C7.05078 24.2173 7.55023 24.7168 8.16406 24.7168H14.1211Z" fill="#23A8B3"/>
<path d="M36.4258 31.7676C38.3966 31.7676 40 30.1642 40 28.1934V4.75586C40 2.785 38.3966 1.18164 36.4258 1.18164H3.57422C1.60336 1.18164 0 2.785 0 4.75586V28.1934C0 30.1642 1.60336 31.7676 3.57422 31.7676H36.4258ZM4.70703 23.6035V9.3457C4.70703 7.43953 6.25789 5.88867 8.16406 5.88867H31.8359C33.7421 5.88867 35.293 7.43953 35.293 9.3457V23.6035C35.293 25.5097 33.7421 27.0605 31.8359 27.0605H8.16406C6.25789 27.0605 4.70703 25.5097 4.70703 23.6035ZM9.41406 34.1113V36.4746H8.23242C7.58523 36.4746 7.06055 36.9993 7.06055 37.6465C7.06055 38.2937 7.58523 38.8184 8.23242 38.8184H31.7676C32.4148 38.8184 32.9395 38.2937 32.9395 37.6465C32.9395 36.9993 32.4148 36.4746 31.7676 36.4746H30.5859V34.1113H9.41406Z" fill="#23A8B3"/>
</svg>
