<svg width="40" height="40" viewBox="0 0 40 40" fill="none" xmlns="http://www.w3.org/2000/svg">
<path d="M11.7969 29.4677V32.2792L7.89898 34.4448C7.36227 34.0107 6.67992 33.75 5.9375 33.75C4.21438 33.75 2.8125 35.1519 2.8125 36.875C2.8125 38.5981 4.21438 40 5.9375 40C7.66062 40 9.0625 38.5981 9.0625 36.875C9.0625 36.7455 9.05367 36.6182 9.03828 36.4929L13.5378 33.9931C13.7205 33.8917 13.8728 33.7432 13.9787 33.563C14.0847 33.3829 14.1406 33.1777 14.1406 32.9688V28.6328L13.583 28.9674C13.0431 29.2911 12.4263 29.4639 11.7969 29.4677ZM21.1719 33.9788V32.0312H18.8281V33.9788C17.6841 34.4434 16.875 35.5662 16.875 36.875C16.875 38.5981 18.2769 40 20 40C21.7231 40 23.125 38.5981 23.125 36.875C23.125 35.5662 22.3159 34.4434 21.1719 33.9788ZM34.0625 33.75C33.3201 33.75 32.6377 34.0107 32.101 34.4447L28.2031 32.2792V29.4677C27.5737 29.4639 26.9569 29.2911 26.4171 28.9674L25.8594 28.6328V32.9688C25.8594 33.1777 25.9153 33.3829 26.0213 33.563C26.1272 33.7432 26.2795 33.8917 26.4622 33.9931L30.9617 36.4929C30.9459 36.6196 30.9378 36.7473 30.9375 36.875C30.9375 38.5981 32.3394 40 34.0625 40C35.7856 40 37.1875 38.5981 37.1875 36.875C37.1875 35.1519 35.7856 33.75 34.0625 33.75ZM29.0545 26.7815L31.9377 23.8982C32.1225 23.7134 32.2403 23.4721 32.2722 23.2127C32.3041 22.9534 32.2484 22.6907 32.114 22.4666L31.0431 20.6817C31.4072 19.9923 31.7057 19.2701 31.9345 18.5248L33.9561 18.0194C34.2096 17.956 34.4347 17.8097 34.5955 17.6037C34.7564 17.3977 34.8437 17.1438 34.8438 16.8825V12.805C34.8437 12.5437 34.7564 12.2898 34.5955 12.0838C34.4347 11.8778 34.2096 11.7315 33.9561 11.6681L31.9345 11.1627C31.7057 10.4174 31.4072 9.69518 31.043 9.0057L32.114 7.22078C32.2484 6.99668 32.3041 6.73406 32.2722 6.47467C32.2403 6.21528 32.1225 5.97402 31.9377 5.78922L29.0546 2.90602C28.8698 2.72121 28.6285 2.60349 28.3692 2.57155C28.1098 2.53962 27.8472 2.59531 27.623 2.72977L25.838 3.8007C25.1486 3.43654 24.4265 3.13807 23.6811 2.90922L23.1757 0.887656C23.1123 0.634109 22.966 0.409029 22.76 0.248194C22.554 0.0873587 22.3001 -1.27334e-06 22.0387 1.04992e-09L17.9613 1.04992e-09C17.6999 -1.10582e-05 17.4461 0.0873467 17.2401 0.248185C17.0341 0.409022 16.8877 0.634108 16.8244 0.887656L16.319 2.90922C15.5737 3.13808 14.8515 3.43656 14.1621 3.8007L12.377 2.72977C12.1529 2.59531 11.8903 2.53963 11.631 2.57156C11.3716 2.6035 11.1303 2.72122 10.9455 2.90602L8.06234 5.78922C7.87754 5.97402 7.75982 6.21528 7.72788 6.47467C7.69595 6.73406 7.75164 6.99668 7.88609 7.22078L8.95703 9.0057C8.59287 9.69516 8.29439 10.4174 8.06555 11.1627L6.04398 11.6681C5.79042 11.7315 5.56532 11.8778 5.40447 12.0838C5.24361 12.2898 5.15624 12.5436 5.15625 12.805V16.8825C5.15624 17.1438 5.2436 17.3977 5.40443 17.6037C5.56527 17.8097 5.79036 17.956 6.04391 18.0194L8.06547 18.5248C8.29434 19.2701 8.59279 19.9923 8.95688 20.6817L7.88602 22.4666C7.75156 22.6907 7.69587 22.9534 7.7278 23.2127C7.75974 23.4721 7.87746 23.7134 8.06227 23.8982L10.9455 26.7815C11.1303 26.9663 11.3715 27.084 11.6309 27.1159C11.8903 27.1479 12.1529 27.0922 12.377 26.9577L14.162 25.8868C14.8514 26.2509 15.5736 26.5494 16.3189 26.7784L16.8243 28.7999C16.8877 29.0535 17.034 29.2785 17.24 29.4394C17.446 29.6002 17.6998 29.6876 17.9612 29.6876H22.0387C22.3 29.6876 22.5539 29.6002 22.7599 29.4394C22.9659 29.2786 23.1122 29.0535 23.1755 28.7999L23.6809 26.7784C24.4263 26.5495 25.1485 26.251 25.8379 25.8868L27.6228 26.9577C27.8469 27.0922 28.1096 27.1479 28.369 27.1159C28.6284 27.084 28.8697 26.9663 29.0545 26.7815ZM20 20.3125C16.9797 20.3125 14.5312 17.8641 14.5312 14.8438C14.5312 11.8234 16.9797 9.375 20 9.375C23.0203 9.375 25.4688 11.8234 25.4688 14.8438C25.4688 17.8641 23.0203 20.3125 20 20.3125Z" fill="#23A8B3"/>
</svg>
