<svg width="40" height="40" viewBox="0 0 40 40" fill="none" xmlns="http://www.w3.org/2000/svg">
<g clip-path="url(#clip0_105_1448)">
<path d="M28.5674 24.0427C27.5199 23.5706 26.7762 22.9289 26.156 21.9619C23.2624 17.3011 16.7375 17.3015 13.8443 21.9619C13.2241 22.9289 12.4804 23.5706 11.433 24.0427C3.72122 27.6287 6.33885 38.6931 14.8128 38.7606C17.8122 38.8219 18.9293 36.8919 22.099 38.1634C27.1631 40.3236 33.2772 36.4957 33.1846 31.0408C33.1848 28.0536 31.3723 25.3066 28.5674 24.0427ZM10.5871 14.5575C11.7722 15.7802 13.1059 16.3525 14.5625 16.0711C16.43 15.6753 17.7426 13.8001 17.9883 11.177C18.2008 8.90752 17.1867 6.81066 15.2758 5.568C14.0598 4.77729 13.1175 3.52001 12.6226 2.02782C12.4214 1.42104 11.7712 1.08699 11.1606 1.27716C10.1788 1.5829 8.9037 2.58207 8.40443 5.60647C8.12262 7.31376 8.17665 9.15805 8.37573 10.0974C8.74958 11.8613 9.53489 13.4454 10.5871 14.5575ZM9.26777 17.7375C8.56066 15.973 7.16184 14.7233 5.32897 14.2186C4.42856 13.9708 3.57648 13.474 2.86483 12.782C2.68876 12.6107 2.46336 12.4991 2.22043 12.4628C1.97751 12.4265 1.72932 12.4674 1.5109 12.5798C1.44334 12.6145 1.38274 12.6487 1.32487 12.6849C-0.962703 13.9633 0.143668 18.6208 1.42355 20.7536C2.84708 23.0383 5.69085 25.163 8.22294 23.7129C9.86799 22.6839 10.2878 20.2826 9.26777 17.7375ZM25.4377 16.0711C25.6707 16.1204 25.9065 16.1447 26.1438 16.1447C27.2773 16.1446 28.4374 15.5889 29.4131 14.5575C30.4654 13.4454 31.2507 11.8613 31.6245 10.0973C32.1572 7.40384 31.5557 1.95698 28.8397 1.27708C28.2291 1.08699 27.579 1.42088 27.3777 2.02775C26.8828 3.51993 25.9405 4.77722 24.7245 5.56792C22.8135 6.81066 21.7994 8.90744 22.012 11.177C22.2577 13.8001 23.5703 15.6753 25.4377 16.0711ZM38.6746 12.6843C38.6144 12.6468 38.5525 12.6119 38.4893 12.5797C38.2709 12.4674 38.0227 12.4265 37.7798 12.4628C37.5369 12.4991 37.3115 12.6107 37.1354 12.7819C36.4237 13.4739 35.5716 13.9707 34.6712 14.2186C32.8384 14.7233 31.4395 15.973 30.7324 17.7374C29.7124 20.2825 30.1323 22.6838 31.7773 23.7128C34.3101 25.1624 37.1516 23.0393 38.5766 20.7536C39.8606 18.6134 40.9599 13.9597 38.6746 12.6843Z" fill="#23A8B3"/>
</g>
<defs>
<clipPath id="clip0_105_1448">
<rect width="40" height="40" fill="white"/>
</clipPath>
</defs>
</svg>
