<svg width="18" height="18" viewBox="0 0 18 18" fill="none" xmlns="http://www.w3.org/2000/svg">
<g clip-path="url(#clip0_53_308)">
<path d="M13.3992 18C12.0282 18 10.3463 17.3687 8.49338 16.1248C4.74693 13.6108 0.362639 8.45134 0.0228328 4.96505C-0.0858422 3.85006 0.193777 2.95037 0.854039 2.29008L3.14415 0L7.80727 4.66313L7.43442 5.03603C6.8396 5.63093 5.8649 6.60355 5.16805 7.29568C5.8091 8.23711 7.0466 9.62831 7.95968 10.5414C8.82396 11.4049 9.82406 12.191 10.7254 12.793C11.3747 12.1395 12.2486 11.2629 12.9634 10.5465L13.3368 10.1733L18 14.8375L15.7376 17.0998C15.1356 17.7018 14.341 18 13.3992 18Z" fill="white"/>
</g>
<defs>
<clipPath id="clip0_53_308">
<rect width="18" height="18" fill="white"/>
</clipPath>
</defs>
</svg>
