<svg width="14" height="22" viewBox="0 0 14 22" fill="none" xmlns="http://www.w3.org/2000/svg">
<g clip-path="url(#clip0_142_1365)">
<path d="M10.4216 18C9.3553 18 8.04715 17.509 6.60596 16.5415C3.69206 14.5862 0.282053 10.5733 0.0177589 7.8617C-0.0667661 6.99449 0.150715 6.29473 0.664253 5.78117L2.44545 4L6.07232 7.62687L5.78232 7.91692C5.31969 8.37962 4.56159 9.1361 4.01959 9.67442C4.51819 10.4066 5.48069 11.4887 6.19086 12.1989C6.86308 12.8705 7.64093 13.4819 8.34196 13.9501C8.84697 13.4418 9.52671 12.76 10.0826 12.2029L10.3731 11.9126L14 15.5403L12.2404 17.2998C11.7722 17.7681 11.1541 18 10.4216 18Z" fill="#131A23"/>
</g>
<defs>
<clipPath id="clip0_142_1365">
<rect width="14" height="14" fill="white" transform="translate(0 4)"/>
</clipPath>
</defs>
</svg>
