<svg width="22" height="22" viewBox="0 0 22 22" fill="none" xmlns="http://www.w3.org/2000/svg">
<path d="M10.0264 1.7704C7.84067 1.77407 5.74548 2.64398 4.19991 4.18955C2.65434 5.73512 1.78443 7.83031 1.78076 10.0161C1.78259 12.2037 2.65147 14.3014 4.19704 15.8495C5.74261 17.3977 7.83884 18.2701 10.0264 18.2756C11.9666 18.2756 13.7543 17.5931 15.1678 16.4636L18.6012 19.897C18.7752 20.0587 19.005 20.1468 19.2425 20.1426C19.48 20.1385 19.7066 20.0424 19.8747 19.8747C20.0429 19.707 20.1395 19.4806 20.1443 19.2432C20.1491 19.0057 20.0617 18.7756 19.9004 18.6013L16.4671 15.1644C17.6397 13.706 18.279 11.8909 18.279 10.0195C18.279 5.47402 14.5719 1.7704 10.0264 1.7704ZM10.0264 3.60662C13.5811 3.60662 16.4428 6.46489 16.4428 10.0161C16.4428 13.5673 13.5811 16.4428 10.0264 16.4428C6.47179 16.4428 3.61352 13.5776 3.61352 10.023C3.61352 6.46835 6.47179 3.60662 10.0264 3.60662Z" fill="#8D8D8D"/>
</svg>
