<svg width="22" height="22" viewBox="0 0 22 22" fill="none" xmlns="http://www.w3.org/2000/svg">
<g clip-path="url(#clip0_105_880)">
<path d="M3.66732 8.34163C3.85065 6.69163 4.58398 5.1333 5.77565 3.94163C7.24232 2.56663 9.07565 1.8333 11.0006 1.8333C12.834 1.8333 14.759 2.56663 16.2256 3.94163L14.6673 5.49997H19.2506V0.916634L17.509 2.6583C13.934 -0.916699 8.06732 -0.916699 4.49232 2.6583C3.02565 4.12497 2.10898 6.04997 1.83398 8.1583V9.16663H3.66732V8.34163ZM18.334 9.16663C18.334 11.0916 17.6006 13.0166 16.2256 14.3916C14.759 15.7666 12.9256 16.5 11.0006 16.5C9.07565 16.5 7.24232 15.7666 5.77565 14.3916L7.33398 12.8333H2.75065V17.4166L4.49232 15.675C6.23398 17.4166 8.52565 18.3333 11.0006 18.3333C13.4756 18.3333 15.7673 17.4166 17.509 15.675C19.2506 13.9333 20.1673 11.55 20.1673 9.16663H18.334Z" fill="#8D8D8D"/>
</g>
<defs>
<clipPath id="clip0_105_880">
<rect width="22" height="22" fill="white"/>
</clipPath>
</defs>
</svg>
